SplineFontDB: 3.2
FontName: linja_laso
FullName: linja laso
FamilyName: linja laso
Weight: Regular
Copyright: Copyright (c) 2026, mute ante
Version: 1.0
ItalicAngle: 0
UnderlinePosition: -62
UnderlineWidth: 30
Ascent: 576
Descent: 64
InvalidEm: 0
sfntRevision: 0x0000e666
LayerCount: 2
Layer: 0 0 "Back" 1
Layer: 1 0 "Fore" 0
XUID: [1021 412 1039766594 11549582]
StyleMap: 0x0040
FSType: 0
OS2Version: 4
OS2_WeightWidthSlopeOnly: 0
OS2_UseTypoMetrics: 1
CreationTime: 1759787008
ModificationTime: 1768146574
PfmFamily: 17
TTFWeight: 400
TTFWidth: 5
LineGap: 59
VLineGap: 0
Panose: 2 0 5 3 0 0 0 0 0 0
OS2TypoAscent: 576
OS2TypoAOffset: 0
OS2TypoDescent: -64
OS2TypoDOffset: 0
OS2TypoLinegap: 59
OS2WinAscent: 552
OS2WinAOffset: 0
OS2WinDescent: 39
OS2WinDOffset: 0
HheadAscent: 552
HheadAOffset: 0
HheadDescent: -39
HheadDOffset: 0
OS2SubXSize: 416
OS2SubYSize: 448
OS2SubXOff: 0
OS2SubYOff: 89
OS2SupXSize: 416
OS2SupYSize: 448
OS2SupXOff: 0
OS2SupYOff: 307
OS2StrikeYSize: 31
OS2StrikeYPos: 165
OS2Vendor: 'PfEd'
OS2CodePages: 00000001.00000000
OS2UnicodeRanges: 00000001.02000000.04000000.00000000
Lookup: 4 0 1 "LIGA basics" { "LIGA basics"  } ['liga' ('DFLT' <'dflt' > 'latn' <'dflt' > ) ]
Lookup: 1 0 0 "SS01 allow half spaces" { "SS01 allow half spaces"  } ['ss01' ('DFLT' <'dflt' > 'latn' <'dflt' > ) ]
Lookup: 6 0 0 "CALT cartouches" { "CALT cartouches"  } ['calt' ('DFLT' <'dflt' > 'latn' <'dflt' > ) ]
Lookup: 2 0 0 "CCMP cartouches" { "CCMP cartouches"  } ['stch' ('DFLT' <'dflt' > 'latn' <'dflt' > ) ]
MarkAttachClasses: 1
DEI: 91125
ChainSub2: class "CALT cartouches" 3 3 3 1

StartChar: .notdef
Encoding: 65536 -1 0
GlifName: _notdef
Width: 640
GlyphClass: 1
Flags: HW
HStem: 0 21G<63.999 575.999> 492 20G<63.999 575.999> 492 20G<63.999 575.999>
VStem: 63.999 512<0 512>
LayerCount: 2
Fore
SplineSet
63.9990234375 0 m 1xd0
 63.9990234375 512 l 1
 575.999023438 512 l 1
 575.999023438 0 l 1
 63.9990234375 0 l 1xd0
EndSplineSet
EndChar

StartChar: t.a
Encoding: 65537 989440 2
GlifName: t.a
Width: 640
GlyphClass: 1
Flags: HW
HStem: -16.0156 64.0039<265.226 343.711> 175.996 64.0039<265.226 343.601>
VStem: 176.025 64.0039<73.2079 150.782> 272 64<288 528> 435.758 63.0703<-0.745449 42.3961>
LayerCount: 2
Fore
SplineSet
272 288 m 1
 272 528 l 1
 336 528 l 1
 336 288 l 1
 272 288 l 1
304.00390625 175.99609375 m 0
 268.666015625 175.99609375 240.029296875 147.331054688 240.029296875 111.9921875 c 0
 240.029296875 76.654296875 268.666015625 47.9912109375 304.00390625 47.98828125 c 0
 339.342773438 47.9912109375 367.978515625 76.654296875 367.978515625 111.9921875 c 0
 367.978515625 129.607421875 360.86328125 145.564453125 349.349609375 157.139648438 c 0
 349.309570312 157.1796875 349.270507812 157.21875 349.23046875 157.258789062 c 0
 337.655273438 168.834960938 321.666992188 175.99609375 304.00390625 175.99609375 c 0
417.799804688 53.3720703125 m 1
 396.537109375 12.1669921875 353.55859375 -16.0146484375 304.00390625 -16.015625 c 0
 233.326171875 -16.013671875 176.025390625 41.3134765625 176.025390625 111.9921875 c 0
 176.025390625 182.6953125 233.326171875 240 304.00390625 240 c 0
 339.486328125 240 371.596679688 225.557617188 394.778320312 202.227539062 c 0
 449.620117188 147.266601562 485.986328125 76.5869140625 498.828125 0.0068359375 c 1
 435.7578125 -10.583984375 l 1
 432.065429688 11.4365234375 426.01953125 32.8681640625 417.799804688 53.3720703125 c 1
EndSplineSet
MultipleSubs2: "CCMP cartouches" t.a cart.body
Ligature2: "LIGA basics" a
EndChar

StartChar: t.akesi
Encoding: 65538 989441 3
GlifName: t.akesi
Width: 640
GlyphClass: 1
Flags: HW
HStem: -16 63.999<281.939 358.065> 111.998 64<128 192 256 384 448.002 512> 239.996 64<128 192 256 384 448 512> 367.996 63.998<281.212 358.788> 448 96<190.058 257.94 382.058 449.94>
VStem: 175.999 96<462.059 529.941> 192 64<73.9353 111.998 175.998 239.996 303.996 342.059> 367.999 96<462.059 529.941> 384 64<73.9353 111.998 175.998 239.996 303.996 342.059>
LayerCount: 2
Fore
SplineSet
320 431.994140625 m 0xfa80
 390.69140625 431.994140625 447.999023438 374.688476562 448 303.99609375 c 1
 512 303.99609375 l 1
 512 239.99609375 l 1
 448 239.99609375 l 1
 448 175.998046875 l 1
 512 175.998046875 l 1
 512 111.998046875 l 1
 448.001953125 111.998046875 l 1
 448.000976562 41.306640625 390.693359375 -16 320.001953125 -16 c 0
 249.309570312 -16 192.002929688 41.306640625 192.001953125 111.998046875 c 1
 128 111.998046875 l 1
 128 175.998046875 l 1
 192 175.998046875 l 1
 192 239.99609375 l 1
 128 239.99609375 l 1
 128 303.99609375 l 1
 192 303.99609375 l 1
 192.000976562 374.688476562 249.307617188 431.994140625 320 431.994140625 c 0xfa80
320 367.99609375 m 0
 284.653320312 367.99609375 255.998046875 339.342773438 255.998046875 303.99609375 c 1
 384.001953125 303.99609375 l 1
 384.000976562 339.342773438 355.346679688 367.99609375 320 367.99609375 c 0
256 239.99609375 m 1
 256 175.998046875 l 1
 384 175.998046875 l 1
 384 239.99609375 l 1
 256 239.99609375 l 1
256 111.998046875 m 1
 256 76.65234375 284.655273438 47.998046875 320.001953125 47.9990234375 c 0
 355.348632812 47.998046875 384.002929688 76.6513671875 384.00390625 111.998046875 c 1
 256 111.998046875 l 1
175.999023438 496 m 0xfc
 175.999023438 522.509765625 197.489257812 544 223.999023438 544 c 0
 250.508789062 544 271.999023438 522.509765625 271.999023438 496 c 0
 271.999023438 469.490234375 250.508789062 448 223.999023438 448 c 0
 197.489257812 448 175.999023438 469.490234375 175.999023438 496 c 0xfc
367.999023438 496 m 0xf9
 367.999023438 522.509765625 389.489257812 544 415.999023438 544 c 0
 442.508789062 544 463.999023438 522.509765625 463.999023438 496 c 0
 463.999023438 469.490234375 442.508789062 448 415.999023438 448 c 0
 389.489257812 448 367.999023438 469.490234375 367.999023438 496 c 0xf9
EndSplineSet
LCarets2: 4 -48 -48 -48 -48
MultipleSubs2: "CCMP cartouches" t.akesi cart.body
Ligature2: "LIGA basics" a k e s i
EndChar

StartChar: t.ala
Encoding: 65539 989442 4
GlifName: t.ala
Width: 640
GlyphClass: 1
Flags: HW
HStem: 0 21G<89.2568 129.255 510.742 550.741> 492 20G<89.2564 129.255 510.743 550.742> 492 20G<89.2564 129.255 510.743 550.742>
LayerCount: 2
Fore
SplineSet
109.256835938 512 m 1xc0
 319.993164062 301.244140625 l 1
 530.7421875 512 l 1
 575.999023438 466.743164062 l 1
 365.2265625 256.010742188 l 1
 575.999023438 45.2578125 l 1
 530.741210938 0 l 1
 319.993164062 210.752929688 l 1
 109.256835938 0 l 1
 63.9990234375 45.2578125 l 1
 274.735351562 256.010742188 l 1
 63.9990234375 466.743164062 l 1
 109.256835938 512 l 1xc0
EndSplineSet
LCarets2: 2 -48 -48
MultipleSubs2: "CCMP cartouches" t.ala cart.body
Ligature2: "LIGA basics" a l a
EndChar

StartChar: t.alasa
Encoding: 65540 989443 5
GlifName: t.alasa
Width: 640
GlyphClass: 1
Flags: HW
HStem: 0.0488281 21G<127.994 194.269> 225.641 60.7607<31.9941 127.994 192.018 306.49> 228.809 54.4434<243.324 318.047 381.162 512.006>
VStem: 127.994 64.0234<75.0469 225.641 286.401 437.061> 318.047 64.6191<182.946 228.809 283.252 329.126>
LayerCount: 2
Fore
SplineSet
127.994140625 512.05859375 m 1xd8
 260.55859375 512.05859375 369.576171875 411.291015625 382.66796875 282.1796875 c 1
 512.005859375 280.03515625 l 1
 407.9921875 368.05859375 l 1
 456.0078125 416.047851562 l 1
 615.994140625 256.0390625 l 1
 456.0078125 96.052734375 l 1
 407.9921875 144.043945312 l 1
 512.005859375 232.041992188 l 1
 382.666015625 229.885742188 l 1
 369.561523438 100.79296875 260.54296875 0.048828125 127.994140625 0.048828125 c 1
 127.994140625 225.640625 l 1
 31.994140625 224.038085938 l 1
 31.994140625 287.994140625 l 1
 127.994140625 286.401367188 l 1
 127.994140625 512.05859375 l 1xd8
192.017578125 437.060546875 m 1
 192.017578125 285.340820312 l 1
 318.052734375 283.251953125 l 1xb8
 308.064453125 353.221679688 260.041015625 412.994140625 192.017578125 437.060546875 c 1
318.046875 228.80859375 m 1
 192.017578125 226.706054688 l 1
 192.017578125 75.046875 l 1
 260.025390625 99.1064453125 308.046875 158.857421875 318.046875 228.80859375 c 1
EndSplineSet
LCarets2: 4 -48 -48 -48 -48
MultipleSubs2: "CCMP cartouches" t.alasa cart.body
Ligature2: "LIGA basics" a l a s a
EndChar

StartChar: t.ale
Encoding: 65541 989444 6
GlifName: t.ale
Width: 640
GlyphClass: 1
Flags: HW
HStem: 120 64<126.938 210.629 429.369 513.06> 328 64<126.938 210.629 429.368 513.062>
VStem: 31.999 64<214.939 297.061> 543.999 64<214.939 297.059>
LayerCount: 2
Fore
SplineSet
167.999023438 392 m 0
 202.568359375 392 235.840820312 378.836914062 261.051757812 355.18359375 c 2
 319.999023438 299.87890625 l 1
 378.946289062 355.18359375 l 2
 404.157226562 378.8359375 437.426757812 392 471.995117188 392 c 0
 547.126953125 391.999023438 607.999023438 331.098632812 607.999023438 256 c 0
 607.999023438 180.889648438 547.110351562 120 471.999023438 120 c 0
 437.4296875 120 404.158203125 133.1640625 378.946289062 156.81640625 c 2
 319.999023438 212.12109375 l 1
 261.051757812 156.81640625 l 2
 235.840820312 133.1640625 202.568359375 120 167.999023438 120 c 0
 92.888671875 120 32 180.889648438 31.9990234375 256 c 0
 32 331.111328125 92.888671875 392 167.999023438 392 c 0
167.999023438 328 m 0
 128.234375 328 96 295.764648438 95.9990234375 256 c 0
 96 216.236328125 128.235351562 184 167.999023438 184 c 0
 186.30078125 184 203.916015625 190.969726562 217.262695312 203.4921875 c 2
 273.229492188 256 l 1
 217.262695312 308.5078125 l 2
 203.916015625 321.030273438 186.30078125 328 167.999023438 328 c 0
471.999023438 328 m 0
 453.697265625 328 436.083007812 321.030273438 422.735351562 308.5078125 c 2
 366.768554688 256 l 1
 422.735351562 203.4921875 l 2
 436.083007812 190.969726562 453.697265625 184 471.999023438 184 c 0
 511.763671875 184 543.999023438 216.236328125 543.999023438 256 c 0
 543.999023438 295.764648438 511.763671875 328 471.999023438 328 c 0
EndSplineSet
LCarets2: 2 -48 -48
MultipleSubs2: "CCMP cartouches" t.ale cart.body
Ligature2: "LIGA basics" a l e
EndChar

StartChar: t.anpa
Encoding: 65542 989445 7
GlifName: t.anpa
Width: 640
GlyphClass: 1
Flags: HW
HStem: 48 96<286.058 353.94> 192 64.0059<128.003 511.995>
VStem: 63.999 64.0039<256.006 416> 271.999 96<62.0588 129.941> 511.995 64.0039<256.006 416>
LayerCount: 2
Fore
SplineSet
63.9990234375 416 m 1
 128.002929688 416 l 1
 128.002929688 256.005859375 l 1
 511.995117188 256.005859375 l 1
 511.995117188 416 l 1
 575.999023438 416 l 1
 575.999023438 192 l 1
 63.9990234375 192 l 1
 63.9990234375 416 l 1
271.999023438 96 m 0
 271.999023438 122.509765625 293.490234375 144 319.999023438 144 c 0
 346.508789062 144 367.999023438 122.509765625 367.999023438 96 c 0
 367.999023438 69.490234375 346.508789062 48 319.999023438 48 c 0
 293.490234375 48 271.999023438 69.490234375 271.999023438 96 c 0
EndSplineSet
LCarets2: 3 -48 -48 -48
MultipleSubs2: "CCMP cartouches" t.anpa cart.body
Ligature2: "LIGA basics" a n p a
EndChar

StartChar: t.ante
Encoding: 65543 989446 8
GlifName: t.ante
Width: 640
GlyphClass: 1
Flags: HW
HStem: 0.00195312 21G<90.4227 133.464 506.536 549.577> 492.002 20G<90.4227 133.464 506.536 549.577> 492.002 20G<90.4227 133.464 506.536 549.577>
LayerCount: 2
Fore
SplineSet
104 512.001953125 m 1xc0
 320 365.3828125 l 1
 536 512.001953125 l 1
 571.9453125 459.052734375 l 1
 320 288.001953125 l 1
 68.0546875 459.052734375 l 1
 104 512.001953125 l 1xc0
320 224.001953125 m 1
 571.9453125 52.951171875 l 1
 536 0.001953125 l 1
 320 146.62109375 l 1
 104 0.001953125 l 1
 68.0546875 52.951171875 l 1
 320 224.001953125 l 1
EndSplineSet
MultipleSubs2: "CCMP cartouches" t.ante cart.body
Ligature2: "LIGA basics" a n t e
EndChar

StartChar: t.anu
Encoding: 65544 989447 9
GlifName: t.anu
Width: 640
GlyphClass: 1
Flags: HW
VStem: 287.989 64.0049<15.9961 264.478>
LayerCount: 2
Fore
SplineSet
138.9609375 503.997070312 m 1
 319.991210938 322.966796875 l 1
 501.021484375 503.997070312 l 1
 546.279296875 458.739257812 l 1
 351.994140625 264.477539062 l 1
 351.994140625 15.99609375 l 1
 287.989257812 15.99609375 l 1
 287.989257812 264.477539062 l 1
 93.7275390625 458.739257812 l 1
 138.9609375 503.997070312 l 1
EndSplineSet
MultipleSubs2: "CCMP cartouches" t.anu cart.body
Ligature2: "LIGA basics" a n u
EndChar

StartChar: t.awen
Encoding: 65545 989448 10
GlifName: t.awen
Width: 640
GlyphClass: 1
Flags: HW
HStem: 0 64<48 159.75 480.248 592> 492 20G<282.275 357.725> 492 20G<282.275 357.725>
LayerCount: 2
Fore
SplineSet
288 512 m 1xc0
 352 512 l 1
 480.248046875 64 l 1
 592 64 l 1
 592 0 l 1
 432 0 l 1
 320 391.23828125 l 1
 208 0 l 1
 48 0 l 1
 48 64 l 1
 159.75 64 l 1
 288 512 l 1xc0
EndSplineSet
LCarets2: 3 -48 -48 -48
MultipleSubs2: "CCMP cartouches" t.awen cart.body
Ligature2: "LIGA basics" a w e n
EndChar

StartChar: t.e
Encoding: 65546 989449 11
GlifName: t.e
Width: 640
GlyphClass: 1
Flags: HW
LayerCount: 2
Fore
SplineSet
319.999023438 528 m 1
 592 256 l 1
 319.999023438 -16 l 1
 274.752929688 29.24609375 l 1
 501.506835938 256 l 1
 274.752929688 482.75390625 l 1
 319.999023438 528 l 1
87.9990234375 528.000976562 m 1
 359.999023438 256 l 1
 87.9990234375 -15.9990234375 l 1
 42.7529296875 29.24609375 l 1
 269.506835938 256 l 1
 42.7529296875 482.75390625 l 1
 87.9990234375 528.000976562 l 1
EndSplineSet
MultipleSubs2: "CCMP cartouches" t.e cart.body
Ligature2: "LIGA basics" e
EndChar

StartChar: t.en
Encoding: 65547 989450 12
GlifName: t.en
Width: 640
GlyphClass: 1
Flags: HW
HStem: 224.02 63.9805<96 287.997 352.001 544>
VStem: 287.997 64.0039<32 224.02 288 480>
LayerCount: 2
Fore
SplineSet
287.997070312 480 m 1
 352.000976562 480 l 1
 352.000976562 288 l 1
 544 288 l 1
 544 224.020507812 l 1
 352.000976562 224.01953125 l 1
 352.00390625 32 l 1
 288 32 l 1
 287.997070312 224.01953125 l 1
 96 224.020507812 l 1
 96 288 l 1
 287.997070312 288 l 1
 287.997070312 480 l 1
EndSplineSet
LCarets2: 1 -48
MultipleSubs2: "CCMP cartouches" t.en cart.body
Ligature2: "LIGA basics" e n
EndChar

StartChar: t.esun
Encoding: 65548 989451 13
GlifName: t.esun
Width: 640
GlyphClass: 1
Flags: HW
HStem: -15.9932 63.9805<153.209 231.133> 175.995 64.0039<153.209 268.167> 272.001 64.0049<371.827 486.782> 463.989 64.0039<408.862 486.782>
VStem: 63.9961 64.0039<73.2065 150.781> 512 64.0039<361.206 438.78>
LayerCount: 2
Fore
SplineSet
269.166992188 168.779296875 m 1
 243.946289062 173.541015625 218.126953125 175.995117188 192.00390625 175.995117188 c 0
 156.639648438 175.995117188 128 147.331054688 128 111.991210938 c 0
 128 76.650390625 156.639648438 47.9873046875 192.00390625 47.9873046875 c 0
 223.111328125 47.9873046875 249.743164062 70.3857421875 255.064453125 101.057617188 c 2
 269.166992188 168.779296875 l 1
370.828125 343.219726562 m 1
 396.049804688 338.459960938 421.87109375 336.005859375 447.99609375 336.005859375 c 0
 483.3359375 336.005859375 512 364.645507812 512 399.985351562 c 0
 512 435.349609375 483.3359375 463.989257812 447.99609375 463.989257812 c 0
 416.865234375 463.989257812 390.256835938 441.614257812 384.935546875 410.943359375 c 2
 370.828125 343.219726562 l 1
344.169921875 215.2421875 m 1
 435.51953125 184.698242188 516.7734375 126.956054688 576.00390625 47.9873046875 c 1
 524.795898438 9.5986328125 l 1
 475.013671875 75.96484375 407.275390625 125.034179688 331.012695312 152.081054688 c 1
 318.1015625 90.099609375 l 2
 307.458007812 28.78125 254.2421875 -15.9931640625 192.00390625 -15.9931640625 c 0
 121.299804688 -15.9931640625 63.99609375 41.310546875 63.99609375 111.991210938 c 0
 63.99609375 182.6953125 121.299804688 239.999023438 192.00390625 239.999023438 c 0
 222.553710938 239.999023438 252.7421875 237.090820312 282.216796875 231.450195312 c 1
 295.81640625 296.76171875 l 1
 204.47265625 327.305664062 123.223632812 385.040039062 63.99609375 463.989257812 c 1
 115.204101562 502.401367188 l 1
 164.981445312 436.025390625 232.713867188 386.962890625 308.96875 359.919921875 c 1
 321.875 421.900390625 l 2
 332.541992188 483.219726562 385.7578125 527.993164062 447.99609375 527.993164062 c 0
 518.676757812 527.993164062 576.00390625 470.689453125 576.00390625 399.985351562 c 0
 576.00390625 329.3046875 518.676757812 272.000976562 447.99609375 272.000976562 c 0
 417.443359375 272.000976562 387.250976562 274.91015625 357.774414062 280.551757812 c 1
 344.169921875 215.2421875 l 1
EndSplineSet
LCarets2: 3 -48 -48 -48
MultipleSubs2: "CCMP cartouches" t.esun cart.body
Ligature2: "LIGA basics" e s u n
EndChar

StartChar: t.ijo
Encoding: 65549 989452 14
GlifName: t.ijo
Width: 640
GlyphClass: 1
Flags: HW
HStem: -16 64<247.043 392.957> 464 64<247.043 392.957>
VStem: 47.999 64<183.043 328.957> 527.999 64<183.043 328.957>
LayerCount: 2
Fore
SplineSet
320 528 m 0
 470.120117188 528 591.999023438 406.12109375 591.999023438 256 c 0
 591.999023438 105.87890625 470.120117188 -16 320 -16 c 0
 169.87890625 -16 47.9990234375 105.87890625 47.9990234375 256 c 0
 47.9990234375 406.12109375 169.87890625 528 320 528 c 0
320 464 m 0
 205.201171875 464 111.999023438 370.798828125 111.999023438 256 c 0
 112 141.202148438 205.201171875 48 320 48 c 0
 434.797851562 48 527.999023438 141.202148438 527.999023438 256 c 0
 527.999023438 370.798828125 434.797851562 464 320 464 c 0
EndSplineSet
LCarets2: 2 -48 -48
MultipleSubs2: "CCMP cartouches" t.ijo cart.body
Ligature2: "LIGA basics" i j o
EndChar

StartChar: t.ike
Encoding: 65550 989453 15
GlifName: t.ike
Width: 640
GlyphClass: 1
Flags: HW
HStem: 336 64<249.788 390.21>
VStem: 64 63.999<144 214.05> 511.999 64<144 214.05>
LayerCount: 2
Fore
SplineSet
319.999023438 400 m 0
 461.290039062 400 575.999023438 285.290039062 575.999023438 144 c 1
 575.999023438 144 512 144 511.999023438 144 c 1
 511.999023438 249.967773438 425.966796875 336 319.999023438 336 c 0
 214.03125 336 127.999023438 249.967773438 127.999023438 144 c 1
 64 144 l 1
 64 285.290039062 178.708984375 400 319.999023438 400 c 0
EndSplineSet
LCarets2: 2 -48 -48
MultipleSubs2: "CCMP cartouches" t.ike cart.body
Ligature2: "LIGA basics" i k e
EndChar

StartChar: t.ilo
Encoding: 65551 989454 16
GlifName: t.ilo
Width: 640
GlyphClass: 1
Flags: HW
HStem: -0.00683594 21G<287.991 351.99> 224 64.0039<127.992 287.991 351.99 511.992> 447.995 64.0039<127.992 287.991 351.99 511.992>
VStem: 63.9893 64.0029<288.004 447.995> 287.991 63.999<-0.00683594 224 288.004 447.995> 511.992 64.0039<288.004 447.995>
LayerCount: 2
Fore
SplineSet
63.9892578125 511.999023438 m 1
 575.99609375 511.999023438 l 1
 575.99609375 224 l 1
 351.990234375 224 l 1
 351.990234375 -0.0068359375 l 1
 287.991210938 -0.0068359375 l 1
 287.991210938 224 l 1
 63.9892578125 224 l 1
 63.9892578125 511.999023438 l 1
127.9921875 447.995117188 m 1
 127.9921875 288.00390625 l 1
 287.991210938 288.00390625 l 1
 287.991210938 447.995117188 l 1
 127.9921875 447.995117188 l 1
351.990234375 447.995117188 m 1
 351.990234375 288.00390625 l 1
 511.9921875 288.00390625 l 1
 511.9921875 447.995117188 l 1
 351.990234375 447.995117188 l 1
EndSplineSet
LCarets2: 2 -48 -48
MultipleSubs2: "CCMP cartouches" t.ilo cart.body
Ligature2: "LIGA basics" i l o
EndChar

StartChar: t.insa
Encoding: 65552 989455 17
GlifName: t.insa
Width: 640
GlyphClass: 1
Flags: HW
HStem: 127.984 64.0039<127.98 511.996> 256 96<286.059 353.941>
VStem: 64 63.9805<191.988 384> 272 96<270.059 337.941> 511.996 64.0039<191.988 384>
LayerCount: 2
Fore
SplineSet
64 384 m 1
 127.98046875 384 l 1
 127.98046875 191.98828125 l 1
 511.99609375 191.98828125 l 1
 511.99609375 384 l 1
 576 384 l 1
 576 127.984375 l 1
 64 127.984375 l 1
 64 384 l 1
272 304 m 0
 272 330.509765625 293.490234375 352 320 352 c 0
 346.509765625 352 368 330.509765625 368 304 c 0
 368 277.490234375 346.509765625 256 320 256 c 0
 293.490234375 256 272 277.490234375 272 304 c 0
EndSplineSet
LCarets2: 3 -48 -48 -48
MultipleSubs2: "CCMP cartouches" t.insa cart.body
Ligature2: "LIGA basics" i n s a
EndChar

StartChar: t.jaki
Encoding: 65553 989456 18
GlifName: t.jaki
Width: 640
VWidth: 832
GlyphClass: 1
Flags: HW
HStem: -32 63.999<358.225 418.191> 64 63.999<168.611 190.692 272.339 408.001> 199.961 64.001<247.113 345.025> 240 64<48.001 84.4993> 288 64<346.154 491.775> 463.999 64.001<217.938 379.794>
VStem: 96.001 64<136.11 191.798> 128.001 64<368.859 438.063> 424.001 64<37.9034 64> 528 64<163.446 251.775>
LayerCount: 2
Fore
SplineSet
174.854492188 193.10546875 m 1xc6c0
 165.524414062 186.336914062 160.000976562 175.506835938 160.000976562 163.98046875 c 0
 160.000976562 146.151367188 173.057617188 131.010742188 190.692382812 128.390625 c 1
 174.854492188 193.10546875 l 1xc6c0
288.000976562 199.999023438 m 1
 288.000976562 199.9609375 l 1
 239.065429688 199.9609375 l 1xe4c0
 256.676757812 127.999023438 l 1
 408.000976562 127.999023438 l 1
 384.365234375 172.317382812 338.227539062 199.999023438 288.000976562 199.999023438 c 1
256.000976562 463.999023438 m 2
 220.655273438 463.999023438 192.000976562 435.345703125 192.000976562 400 c 0xc5c0
 192.000976562 394.83984375 192.624023438 389.734375 193.834960938 384.786132812 c 2
 206.122070312 334.58203125 l 1
 273.744140625 361.76953125 333.783203125 406.16015625 379.793945312 463.999023438 c 1
 256.000976562 463.999023438 l 2
344.494140625 340.391601562 m 1
 433.176757812 351.27734375 l 2
 436.081054688 351.6328125 441.997070312 352 448 352 c 0xcdc0
 527.529296875 352 592 287.528320312 592 208 c 0
 592 142.321289062 548.03125 86.9130859375 487.921875 69.6044921875 c 0
 487.962890625 67.7373046875 488.000976562 65.8681640625 488.000976562 64 c 0
 488.000976562 10.9931640625 445.037109375 -31.9990234375 391.997070312 -32 c 0
 366.538085938 -32 342.12109375 -21.8857421875 324.118164062 -3.8837890625 c 1
 369.374023438 41.373046875 l 1
 375.375 35.37109375 383.514648438 32 392.000976562 31.9990234375 c 0
 409.673828125 32 424.000976562 46.326171875 424.000976562 64 c 1
 272.338867188 64 l 1
 288.000976562 0 l 1
 225.834960938 -15.212890625 l 1
 206.450195312 64 l 1
 195.981445312 64 l 2
 140.763671875 63.9990234375 96.0009765625 108.762695312 96.0009765625 163.98046875 c 0
 96.0009765625 199.015625 114.340820312 231.495117188 144.340820312 249.591796875 c 1
 112.963867188 243.274414062 80.7177734375 240 48.0009765625 240 c 1
 48.0009765625 304 l 1xd6c0
 144.809570312 315.8828125 l 1
 131.668945312 369.573242188 l 2
 129.251953125 379.448242188 128.000976562 389.65625 128.000976562 400 c 0
 128.000976562 470.692382812 185.30859375 528 256.000976562 528 c 2
 400 528.000976562 l 1
 416.6484375 518.540039062 l 1
 472.294921875 486.924804688 l 1
 439.403320312 429.034179688 395.6796875 379.53515625 344.494140625 340.391601562 c 1
448 288 m 0
 444.665039062 288 441.377929688 287.797851562 439.72265625 287.59765625 c 2
 247.11328125 263.961914062 l 1
 288 263.961914062 l 1xecc0
 288 264 l 1
 371.870117188 264 446.831054688 211.670898438 475.7421875 132.940429688 c 1
 506.250976562 144.220703125 528 173.5703125 528 208 c 0
 528 252.182617188 492.18359375 288 448 288 c 0
EndSplineSet
MultipleSubs2: "CCMP cartouches" t.jaki cart.body
Ligature2: "LIGA basics" j a k i
EndChar

StartChar: t.jan
Encoding: 65554 989457 19
GlifName: t.jan
Width: 640
GlyphClass: 1
Flags: HW
HStem: 80 64<256.566 383.434> 464 64<258.226 381.774>
VStem: 96 64<240.553 365.774> 480 64<240.553 365.774>
LayerCount: 2
Fore
SplineSet
424.74609375 105.997070312 m 1
 477.013671875 144.241210938 l 1
 598.626953125 22.6259765625 l 1
 553.374023438 -22.6298828125 l 1
 424.74609375 105.997070312 l 1
162.986328125 144.241210938 m 1
 215.251953125 105.997070312 l 1
 86.626953125 -22.6298828125 l 1
 41.373046875 22.6259765625 l 1
 162.986328125 144.241210938 l 1
320 527.999023438 m 0
 452.459960938 527.999023438 560 420.458984375 560 287.999023438 c 0
 560 155.540039062 452.459960938 47.9990234375 320 47.9990234375 c 0
 187.541015625 47.9990234375 80 155.540039062 80 287.999023438 c 0
 80 420.458984375 187.541015625 527.999023438 320 527.999023438 c 0
320 463.999023438 m 0
 222.86328125 463.999023438 144.000976562 385.135742188 144 287.999023438 c 0
 144 190.862304688 222.86328125 111.999023438 320 111.999023438 c 0
 417.137695312 111.999023438 496 190.862304688 496 287.999023438 c 0
 496 385.13671875 417.13671875 463.999023438 320 463.999023438 c 0
EndSplineSet
LCarets2: 2 -48 -48
MultipleSubs2: "CCMP cartouches" t.jan cart.body
Ligature2: "LIGA basics" j a n
EndChar

StartChar: t.jelo
Encoding: 65555 989458 20
GlifName: t.jelo
Width: 640
GlyphClass: 1
Flags: HW
HStem: -0.00390625 63.9805<218.524 421.493> 287.969 64<96.0127 199.916 440.101 544.032> 383.973 160.016<288.148 351.863>
VStem: 96.0127 160.004<288.112 351.833> 288.001 64<440.071 543.988> 384.001 160.031<288.112 351.833>
LayerCount: 2
Fore
SplineSet
288.000976562 543.98828125 m 1
 352.000976562 543.98828125 l 1
 352.000976562 443.943359375 l 1
 396.986328125 432.3671875 432.397460938 396.955078125 443.973632812 351.96875 c 1
 544.032226562 351.96875 l 1
 544.032226562 287.96875 l 1
 443.971679688 287.96875 l 1
 434.237304688 250.159179688 407.658203125 219.112304688 372.706054688 203.302734375 c 1
 576.012695312 -0.00390625 l 1
 64.0048828125 -0.00390625 l 1
 267.293945312 203.306640625 l 1
 232.353515625 219.1171875 205.778320312 250.162109375 196.045898438 287.96875 c 1
 96.0126953125 287.96875 l 1
 96.0126953125 351.96875 l 1
 196.043945312 351.96875 l 1
 207.619140625 396.954101562 243.028320312 432.366210938 288.000976562 443.943359375 c 1
 288.000976562 543.98828125 l 1
319.997070312 383.97265625 m 0
 284.657226562 383.97265625 256.016601562 355.331054688 256.016601562 319.966796875 c 0
 256.016601562 284.626953125 284.657226562 255.962890625 319.997070312 255.962890625 c 0
 355.361328125 255.962890625 384.000976562 284.626953125 384.000976562 319.966796875 c 0
 384.000976562 355.331054688 355.361328125 383.97265625 319.997070312 383.97265625 c 0
319.997070312 165.47265625 m 1
 218.524414062 63.9765625 l 1
 421.493164062 63.9765625 l 1
 319.997070312 165.47265625 l 1
EndSplineSet
MultipleSubs2: "CCMP cartouches" t.jelo cart.body
Ligature2: "LIGA basics" j e l o
EndChar

StartChar: t.jo
Encoding: 65556 989459 21
GlifName: t.jo
Width: 640
GlyphClass: 1
Flags: HW
HStem: -16 64<259.47 381.754> 127.999 64<320 449.011> 240 64<275.677 363.76> 464 64<276.242 363.76>
VStem: 112.001 64<131.469 252.98> 176.001 64<343.248 427.759> 400.001 64<340.241 427.759>
LayerCount: 2
Fore
SplineSet
320.000976562 464 m 0xf6
 275.84765625 464 240.000976562 428.153320312 240.000976562 384 c 0
 240.000976562 339.846679688 275.84765625 304 320.000976562 304 c 0
 364.154296875 304 400.000976562 339.846679688 400.000976562 384 c 0
 400.000976562 428.153320312 364.154296875 464 320.000976562 464 c 0xf6
320 127.999023438 m 1
 320 191.999023438 l 1
 464.000976562 191.999023438 l 1
 528.000976562 192 l 1
 528.000976562 77.201171875 434.798828125 -16 320.000976562 -16 c 0
 205.202148438 -16 112.000976562 77.201171875 112.000976562 192 c 0xfa
 112.000976562 253.432617188 138.55078125 308.596679688 180.899414062 346.65234375 c 1
 177.705078125 358.565429688 176.000976562 371.084960938 176.000976562 384 c 0xf6
 176.000976562 463.475585938 240.525390625 528 320.000976562 528 c 0
 399.4765625 528 464.000976562 463.475585938 464.000976562 384 c 0
 464.000976562 304.524414062 399.4765625 240 320.000976562 240 c 0
 277.376953125 240 239.053710938 258.559570312 212.677734375 288.03125 c 1
 189.848632812 262.561523438 176.000976562 228.915039062 176.000976562 192 c 0xfa
 176.000976562 112.524414062 240.525390625 48 320.000976562 48 c 0
 376.493164062 48 425.430664062 80.6005859375 449.010742188 127.999023438 c 1
 320 127.999023438 l 1
EndSplineSet
MultipleSubs2: "CCMP cartouches" t.jo cart.body
Ligature2: "LIGA basics" j o
EndChar

StartChar: t.kala
Encoding: 65557 989460 22
GlifName: t.kala
Width: 640
GlyphClass: 1
Flags: HW
HStem: 80.0049 63.9932<338.858 481.605> 368.007 63.9805<338.83 481.615>
VStem: 48 63.7363<79.6096 142.187 369.822 432.398> 543.994 64.0059<203.122 308.858>
LayerCount: 2
Fore
SplineSet
111.736328125 437.5625 m 1
 115.624023438 392.963867188 129.221679688 349.3359375 150.82421875 310.134765625 c 1
 157.459960938 317.24609375 164.369140625 324.1015625 171.54296875 330.677734375 c 0
 241.814453125 395.090820312 336.671875 431.987304688 432.936523438 431.987304688 c 0
 529.201171875 431.987304688 608 353.189453125 608 255.98828125 c 0
 608 158.786132812 529.202148438 80.0048828125 432.936523438 80.0048828125 c 0
 336.671875 80.0205078125 241.814453125 116.916992188 171.54296875 181.330078125 c 0
 164.369140625 187.90625 157.459960938 194.762695312 150.82421875 201.875 c 1
 129.221679688 162.673828125 115.624023438 119.043945312 111.736328125 74.4453125 c 1
 48 80 l 1
 53.443359375 142.456054688 74.767578125 203.325195312 108.71875 256.00390625 c 1
 74.767578125 308.682617188 53.443359375 369.55078125 48 432.0078125 c 1
 111.736328125 437.5625 l 1
423.177734375 368.006835938 m 0
 352.494140625 368.006835938 273.380859375 337.235351562 214.7734375 283.513671875 c 0
 205.370117188 274.893554688 196.508789062 265.697265625 188.23046875 256.00390625 c 1
 196.508789062 246.309570312 205.370117188 237.11328125 214.7734375 228.494140625 c 0
 273.446289062 174.712890625 352.58203125 143.998046875 423.174804688 143.998046875 c 0
 493.809570312 143.998046875 543.994140625 194.088867188 543.994140625 256.0078125 c 0
 543.994140625 317.860351562 493.853515625 368.006835938 423.177734375 368.006835938 c 0
EndSplineSet
MultipleSubs2: "CCMP cartouches" t.kala cart.body
Ligature2: "LIGA basics" k a l a
EndChar

StartChar: t.kalama
Encoding: 65558 989461 23
GlifName: t.kalama
Width: 640
GlyphClass: 1
Flags: HW
HStem: 16 63.999<257.094 382.905> 208 63.999<163.231 476.767>
VStem: 288 64<368 528>
LayerCount: 2
Fore
SplineSet
163.231445312 208 m 1
 178.120117188 135.064453125 242.692382812 79.9990234375 319.999023438 79.9990234375 c 0
 397.305664062 79.9990234375 461.87890625 135.064453125 476.766601562 208 c 1
 163.231445312 208 l 1
95.9990234375 271.999023438 m 1
 543.999023438 271.999023438 l 1
 543.999023438 240 l 2
 543.999023438 116.37109375 443.627929688 16 319.999023438 16 c 0
 196.370117188 16 95.9990234375 116.37109375 95.9990234375 240 c 2
 95.9990234375 271.999023438 l 1
252.125 357.5078125 m 1
 198.209960938 323.0234375 l 1
 111.999023438 457.811523438 l 1
 165.915039062 492.295898438 l 1
 252.125 357.5078125 l 1
387.874023438 357.5078125 m 1
 474.083984375 492.295898438 l 1
 527.999023438 457.811523438 l 1
 441.7890625 323.0234375 l 1
 387.874023438 357.5078125 l 1
288 368 m 1
 288 528 l 1
 352 528 l 1
 352 368 l 1
 288 368 l 1
EndSplineSet
LCarets2: 5 0 0 0 0 0
MultipleSubs2: "CCMP cartouches" t.kalama cart.body
Ligature2: "LIGA basics" k a l a m a
EndChar

StartChar: t.kama
Encoding: 65559 989462 24
GlifName: t.kama
Width: 640
GlyphClass: 1
Flags: HW
HStem: -184.001 64.0039<-95.9581 32.0499>
VStem: 32.0498 63.9561<-119.997 221.302>
LayerCount: 2
Fore
SplineSet
384.00390625 512 m 1
 384.001953125 512 l 1
 320.00390625 512 l 1
 197.552734375 77.3359375 l 1
 79.322265625 123.599609375 l 1
 56 64.001953125 l 1
 240.001953125 -8 l 1
 358.412109375 412.326171875 l 1
 498.21875 99.158203125 l 1
 376.6796875 51.599609375 l 1
 400.001953125 -8 l 1
 584.00390625 64 l 1
 384.00390625 511.99609375 l 1
 384.00390625 512 l 1
EndSplineSet
MultipleSubs2: "CCMP cartouches" t.kama cart.body
Ligature2: "LIGA basics" k a m a
EndChar

StartChar: t.kasi
Encoding: 65560 989463 25
GlifName: t.kasi
Width: 640
GlyphClass: 1
Flags: HW
HStem: 0 21G<288 352> 192 64<217.95 288 352 422.05> 448 64<96 165.565 474.438 544>
VStem: 32 64<377.95 448> 288 64<0 192 256 326.372> 544 64<377.95 448>
CounterMasks: 1 1c
LayerCount: 2
Fore
SplineSet
32 512 m 1
 32 512 60.3740234375 512.120117188 79.3369140625 512.120117188 c 0
 88.818359375 512.120117188 95.947265625 512.08984375 96 512 c 0
 192.469726562 511.983398438 276.3828125 458.76171875 320.00390625 379.849609375 c 1
 363.625 458.759765625 447.534179688 511.98046875 544 512 c 2
 608 512 l 1
 608 448 l 2
 608 306.709960938 493.290039062 192 352 192 c 1
 352 0 l 1
 288 0 l 1
 288 192 l 1
 146.709960938 192 32 306.709960938 32 448 c 2
 32 512 l 1
96 448 m 1
 96 342.032226562 182.032226562 256 288 256 c 1
 288 361.967773438 201.967773438 448 96 448 c 1
544 448 m 1
 438.032226562 448 352 361.967773438 352 256 c 1
 457.967773438 256 544 342.032226562 544 448 c 1
EndSplineSet
LCarets2: 3 -48 -48 -48
MultipleSubs2: "CCMP cartouches" t.kasi cart.body
Ligature2: "LIGA basics" k a s i
EndChar

StartChar: t.ken
Encoding: 65561 989464 26
GlifName: t.ken
Width: 640
GlyphClass: 1
Flags: HW
HStem: 0.00390625 21G<127.989 191.989 448.002 512.003> 223.979 63.9834<191.989 326.405> 491.996 20.0078G<127.989 191.983 448.001 512.001> 491.996 20.0078G<127.989 191.983 448.001 512.001>
VStem: 127.989 63.9941<0.00390625 223.979 287.962 512.004> 448.002 64.001<0.00390625 102.182 409.57 511.981>
LayerCount: 2
Fore
SplineSet
448.000976562 511.99609375 m 1xec
 512.000976562 511.99609375 l 1
 512.000976562 511.99609375 512 502.514648438 512 493.033203125 c 2
 512.000976562 479.979492188 l 2
 512.000976562 386.852539062 461.427734375 301.069335938 379.940429688 255.982421875 c 1
 461.420898438 210.8984375 512 125.12109375 512 32 c 0
 512.001953125 23.2919921875 512.002929688 14.5830078125 512.002929688 5.875 c 0
 512.002929688 3.91796875 512.002929688 1.9609375 512.002929688 0.00390625 c 1
 448.002929688 0.00390625 l 2
 448.001953125 3.55859375 448.001953125 7.1123046875 448.001953125 10.6669921875 c 0
 448.001953125 17.775390625 448.002929688 24.8837890625 448.002929688 31.9921875 c 0
 447.99609375 137.673828125 362.5859375 223.482421875 256.905273438 223.978515625 c 2
 191.989257812 223.978515625 l 1
 191.989257812 0.00390625 l 1
 127.989257812 0.00390625 l 1
 127.989257812 512.00390625 l 1
 191.983398438 512.00390625 l 1
 191.983398438 287.961914062 l 1
 256 288 l 2
 362.047851562 287.874023438 447.997070312 373.942382812 447.997070312 479.990234375 c 0
 447.999023438 490.659179688 448.000976562 511.99609375 448.000976562 511.99609375 c 1xec
EndSplineSet
LCarets2: 2 -48 -48
MultipleSubs2: "CCMP cartouches" t.ken cart.body
Ligature2: "LIGA basics" k e n
EndChar

StartChar: t.kepeken
Encoding: 65562 989465 27
GlifName: t.kepeken
Width: 640
GlyphClass: 1
Flags: HW
HStem: 0 21G<156 240.001 464 528.001> 288 63.9795<200.019 312.011 376.028 488.011> 463.996 64.0039<200.019 312.024 376.028 488.011>
VStem: 136 64.0186<351.979 463.996> 312.024 64.0039<252.32 288 351.979 463.996> 464 64.001<0 131.94> 488.011 63.9893<351.979 463.996>
LayerCount: 2
Fore
SplineSet
200.018554688 463.99609375 m 1xf8
 200.018554688 351.979492188 l 1
 312.024414062 351.979492188 l 1
 312.024414062 463.99609375 l 1
 200.018554688 463.99609375 l 1xf8
376.028320312 463.99609375 m 1
 376.028320312 351.979492188 l 1
 488.010742188 351.979492188 l 1
 488.010742188 463.99609375 l 1xfa
 376.028320312 463.99609375 l 1
80 96 m 1
 125.254882812 141.254882812 l 1
 176.291992188 90.2177734375 l 1
 180.813476562 169.046875 237.31640625 234.046875 312.010742188 251.428710938 c 1
 312.010742188 288 l 1
 136 288 l 1
 136 528 l 1
 552 528 l 1
 552 288 l 1xfa
 376.014648438 288 l 1
 376.014648438 254.372070312 l 1
 461.80859375 242.645507812 528.000976562 168.991210938 528.000976562 80 c 2
 528.000976562 0 l 1
 464 0 l 1
 464 80 l 2xfc
 464 141.814453125 413.814453125 192 352 192 c 0
 290.185546875 192 240.000976562 141.814453125 240.000976562 80 c 2
 240.000976562 0 l 1
 176 0 l 1
 80 96 l 1
EndSplineSet
MultipleSubs2: "CCMP cartouches" t.kepeken cart.body
Ligature2: "LIGA basics" k e p e k e n
EndChar

StartChar: t.kili
Encoding: 65563 989466 28
GlifName: t.kili
Width: 640
GlyphClass: 1
Flags: HW
HStem: 15.9199 64.0215<246.535 393.615> 376.167 63.8867<154.956 246.695 393.119 486.997>
VStem: 48 64<214.986 334.194> 288 64<288.037 334.387 412.1 496> 528.084 63.7891<213.275 335.048>
LayerCount: 2
Fore
SplineSet
196.78125 376.111328125 m 0
 191.920898438 375.932617188 187.063476562 375.322265625 182.265625 374.25 c 0
 142.357421875 366.786132812 111.205078125 328.658203125 112 288.037109375 c 0
 111.65625 230.873046875 136.306640625 174.46484375 178.30859375 135.724609375 c 0
 216.33984375 99.654296875 268.499023438 79.94140625 320.666015625 79.94140625 c 0
 337.94140625 79.94140625 355.217773438 82.103515625 371.982421875 86.548828125 c 0
 444.018554688 104.44140625 503.557617188 163.982421875 521.451171875 236.017578125 c 0
 525.021484375 251.65234375 528.083984375 268.25 528.083984375 284.6015625 c 0
 528.083984375 298.921875 525.735351562 313.0546875 519.322265625 326.189453125 c 0
 505.337890625 356.490234375 472.805664062 376.166992188 439.80859375 376.166992188 c 0
 433.94140625 376.166992188 428.060546875 375.544921875 422.265625 374.25 c 0
 383.359375 366.973632812 352.7734375 330.552734375 352 291.08984375 c 2
 352 288.037109375 l 1
 352 287.999023438 l 1
 288 287.999023438 l 1
 288 293.4921875 l 2
 286.619140625 304.155273438 284.66796875 316.323242188 279.322265625 326.189453125 c 0
 265.337890625 356.491210938 232.8046875 376.166992188 199.807617188 376.166992188 c 0
 198.798828125 376.166992188 197.790039062 376.1484375 196.78125 376.111328125 c 0
288 496 m 1
 352 496 l 1
 352 412.099609375 l 1
 377.737304688 430.286132812 409.26171875 440.053710938 440.76171875 440.053710938 c 0
 457.03125 440.053710938 473.293945312 437.448242188 488.75 432.05078125 c 0
 543.416015625 414.143554688 585.095703125 362.756835938 591.0078125 305.490234375 c 0
 591.587890625 298.66796875 591.873046875 291.827148438 591.873046875 284.98828125 c 0
 591.873046875 240.970703125 580.068359375 197.017578125 559.171875 158.34765625 c 0
 519.623046875 84.572265625 444.321289062 31.2578125 361.421875 19.1328125 c 0
 347.819335938 16.9775390625 334.0703125 15.919921875 320.325195312 15.919921875 c 0
 256.61328125 15.919921875 192.991210938 38.6513671875 144.4765625 80.205078125 c 0
 83.86328125 130.857421875 47.431640625 208.96484375 48 287.999023438 c 0
 47.9970703125 296.393554688 48.677734375 304.787109375 50.05078125 313.068359375 c 0
 58.9423828125 370.5234375 103.948242188 420.155273438 160.1953125 434.771484375 c 0
 172.953125 438.361328125 186.127929688 440.094726562 199.298828125 440.094726562 c 0
 230.784179688 440.094726562 262.255859375 430.19140625 288 412.068359375 c 1
 288 496 l 1
EndSplineSet
MultipleSubs2: "CCMP cartouches" t.kili cart.body
Ligature2: "LIGA basics" k i l i
EndChar

StartChar: t.kiwen
Encoding: 65564 989467 29
GlifName: t.kiwen
Width: 640
GlyphClass: 1
Flags: HW
HStem: 0 21G<301.111 338.889> 432 64<225.535 414.465>
LayerCount: 2
Fore
SplineSet
192 496 m 1
 448 496 l 1
 592 288 l 1
 320 0 l 1
 48 288 l 1
 192 496 l 1
225.53515625 432 m 1
 130.15234375 294.224609375 l 1
 320 93.208984375 l 1
 509.84765625 294.224609375 l 1
 414.46484375 432 l 1
 225.53515625 432 l 1
EndSplineSet
MultipleSubs2: "CCMP cartouches" t.kiwen cart.body
Ligature2: "LIGA basics" k i w e n
EndChar

StartChar: t.ko
Encoding: 65565 989468 30
GlifName: t.ko
Width: 640
VWidth: 832
GlyphClass: 1
Flags: HW
HStem: -16.001 63.6836<322.963 396.417> 31.999 63.6797<131.586 204.863> 136.079 63.6748<475.633 515.668> 312.321 63.6768<475.633 515.668> 416.327 63.6699<131.585 204.863> 464.323 63.6738<323.078 395.668>
VStem: 48 63.6797<115.583 188.503 323.502 396.417> 416.324 63.6758<68.3313 136.079 375.919 443.667> 536.324 63.6758<219.582 292.415>
LayerCount: 2
Fore
SplineSet
536.32421875 255.998046875 m 0xb380
 536.32421875 287.857421875 511.875976562 312.321289062 480.016601562 312.321289062 c 0
 479.716796875 312.321289062 478.858398438 312.305664062 477.461914062 312.264648438 c 0
 476.8515625 312.247070312 476.278320312 312.223632812 475.665039062 312.223632812 c 0
 440.516601562 312.223632812 411.98046875 340.759765625 411.98046875 375.907226562 c 0
 411.98046875 381.805664062 412.784179688 387.517578125 414.288085938 392.940429688 c 0
 415.650390625 397.853515625 416.340820312 402.921875 416.340820312 407.999023438 c 0
 416.340820312 439.8515625 391.88671875 464.323242188 360.038085938 464.323242188 c 2
 360 464.323242188 l 2xb780
 336.258789062 464.323242188 315.494140625 449.893554688 307.212890625 427.643554688 c 0
 298.193359375 403.427734375 274.845703125 386.197265625 247.50390625 386.197265625 c 0
 231.336914062 386.197265625 216.569335938 392.234375 205.333984375 402.174804688 c 0
 195.016601562 411.307617188 181.76953125 416.327148438 168.00390625 416.327148438 c 0
 136.143554688 416.327148438 111.6796875 391.86328125 111.6796875 360.002929688 c 0
 111.6796875 339.751953125 122.352539062 321.303710938 139.908203125 311.202148438 c 0
 159.016601562 300.205078125 171.893554688 279.658203125 171.893554688 256.047851562 c 0
 171.893554688 232.436523438 159.016601562 211.80859375 139.908203125 200.811523438 c 0
 122.359375 190.71484375 111.681640625 172.254882812 111.6796875 151.995117188 c 0
 111.68359375 120.138671875 136.146484375 95.6787109375 168.00390625 95.6787109375 c 0x7b80
 181.768554688 95.6787109375 195.017578125 100.700195312 205.333984375 109.831054688 c 0
 216.569335938 119.771484375 231.344726562 125.846679688 247.510742188 125.846679688 c 0
 274.853515625 125.846679688 298.193359375 108.578125 307.212890625 84.3623046875 c 0
 315.494140625 62.1103515625 336.258789062 47.6826171875 360 47.6826171875 c 0
 391.859375 47.6826171875 416.32421875 72.146484375 416.32421875 104.006835938 c 0
 416.32421875 109.083984375 415.63671875 114.13671875 414.271484375 119.057617188 c 0
 412.768554688 124.478515625 411.920898438 130.173828125 411.920898438 136.0703125 c 0
 411.920898438 171.21875 440.45703125 199.75390625 475.60546875 199.75390625 c 0
 476.38671875 199.75390625 477.166015625 199.740234375 477.94140625 199.711914062 c 0
 478.45703125 199.673828125 479.149414062 199.673828125 480 199.673828125 c 0
 511.859375 199.673828125 536.32421875 224.138671875 536.32421875 255.998046875 c 0xb380
600 255.998046875 m 0
 600 189.76953125 546.229492188 136 480 136 c 0
 478.515625 136 477.103515625 136.025390625 475.6328125 136.079101562 c 1
 478.467773438 125.858398438 480 115.118164062 480 103.999023438 c 0
 480 37.76953125 426.229492188 -16.0009765625 360 -16.0009765625 c 0xb780
 308.469726562 -16.0009765625 264.5234375 16.498046875 247.53515625 62.1416015625 c 1
 226.362304688 43.400390625 198.471679688 31.9990234375 168 31.9990234375 c 0
 101.770507812 31.9990234375 48 85.76953125 48 151.999023438 c 0
 48.00390625 196.489257812 72.14453125 235.280273438 108.154296875 255.999023438 c 1
 72.1455078125 276.717773438 48.0048828125 315.506835938 48 359.997070312 c 0
 48 426.2265625 101.770507812 479.997070312 168 479.997070312 c 0x7b80
 198.471679688 479.997070312 226.36328125 468.594726562 247.537109375 449.854492188 c 1
 264.524414062 495.497070312 308.470703125 527.997070312 360 527.997070312 c 0
 426.229492188 527.999023438 480 474.228515625 480 407.999023438 c 0
 480 396.879882812 478.467773438 386.139648438 475.6328125 375.918945312 c 1
 477.103515625 375.97265625 478.515625 375.998046875 480 375.998046875 c 0
 546.229492188 375.998046875 600 322.228515625 600 255.998046875 c 0
EndSplineSet
LCarets2: 1 -48
MultipleSubs2: "CCMP cartouches" t.ko cart.body
Ligature2: "LIGA basics" k o
EndChar

StartChar: t.kon
Encoding: 65566 989469 31
GlifName: t.kon
Width: 640
GlyphClass: 1
Flags: HW
HStem: -15.999 64<146.031 193.611 370.031 417.611> 463.999 64<222.39 269.969 446.39 493.969>
VStem: 109.969 64<319.842 416.679> 242.031 64.001<95.3193 192.159> 333.97 63.999<319.837 416.679> 466.031 64.001<95.3193 192.159>
LayerCount: 2
Fore
SplineSet
146.03125 48.0009765625 m 1
 199.040039062 48.0009765625 242.030273438 90.96875 242.03125 144.00390625 c 0
 242.03125 178.926757812 223.065429688 211.09375 192.508789062 228.000976562 c 0
 141.579101562 256.180664062 109.969726562 309.793945312 109.96875 367.999023438 c 0
 109.96875 456.365234375 181.603515625 528 269.96875 527.999023438 c 1
 269.96875 463.999023438 l 1
 216.950195312 463.999023438 173.96875 421.018554688 173.96875 367.999023438 c 0
 173.96875 333.075195312 192.934570312 300.907226562 223.4921875 283.999023438 c 0
 274.421875 255.8203125 306.03125 202.20703125 306.032226562 144.000976562 c 0
 306.032226562 55.6357421875 234.397460938 -15.9990234375 146.03125 -15.9990234375 c 1
 146.03125 48.0009765625 l 1
493.96875 463.999023438 m 1
 440.950195312 463.999023438 397.96875 421.018554688 397.96875 367.999023438 c 0
 397.96875 333.075195312 416.934570312 300.907226562 447.4921875 283.999023438 c 0
 498.421875 255.8203125 530.03125 202.20703125 530.032226562 144.000976562 c 0
 530.032226562 55.6357421875 458.397460938 -15.9990234375 370.03125 -15.9990234375 c 1
 370.03125 48.0009765625 l 1
 423.040039062 48.0009765625 466.030273438 90.96875 466.03125 144.00390625 c 0
 466.03125 178.926757812 447.065429688 211.09375 416.508789062 228.000976562 c 0
 365.598632812 256.169921875 333.969726562 309.76953125 333.969726562 368.000976562 c 0
 333.969726562 456.366210938 405.604492188 528 493.96875 527.999023438 c 1
 493.96875 463.999023438 l 1
EndSplineSet
LCarets2: 2 -48 -48
MultipleSubs2: "CCMP cartouches" t.kon cart.body
Ligature2: "LIGA basics" k o n
EndChar

StartChar: t.kule
Encoding: 65567 989470 32
GlifName: t.kule
Width: 640
GlyphClass: 1
Flags: HW
HStem: 0 64.002<151.553 488.447> 184 72<64 140 247.555 392.446 500 576>
LayerCount: 2
Fore
SplineSet
428.447265625 184 m 1
 211.553710938 184 l 1
 151.552734375 64.001953125 l 1
 488.447265625 64.001953125 l 1
 428.447265625 184 l 1
392.446289062 256 m 1
 320.000976562 400.888671875 l 1
 247.5546875 256 l 1
 392.446289062 256 l 1
64 184 m 1
 64 256 l 1
 176 256 l 1
 320.000976562 544 l 1
 464 256 l 1
 576 256 l 1
 576 184 l 1
 500 184 l 1
 592 0 l 1
 48 0 l 1
 140 184 l 1
 64 184 l 1
EndSplineSet
MultipleSubs2: "CCMP cartouches" t.kule cart.body
Ligature2: "LIGA basics" k u l e
EndChar

StartChar: t.kulupu
Encoding: 65568 989471 33
GlifName: t.kulupu
Width: 640
GlyphClass: 1
Flags: HW
HStem: -8.00781 64.0039<129.217 206.765 433.209 510.751> 184.005 64.0039<129.217 206.765 433.209 510.751> 263.998 64.0039<281.22 358.762> 456.01 64.0039<281.22 358.762>
VStem: 39.9844 64.0039<81.2248 158.776> 191.987 64.0049<353.231 430.781> 231.996 63.9805<81.2263 158.775> 343.991 64.0039<81.2295 158.773> 383.976 64.0039<353.235 430.779> 535.979 64.0039<81.2248 158.776>
LayerCount: 2
Fore
SplineSet
319.99609375 520.013671875 m 0xfcc0
 390.633789062 520.013671875 447.979492188 462.645507812 447.979492188 392.005859375 c 0
 447.979492188 321.366210938 390.633789062 264.006835938 319.99609375 263.998046875 c 0
 249.350585938 263.998046875 191.987304688 321.360351562 191.987304688 392.005859375 c 0
 191.987304688 462.651367188 249.350585938 520.013671875 319.99609375 520.013671875 c 0xfcc0
319.99609375 456.009765625 m 0
 284.672851562 456.009765625 255.9921875 427.328125 255.9921875 392.005859375 c 0
 255.9921875 356.68359375 284.672851562 328.001953125 319.99609375 328.001953125 c 0
 355.30859375 328.012695312 383.975585938 356.690429688 383.975585938 392.005859375 c 0
 383.975585938 427.321289062 355.30859375 456.009765625 319.99609375 456.009765625 c 0
167.9921875 248.008789062 m 0
 238.629882812 248.008789062 295.9765625 190.639648438 295.9765625 120 c 0xfa40
 295.9765625 49.361328125 238.629882812 -7.9990234375 167.9921875 -8.0078125 c 0
 97.3466796875 -8.0078125 39.984375 49.35546875 39.984375 120 c 0
 39.984375 190.645507812 97.3466796875 248.008789062 167.9921875 248.008789062 c 0
167.9921875 184.004882812 m 0
 132.669921875 184.004882812 103.98828125 155.323242188 103.98828125 120 c 0
 103.98828125 84.677734375 132.669921875 55.99609375 167.9921875 55.99609375 c 0
 203.314453125 55.99609375 231.99609375 84.677734375 231.99609375 120 c 0
 231.99609375 155.323242188 203.314453125 184.004882812 167.9921875 184.004882812 c 0
471.975585938 248.008789062 m 0
 542.620117188 248.008789062 599.983398438 190.645507812 599.983398438 120 c 0
 599.983398438 49.35546875 542.620117188 -8.0078125 471.975585938 -8.0078125 c 0
 401.337890625 -7.9990234375 343.991210938 49.361328125 343.991210938 120 c 0xf940
 343.991210938 190.639648438 401.337890625 248.008789062 471.975585938 248.008789062 c 0
471.975585938 184.004882812 m 0
 436.662109375 184.004882812 407.995117188 155.31640625 407.995117188 120 c 0
 407.995117188 84.6845703125 436.662109375 56.0078125 471.975585938 55.99609375 c 0
 507.297851562 55.99609375 535.979492188 84.677734375 535.979492188 120 c 0
 535.979492188 155.323242188 507.297851562 184.004882812 471.975585938 184.004882812 c 0
EndSplineSet
LCarets2: 5 -48 -48 -48 -48 -48
MultipleSubs2: "CCMP cartouches" t.kulupu cart.body
Ligature2: "LIGA basics" k u l u p u
EndChar

StartChar: t.kute
Encoding: 65569 989472 34
GlifName: t.kute
Width: 640
GlyphClass: 1
Flags: HW
HStem: 0 64<176 256.847> 464 64<262.34 377.66>
VStem: 128 64<336 393.069> 288 64<266.985 352> 448 64<253.611 393.66>
CounterMasks: 1 38
LayerCount: 2
Fore
SplineSet
320 528 m 0
 425.967773438 528 512 441.967773438 512 336 c 0
 512 150.556640625 361.443359375 0 176 0 c 1
 176 64 l 1
 326.12109375 64 448 185.87890625 448 336 c 0
 448 406.64453125 390.645507812 464 320 464 c 0
 249.35546875 464 192 406.64453125 192 336 c 1
 128 336 l 1
 128 441.967773438 214.032226562 528 320 528 c 0
288 352 m 1
 288 352 316.349609375 351.83984375 335.3125 351.83984375 c 0
 344.793945312 351.83984375 351.928710938 351.879882812 352 352 c 1
 352 291.500976562 335.762695312 234.353515625 307.73046875 185.296875 c 1
 307.73046875 185.296875 252.334960938 217.341796875 252.162109375 217.05078125 c 1
 274.85546875 256.763671875 288 303.024414062 288 352 c 1
EndSplineSet
MultipleSubs2: "CCMP cartouches" t.kute cart.body
Ligature2: "LIGA basics" k u t e
EndChar

StartChar: t.la
Encoding: 65570 989473 35
GlifName: t.la
Width: 640
GlyphClass: 1
Flags: HW
VStem: 351.999 63.9922<173.176 338.823>
LayerCount: 2
Fore
SplineSet
263.708007812 528.52734375 m 1
 355.247070312 472.193359375 415.991210938 371.274414062 415.991210938 256 c 0
 415.991210938 140.724609375 355.247070312 39.806640625 263.708007812 -16.52734375 c 1
 230.168945312 37.974609375 l 1
 303.40234375 83.041015625 351.999023438 163.778320312 351.999023438 256 c 0
 351.999023438 348.221679688 303.40234375 428.958007812 230.168945312 474.025390625 c 1
 263.708007812 528.52734375 l 1
EndSplineSet
LCarets2: 1 0
MultipleSubs2: "CCMP cartouches" t.la cart.body
Ligature2: "LIGA basics" l a
EndChar

StartChar: t.lape
Encoding: 65571 989474 36
GlifName: t.lape
Width: 640
GlyphClass: 1
Flags: HW
HStem: 128.016 63.9805<424.23 502.786> 224 64<47.999 344.015> 320.004 64.0039<424.23 502.786>
VStem: 527.995 64.0039<217.216 294.795>
LayerCount: 2
Fore
SplineSet
463.991210938 320.00390625 m 0
 428.651367188 320.00390625 400.012695312 291.364257812 400.012695312 256 c 0
 400.012695312 220.66015625 428.651367188 191.99609375 463.991210938 191.99609375 c 0
 499.35546875 191.99609375 527.995117188 220.66015625 527.995117188 256 c 0
 527.995117188 291.364257812 499.35546875 320.00390625 463.991210938 320.00390625 c 0
463.991210938 384.0078125 m 0
 534.6953125 384.0078125 591.999023438 326.704101562 591.999023438 256 c 0
 591.999023438 185.3203125 534.6953125 128.015625 463.991210938 128.015625 c 0
 404.359375 128.015625 354.25 168.8046875 340.040039062 224.001953125 c 1
 47.9990234375 224 l 1
 47.9990234375 288 l 1
 340.040039062 288.001953125 l 1
 354.248046875 343.216796875 404.358398438 384.0078125 463.991210938 384.0078125 c 0
EndSplineSet
LCarets2: 3 0 0 0
MultipleSubs2: "CCMP cartouches" t.lape cart.body
Ligature2: "LIGA basics" l a p e
EndChar

StartChar: t.laso
Encoding: 65572 989475 37
GlifName: t.laso
Width: 640
GlyphClass: 1
Flags: HW
HStem: 0.000976562 63.9785<218.496 421.488> 255.987 64.0371<226.667 284.744 355.211 413.31> 447.964 64.0371<131.211 190.354 449.61 508.744> 492.001 20G<64 64>
VStem: 287.989 64.0049<224.015 255.985>
LayerCount: 2
Fore
SplineSet
127.993164062 512.002929688 m 2xd8
 209.46484375 512.002929688 280.778320312 468.5 319.974609375 403.461914062 c 1
 359.176757812 468.50390625 430.497070312 512.000976562 511.9765625 512.000976562 c 2
 575.994140625 512.000976562 l 1
 575.956054688 479.999023438 l 2
 575.963867188 356.294921875 475.694335938 255.985351562 351.994140625 255.985351562 c 1
 351.994140625 224.014648438 l 1
 575.984375 0.0009765625 l 1
 64 0.0009765625 l 1
 287.989257812 224.014648438 l 1
 287.989257812 255.987304688 l 1
 164.276367188 255.9921875 64 356.288085938 64 480.000976562 c 2
 64 512.000976562 l 1
 64 511.69140625 71.08984375 511.588867188 80.55078125 511.588867188 c 0
 99.51171875 511.588867188 127.993164062 512.002929688 127.993164062 512.002929688 c 2xd8
131.2109375 447.963867188 m 1xe8
 146.186523438 374.668945312 209.950195312 321.536132812 284.744140625 320.024414062 c 1
 269.767578125 393.319335938 206.004882812 446.452148438 131.2109375 447.963867188 c 1xe8
508.744140625 447.963867188 m 1
 433.950195312 446.452148438 370.186523438 393.317382812 355.2109375 320.022460938 c 1
 430.00390625 321.534179688 493.767578125 374.668945312 508.744140625 447.963867188 c 1
319.991210938 165.477539062 m 1
 218.49609375 63.9794921875 l 1
 421.48828125 63.9794921875 l 1
 319.991210938 165.477539062 l 1
EndSplineSet
MultipleSubs2: "CCMP cartouches" t.laso cart.body
Ligature2: "LIGA basics" l a s o
EndChar

StartChar: t.lawa
Encoding: 65573 989476 38
GlifName: t.lawa
Width: 640
GlyphClass: 1
Flags: HW
HStem: 23.999 64.001<203.157 324.843> 304 64<146.152 381.848 477.617 592> 424 64<202.762 327.322>
VStem: 48 64<180.867 299.509> 416 64<180.868 304>
LayerCount: 2
Fore
SplineSet
264 424 m 0
 218.296875 424 175.018554688 403.434570312 146.15234375 368 c 1
 381.84765625 368 l 1
 352.982421875 403.434570312 309.704101562 424 264 424 c 0
416 239.999023438 m 2
 416 272 l 2
 416 282.756835938 414.858398438 293.483398438 412.59375 304 c 1
 115.40625 304 l 1
 113.141601562 293.483398438 112 282.756835938 112 272 c 2
 112 239.999023438 l 2
 112.000976562 156.052734375 180.053710938 88 264 88 c 0
 347.947265625 88 416 156.052734375 416 239.999023438 c 2
480 240.001953125 m 2
 480 120.706054688 383.293945312 23.9990234375 264 23.9990234375 c 0
 144.70703125 23.9990234375 48 120.706054688 48 239.999023438 c 2
 48 271.998046875 l 2
 48 391.29296875 144.70703125 488 264 488 c 0
 346.055664062 488 421.025390625 441.505859375 457.494140625 368 c 1
 592 368 l 1
 592 304 l 1
 477.6171875 304 l 1
 479.204101562 293.407226562 480 282.7109375 480 272 c 2
 480 240.001953125 l 2
EndSplineSet
MultipleSubs2: "CCMP cartouches" t.lawa cart.body
Ligature2: "LIGA basics" l a w a
EndChar

StartChar: t.len
Encoding: 65574 989477 39
GlifName: t.len
Width: 640
GlyphClass: 1
Flags: HW
HStem: -0.000976562 21G<112 176.004 288 352.005 463.996 528> 127.983 64.0039<176.004 288 352.005 463.996> 447.995 64.0039<176.004 463.996>
VStem: 112 64.0039<-0.000976562 127.983 191.987 447.995> 288 64.0049<-0.000976562 127.983> 463.996 64.0039<-0.000976562 127.983 191.987 447.995>
LayerCount: 2
Fore
SplineSet
112 511.999023438 m 1
 528 511.999023438 l 1
 528 -0.0009765625 l 1
 463.99609375 -0.0009765625 l 1
 463.99609375 127.983398438 l 1
 352.004882812 127.983398438 l 1
 352.004882812 -0.0009765625 l 1
 288 -0.0009765625 l 1
 288 127.983398438 l 1
 176.00390625 127.983398438 l 1
 176.00390625 -0.0009765625 l 1
 112 -0.0009765625 l 1
 112 511.999023438 l 1
176.00390625 447.995117188 m 1
 176.00390625 191.987304688 l 1
 463.99609375 191.987304688 l 1
 463.99609375 447.995117188 l 1
 176.00390625 447.995117188 l 1
EndSplineSet
MultipleSubs2: "CCMP cartouches" t.len cart.body
Ligature2: "LIGA basics" l e n
EndChar

StartChar: t.lete
Encoding: 65575 989478 40
GlifName: t.lete
Width: 640
GlyphClass: 1
Flags: HW
HStem: 223.993 64<64 264.571 375.43 576>
LayerCount: 2
Fore
SplineSet
420.288085938 493.703125 m 1
 475.712890625 461.703125 l 1
 375.421875 287.993164062 l 1
 576 287.993164062 l 1
 576 223.993164062 l 1
 375.4296875 223.993164062 l 1
 475.712890625 50.296875 l 1
 420.287109375 18.296875 l 1
 320 192 l 1
 219.712890625 18.296875 l 1
 164.287109375 50.296875 l 1
 264.571289062 223.993164062 l 1
 64 223.993164062 l 1
 64 287.993164062 l 1
 264.578125 287.993164062 l 1
 164.287109375 461.703125 l 1
 219.712890625 493.703125 l 1
 320 320 l 1
 420.288085938 493.703125 l 1
EndSplineSet
LCarets2: 3 -48 -48 -48
MultipleSubs2: "CCMP cartouches" t.lete cart.body
Ligature2: "LIGA basics" l e t e
EndChar

StartChar: t.li
Encoding: 65576 989479 41
GlifName: t.li
Width: 640
GlyphClass: 1
Flags: HW
LayerCount: 2
Fore
SplineSet
172 528 m 1
 511.95703125 256.001953125 l 1
 511.995117188 256.001953125 l 1
 172.009765625 -16.005859375 l 1
 132.02734375 33.96875 l 1
 409.54296875 255.994140625 l 1
 132.017578125 478.025390625 l 1
 172 528 l 1
EndSplineSet
LCarets2: 1 -48
MultipleSubs2: "CCMP cartouches" t.li cart.body
Ligature2: "LIGA basics" l i
EndChar

StartChar: t.lili
Encoding: 65577 989480 42
GlifName: t.lili
Width: 640
GlyphClass: 1
Flags: HW
LayerCount: 2
Fore
SplineSet
227.331054688 358.208007812 m 1
 319.999023438 223.983398438 l 1
 412.642578125 358.208007812 l 1
 463.99609375 319.989257812 l 1
 319.999023438 128.000976562 l 1
 175.977539062 319.989257812 l 1
 227.331054688 358.208007812 l 1
EndSplineSet
MultipleSubs2: "CCMP cartouches" t.lili cart.body
Ligature2: "LIGA basics" l i l i
EndChar

StartChar: t.linja
Encoding: 65578 989481 43
GlifName: t.linja
Width: 640
GlyphClass: 1
Flags: HW
HStem: 128 64<399.188 496.679> 320 64<143.321 240.813>
VStem: 32 64<176 271.579> 544 64<240.421 336>
LayerCount: 2
Fore
SplineSet
192 384 m 0
 251.08984375 384 305.369140625 351.432617188 333.17578125 299.294921875 c 2
 363.294921875 242.822265625 l 2
 379.979492188 211.540039062 412.546875 192 448 192 c 0
 501.01953125 192 544 234.98046875 544 288 c 2
 544 336 l 1
 608 336 l 1
 608 288 l 2
 608 199.634765625 536.366210938 128 448 128 c 0
 388.911132812 128 334.631835938 160.567382812 306.82421875 212.705078125 c 2
 276.705078125 269.177734375 l 2
 260.021484375 300.459960938 227.454101562 320 192 320 c 0
 138.981445312 320 96 277.01953125 96 224 c 2
 96 176 l 1
 32 176 l 1
 32 224 l 2
 32 312.365234375 103.634765625 384 192 384 c 0
EndSplineSet
LCarets2: 4 -48 -48 -48 -48
MultipleSubs2: "CCMP cartouches" t.linja cart.body
Ligature2: "LIGA basics" l i n j a
EndChar

StartChar: t.lipu
Encoding: 65579 989482 44
GlifName: t.lipu
Width: 640
GlyphClass: 1
Flags: HW
HStem: -0.0117188 64.0039<176.001 464.022> 447.992 64.0039<176.001 464.022>
VStem: 111.997 64.0039<63.9922 447.992> 464.022 63.9805<64 448>
LayerCount: 2
Fore
SplineSet
111.997070312 511.99609375 m 1
 528.002929688 512.00390625 l 1
 528.002929688 -0.00390625 l 1
 111.997070312 -0.01171875 l 1
 111.997070312 511.99609375 l 1
176.000976562 447.9921875 m 1
 176.000976562 63.9921875 l 1
 464.022460938 64 l 1
 464.022460938 448 l 1
 176.000976562 447.9921875 l 1
EndSplineSet
LCarets2: 3 -48 -48 -48
MultipleSubs2: "CCMP cartouches" t.lipu cart.body
Ligature2: "LIGA basics" l i p u
EndChar

StartChar: t.loje
Encoding: 65580 989483 45
GlifName: t.loje
Width: 640
GlyphClass: 1
Flags: HW
HStem: -0.00683594 64.0039<241.029 398.959> 448.01 63.9805<192.004 448.02>
VStem: 128 64.0039<393.308 448.01> 448.02 63.9805<393.308 448.01>
LayerCount: 2
Fore
SplineSet
128 511.990234375 m 1
 512 511.990234375 l 1
 512 448.009765625 l 2
 512 354.463867188 444.954101562 276.443359375 356.334960938 259.438476562 c 1
 511.994140625 -0.0068359375 l 1
 127.994140625 -0.0068359375 l 1
 283.672851562 259.438476562 l 1
 195.052734375 276.4453125 128 354.463867188 128 448.009765625 c 2
 128 511.990234375 l 1
192.00390625 448.009765625 m 1
 192.00390625 377.365234375 249.3671875 320.001953125 320.01171875 320.001953125 c 0
 390.657226562 320.001953125 448.01953125 377.365234375 448.01953125 448.009765625 c 1
 192.00390625 448.009765625 l 1
320.005859375 195.584960938 m 1
 241.029296875 63.9970703125 l 1
 398.958984375 63.9970703125 l 1
 320.005859375 195.584960938 l 1
EndSplineSet
LCarets2: 3 -48 -48 -48
MultipleSubs2: "CCMP cartouches" t.loje cart.body
Ligature2: "LIGA basics" l o j e
EndChar

StartChar: t.lon
Encoding: 65581 989484 46
GlifName: t.lon
Width: 640
GlyphClass: 1
Flags: HW
HStem: 128 64<64.0068 576> 271.992 96<286.062 353.944>
VStem: 272.003 96<286.051 353.933>
LayerCount: 2
Fore
SplineSet
64.0068359375 128 m 1
 64.0068359375 192 l 1
 576 192 l 1
 576 128 l 1
 64.0068359375 128 l 1
272.002929688 319.9921875 m 0
 272.002929688 346.501953125 293.493164062 367.9921875 320.002929688 367.9921875 c 0
 346.512695312 367.9921875 368.002929688 346.501953125 368.002929688 319.9921875 c 0
 368.002929688 293.482421875 346.512695312 271.9921875 320.002929688 271.9921875 c 0
 293.493164062 271.9921875 272.002929688 293.482421875 272.002929688 319.9921875 c 0
EndSplineSet
LCarets2: 2 -48 -48
MultipleSubs2: "CCMP cartouches" t.lon cart.body
Ligature2: "LIGA basics" l o n
EndChar

StartChar: t.luka
Encoding: 65582 989485 47
GlifName: t.luka
Width: 640
GlyphClass: 1
Flags: HW
HStem: 0 21G<178.154 256 512 576> 464 64<326.317 441.669>
VStem: 192 64<111.951 393.095> 512 64<0 393.143>
LayerCount: 2
Fore
SplineSet
384 528 m 0
 490.015625 528 575.962890625 442.076171875 576 336.064453125 c 2
 576 336 l 1
 576 0 l 1
 512 0 l 1
 512 336.064453125 l 2
 511.96484375 406.731445312 454.66796875 464 384 464 c 0
 313.307617188 464 256 406.692382812 256 336 c 2
 256 0 l 1
 192 0 l 1
 48 208 l 1
 100.498046875 244.599609375 l 1
 192 111.951171875 l 1
 192 336 l 2
 192 442.0390625 277.961914062 528 384 528 c 0
EndSplineSet
LCarets2: 3 -48 -48 -48
MultipleSubs2: "CCMP cartouches" t.luka cart.body
Ligature2: "LIGA basics" l u k a
EndChar

StartChar: t.lukin
Encoding: 65583 989486 48
GlifName: t.lukin
Width: 640
GlyphClass: 1
Flags: HW
HStem: 96 64<238.303 401.697> 208 96<286.059 353.941> 352 64<238.303 401.697>
VStem: 272 96<222.059 289.941>
CounterMasks: 1 e0
LayerCount: 2
Fore
SplineSet
272 256 m 0
 272 282.509765625 293.490234375 304 320 304 c 0
 346.509765625 304 368 282.509765625 368 256 c 0
 368 229.490234375 346.509765625 208 320 208 c 0
 293.490234375 208 272 229.490234375 272 256 c 0
320 416 m 0
 438.485351562 416 541.8125 351.807617188 597.126953125 256 c 1
 541.8125 160.192382812 438.485351562 96 320 96 c 0
 201.515625 96 98.1875 160.192382812 42.873046875 256 c 1
 98.1875 351.807617188 201.515625 416 320 416 c 0
320 352 m 0
 239.145507812 352 167.087890625 314.615234375 120.158203125 256 c 1
 167.087890625 197.384765625 239.145507812 160 320 160 c 0
 400.85546875 160 472.91015625 197.384765625 519.83984375 256 c 1
 472.91015625 314.615234375 400.85546875 352 320 352 c 0
EndSplineSet
LCarets2: 4 -48 -48 -48 -48
MultipleSubs2: "CCMP cartouches" t.lukin cart.body
Ligature2: "LIGA basics" l u k i n
EndChar

StartChar: t.lupa
Encoding: 65584 989487 49
GlifName: t.lupa
Width: 640
GlyphClass: 1
Flags: HW
HStem: -16 64<259.443 380.557> 492 20G<112 176 464 528> 492 20G<112 176 464 528>
VStem: 112 64<132.739 512> 464 64<132.739 512>
LayerCount: 2
Fore
SplineSet
320 -16 m 0xd8
 205.125 -16 112 77.125 112 192 c 2
 112 512 l 1
 176 512 l 1
 176 192 l 2
 176 112.470703125 240.470703125 48 320 48 c 0
 399.529296875 48 464 112.470703125 464 192 c 2
 464 512 l 1
 528 512 l 1
 528 192 l 2
 528 77.125 434.875976562 -16 320 -16 c 0xd8
EndSplineSet
LCarets2: 3 -48 -48 -48
MultipleSubs2: "CCMP cartouches" t.lupa cart.body
Ligature2: "LIGA basics" l u p a
EndChar

StartChar: t.ma
Encoding: 65585 989488 50
GlifName: t.ma
Width: 640
GlyphClass: 1
Flags: HW
HStem: -16 66.4766<240.113 288 352 399.887> 224 64<114.477 288 352.056 525.523> 461.523 66.4766<240.113 288 352 399.887>
VStem: 48 66.4766<176.113 224 288 335.887> 288 64.0928<50.4766 223.944 288 461.523> 525.523 66.4766<176.113 224 288 335.887>
CounterMasks: 1 e0
LayerCount: 2
Fore
SplineSet
320 528 m 0
 470.12109375 528 592 406.12109375 592 256 c 0
 592 105.87890625 470.12109375 -16 320 -16 c 0
 169.87890625 -16 48 105.87890625 48 256 c 0
 48 406.12109375 169.87890625 528 320 528 c 0
288 461.5234375 m 1
 198.966796875 447.661132812 128.338867188 377.033203125 114.4765625 288 c 1
 288 288 l 1
 288 461.5234375 l 1
352 461.5234375 m 1
 352 288 l 1
 352 288 429.028320312 288.092773438 480.442382812 288.092773438 c 0
 506.149414062 288.092773438 525.453125 288.069335938 525.5234375 288 c 1
 511.661132812 377.033203125 441.033203125 447.661132812 352 461.5234375 c 1
114.4765625 224 m 1
 128.338867188 134.966796875 198.966796875 64.3388671875 288 50.4765625 c 1
 288 224 l 1
 114.4765625 224 l 1
352 224 m 1
 352 224 352.092773438 146.971679688 352.092773438 95.556640625 c 0
 352.092773438 69.849609375 352.069335938 50.5458984375 352 50.4765625 c 1
 441.033203125 64.3388671875 511.661132812 134.966796875 525.5234375 224 c 1
 352 224 l 1
EndSplineSet
LCarets2: 1 -48
MultipleSubs2: "CCMP cartouches" t.ma cart.body
Ligature2: "LIGA basics" m a
EndChar

StartChar: t.mama
Encoding: 65586 989489 51
GlifName: t.mama
Width: 640
GlyphClass: 1
Flags: HW
HStem: -16.0742 64.0762<285.29 354.72> 152.014 55.998<285.051 354.955> 464.004 64.0039<262.94 377.075>
VStem: 127.998 64.0039<277.812 393.658> 203.998 64.0059<65.2525 135.219> 371.992 64.0039<65.2566 135.212> 447.992 64.0059<277.805 393.642>
LayerCount: 2
Fore
SplineSet
320.000976562 544 m 0
 443.629882812 544 544.000976562 443.62890625 544.000976562 320 c 0
 544.000976562 196.37109375 443.629882812 96 320.000976562 96 c 0
 196.372070312 96 96.0009765625 196.37109375 96.0009765625 320 c 0
 96.0009765625 443.62890625 196.372070312 544 320.000976562 544 c 0
320.000976562 480 m 0
 231.694335938 480 160.000976562 408.306640625 160.000976562 320 c 0
 160.000976562 231.693359375 231.694335938 160 320.000976562 160 c 0
 408.307617188 160 480.000976562 231.693359375 480.000976562 320 c 0
 480.000976562 408.306640625 408.307617188 480 320.000976562 480 c 0
320.000976562 160 m 0
 372.984375 160 416.000976562 116.983398438 416.000976562 64 c 0
 416.000976562 11.0166015625 372.984375 -32 320.000976562 -32 c 0
 267.017578125 -32 224.000976562 11.0166015625 224.000976562 64 c 0
 224.000976562 116.983398438 267.017578125 160 320.000976562 160 c 0
320.000976562 96 m 0
 302.33984375 96 288.000976562 81.6611328125 288.000976562 64 c 0
 288.000976562 46.3388671875 302.33984375 32 320.000976562 32 c 0
 337.662109375 32 352.000976562 46.3388671875 352.000976562 64 c 0
 352.000976562 81.6611328125 337.662109375 96 320.000976562 96 c 0
EndSplineSet
LCarets2: 3 0 0 0
MultipleSubs2: "CCMP cartouches" t.mama cart.body
Ligature2: "LIGA basics" m a m a
EndChar

StartChar: t.mani
Encoding: 65587 989490 52
GlifName: t.mani
Width: 640
GlyphClass: 1
Flags: HW
HStem: 0 64<258.199 381.801> 384 64<256.114 383.894>
VStem: 32 64<423.15 480> 96 64<162.199 287.622> 480 64<162.199 287.607> 544 64<423.5 480>
LayerCount: 2
Fore
SplineSet
320 384 m 0xd8
 231.633789062 384 160 312.365234375 160 224 c 0
 160 135.633789062 231.633789062 64 320 64 c 0
 408.365234375 64 480 135.633789062 480 224 c 0
 480 312.365234375 408.365234375 384 320 384 c 0xd8
32 480 m 1xe0
 96 480 l 1
 96 435.568359375 118.71484375 396.400390625 153.141601562 373.44921875 c 1
 194.154296875 419.208984375 253.71484375 448 320 448 c 0
 386.303710938 448 445.87890625 419.192382812 486.892578125 373.411132812 c 1
 521.811523438 396.64453125 544 436.245117188 544 480 c 1
 608 480 l 1xe4
 608 414.02734375 574.470703125 354.837890625 522.377929688 320.138671875 c 1
 536.241210938 291.006835938 544 258.41015625 544 224 c 0
 544 100.288085938 443.711914062 0 320 0 c 0
 196.288085938 0 96 100.288085938 96 224 c 0xd8
 96 258.426757812 103.766601562 291.0390625 117.642578125 320.181640625 c 1
 66.013671875 354.594726562 32 413.333007812 32 480 c 1xe0
EndSplineSet
LCarets2: 3 -48 -48 -48
MultipleSubs2: "CCMP cartouches" t.mani cart.body
Ligature2: "LIGA basics" m a n i
EndChar

StartChar: t.meli
Encoding: 65588 989491 53
GlifName: t.meli
Width: 640
GlyphClass: 1
Flags: HW
HStem: 49.9961 64.0039<191.994 288 352.004 447.986> 164.659 61.3408<263.081 288 352.004 376.923> 482 64<262.34 377.66>
VStem: 128 64<297.102 411.66> 288 64.0039<-30.0049 49.9961 114 167.22> 448 64<297.102 411.66>
LayerCount: 2
Fore
SplineSet
320 546 m 0
 425.967773438 546 512 459.967773438 512 354 c 0
 512 258.935546875 442.760742188 179.915039062 352.00390625 164.66015625 c 1
 352.00390625 114 l 1
 447.986328125 114 l 1
 447.986328125 49.99609375 l 1
 352.00390625 49.99609375 l 1
 352.00390625 -30.0048828125 l 1
 288 -30.0048828125 l 1
 288 49.99609375 l 1
 191.994140625 49.99609375 l 1
 191.994140625 114 l 1
 288 114 l 1
 288 164.659179688 l 1
 197.241210938 179.912109375 128 258.93359375 128 354 c 0
 128 459.967773438 214.032226562 546 320 546 c 0
320 482 m 0
 249.35546875 482 192 424.645507812 192 354 c 0
 192 283.354492188 249.35546875 226 320 226 c 0
 390.645507812 226 448 283.354492188 448 354 c 0
 448 424.64453125 390.645507812 482 320 482 c 0
EndSplineSet
LCarets2: 3 -48 -48 -48
MultipleSubs2: "CCMP cartouches" t.meli cart.body
Ligature2: "LIGA basics" m e l i
EndChar

StartChar: t.mi
Encoding: 65589 989492 54
GlifName: t.mi
Width: 640
GlyphClass: 1
Flags: HW
HStem: -8.00391 21G<288.058 358.973> 224 64<275.38 363.759> 448.002 63.998<276.241 363.759>
VStem: 176 64<325.661 411.758> 400 64<324.241 411.759>
LayerCount: 2
Fore
SplineSet
464 368 m 0
 464 288.524414062 399.475585938 224 320 224 c 0
 298.436523438 224 277.848632812 228.826171875 259.4765625 237.3359375 c 1
 282.421875 162.095703125 325.017578125 93.4423828125 383.927734375 38.99609375 c 1
 340.48828125 -8.00390625 l 1
 235.627929688 88.9111328125 176.000976562 225.2109375 176 367.998046875 c 0
 176 447.475585938 240.524414062 512 320 512 c 0
 399.475585938 512 464 447.475585938 464 368 c 0
400 368 m 0
 400 412.153320312 364.153320312 448.001953125 320 448.001953125 c 0
 275.846679688 448.001953125 240 412.153320312 240 368 c 0
 240 323.846679688 275.846679688 288 320 288 c 0
 364.153320312 288 400 323.846679688 400 368 c 0
EndSplineSet
MultipleSubs2: "CCMP cartouches" t.mi cart.body
Ligature2: "LIGA basics" m i
EndChar

StartChar: t.mije
Encoding: 65590 989493 55
GlifName: t.mije
Width: 640
GlyphClass: 1
Flags: HW
HStem: -14 64<182.341 297.661> 306 64<182.341 298.017> 450.021 63.9795<352.011 472.013>
VStem: 48.001 64<120.34 235.66> 368.001 64<120.34 236.021> 511.997 64.0039<290.01 410.012>
LayerCount: 2
Fore
SplineSet
396.27734375 289.508789062 m 1
 418.763671875 258.06640625 432.000976562 219.567382812 432.000976562 178 c 0
 432.000976562 72.0322265625 345.96875 -14 240.000976562 -14 c 0
 134.033203125 -14 48.0009765625 72.0322265625 48.0009765625 178 c 0
 48.0009765625 283.967773438 134.033203125 370 240.000976562 370 c 0
 281.561523438 370 320.055664062 356.766601562 351.49609375 334.286132812 c 1
 472.012695312 450.020507812 l 1
 352.010742188 450.020507812 l 1
 352.010742188 514 l 1
 576.000976562 514 l 1
 576.000976562 290.009765625 l 1
 511.997070312 290.009765625 l 1
 511.997070312 410.01171875 l 1
 396.27734375 289.508789062 l 1
240.000976562 306 m 0
 169.35546875 306 112.000976562 248.645507812 112.000976562 178 c 0
 112.000976562 107.354492188 169.35546875 50 240.000976562 50 c 0
 310.645507812 50 368.000976562 107.354492188 368.000976562 178 c 0
 368.000976562 248.645507812 310.645507812 306 240.000976562 306 c 0
EndSplineSet
LCarets2: 3 -48 -48 -48
MultipleSubs2: "CCMP cartouches" t.mije cart.body
Ligature2: "LIGA basics" m i j e
EndChar

StartChar: t.moku
Encoding: 65591 989494 56
GlifName: t.moku
Width: 640
GlyphClass: 1
Flags: HW
HStem: 0.000976562 21G<161.01 240.012 464.011 528.012> 224.001 95.9805<299.337 404.646> 447.99 64.0029<224.004 479.996>
VStem: 160 64.0039<390.985 447.99> 176.006 64.0059<103.999 165.387> 464.011 64.001<0.000976562 165.387> 479.996 64.0088<390.985 447.99>
LayerCount: 2
Fore
SplineSet
224.00390625 447.990234375 m 1xf2
 224.00390625 377.349609375 281.349609375 319.990234375 351.98828125 319.981445312 c 0
 422.6328125 319.981445312 479.99609375 377.344726562 479.99609375 447.990234375 c 1
 224.00390625 447.990234375 l 1xf2
160 511.993164062 m 1
 544.004882812 511.993164062 l 1
 544.004882812 511.993164062 544.065429688 483.581054688 544.065429688 464.6171875 c 0
 544.065429688 455.134765625 544.049804688 448.014648438 544.004882812 447.989257812 c 0xf2
 544.004882812 368.590820312 495.841796875 300.4609375 427.045898438 271.249023438 c 1
 486.719726562 243.083007812 528.01171875 182.364257812 528.01171875 112.000976562 c 2
 528.01171875 0.0009765625 l 1
 464.010742188 0.0009765625 l 1
 464.010742188 112.000976562 l 2
 464.010742188 173.857421875 413.8671875 224.000976562 352.01171875 224.000976562 c 0
 290.155273438 224.000976562 240.01171875 173.857421875 240.01171875 112.000976562 c 2
 240.01171875 0.0009765625 l 1
 176.010742188 0.0009765625 l 1
 80.005859375 128.000976562 l 1
 131.213867188 166.388671875 l 1
 176.005859375 103.999023438 l 1
 176.005859375 112.001953125 l 2xec
 176.005859375 182.362304688 217.29296875 243.080078125 276.962890625 271.248046875 c 1
 208.165039062 300.458007812 160 368.58984375 160 447.990234375 c 2
 160 511.993164062 l 1
EndSplineSet
LCarets2: 3 -48 -48 -48
MultipleSubs2: "CCMP cartouches" t.moku cart.body
Ligature2: "LIGA basics" m o k u
EndChar

StartChar: t.moli
Encoding: 65592 989495 57
GlifName: t.moli
Width: 640
GlyphClass: 1
Flags: HW
HStem: 88.748 61.0293<154.921 188.094 451.908 485.072> 114 64<197.918 442.084>
LayerCount: 2
Fore
SplineSet
46.869140625 421.8984375 m 1x00
 92.126953125 467.131835938 l 1
 160.000976562 399.2578125 l 1
 227.875 467.131835938 l 1
 273.1328125 421.8984375 l 1
 205.258789062 354 l 1
 273.1328125 286.125976562 l 1
 227.875 240.868164062 l 1
 160.000976562 308.7421875 l 1
 92.126953125 240.868164062 l 1
 46.869140625 286.125976562 l 1
 114.743164062 354 l 1
 46.869140625 421.8984375 l 1x00
366.869140625 421.8984375 m 1
 412.125976562 467.131835938 l 1
 480.000976562 399.2578125 l 1
 547.899414062 467.131835938 l 1
 593.1328125 421.8984375 l 1
 525.2578125 354 l 1
 593.1328125 286.125976562 l 1
 547.899414062 240.868164062 l 1
 480.000976562 308.7421875 l 1
 412.125976562 240.868164062 l 1
 366.869140625 286.125976562 l 1
 434.743164062 354 l 1
 366.869140625 421.8984375 l 1
320.000976562 178 m 0x40
 383.780273438 178 445.307617188 168.025390625 503.088867188 149.779296875 c 1
 503.088867188 149.779296875 483.791992188 88.8671875 483.815429688 88.748046875 c 1x80
 432.116210938 105.07421875 377.067382812 114 320.000976562 114 c 0x40
 262.934570312 114 207.885742188 105.07421875 156.186523438 88.748046875 c 0
 156.184570312 88.748046875 136.913085938 149.77734375 136.913085938 149.77734375 c 1x80
 194.694335938 168.024414062 256.220703125 178 320.000976562 178 c 0x40
EndSplineSet
LCarets2: 3 -48 -48 -48
MultipleSubs2: "CCMP cartouches" t.moli cart.body
Ligature2: "LIGA basics" m o l i
EndChar

StartChar: t.monsi
Encoding: 65593 989496 58
GlifName: t.monsi
Width: 640
GlyphClass: 1
Flags: HW
HStem: 2 64<336.001 512.001> 209.991 96<158.063 225.945> 450 64.0078<336.001 512.001>
VStem: 144.004 96<224.05 291.932> 272.001 64<66 450>
LayerCount: 2
Fore
SplineSet
512.000976562 514 m 1
 512.000976562 449.99609375 l 1
 336.000976562 450 l 1
 336.000976562 66 l 1
 512.000976562 65.99609375 l 1
 512.000976562 1.9921875 l 1
 272.000976562 2 l 1
 272.000976562 514.0078125 l 1
 512.000976562 514 l 1
144.00390625 257.991210938 m 0
 144.00390625 284.500976562 165.494140625 305.991210938 192.00390625 305.991210938 c 0
 218.513671875 305.991210938 240.00390625 284.500976562 240.00390625 257.991210938 c 0
 240.00390625 231.481445312 218.513671875 209.991210938 192.00390625 209.991210938 c 0
 165.494140625 209.991210938 144.00390625 231.481445312 144.00390625 257.991210938 c 0
EndSplineSet
LCarets2: 4 -48 -48 -48 -48
MultipleSubs2: "CCMP cartouches" t.monsi cart.body
Ligature2: "LIGA basics" m o n s i
EndChar

StartChar: t.mu
Encoding: 65594 989497 59
GlifName: t.mu
Width: 640
GlyphClass: 1
Flags: HW
HStem: -14 64<255.575 384.425> 97.998 96<286.059 353.941> 386 64<283.614 356.386> 482 64<121.226 198.687 441.313 518.774>
VStem: 32 64<378.825 456.774> 88 64<153.575 284.331> 272 96<112.057 179.939> 488 64<153.575 284.33> 544 64<378.824 456.774>
LayerCount: 2
Fore
SplineSet
160 546 m 0xfa
 220.545898438 546 271.323242188 503.801757812 284.60546875 447.28515625 c 1
 296.216796875 449.077148438 307.890625 450 320 450 c 0
 332.110351562 450 343.783203125 449.077148438 355.39453125 447.28515625 c 1
 368.677734375 503.801757812 419.455078125 546 480 546 c 0
 550.645507812 546 608 488.645507812 608 418 c 0xfa80
 608 367.353515625 578.641601562 323.610351562 535.921875 302.861328125 c 1
 546.240234375 276.607421875 552 247.897460938 552 218 c 0
 552 89.9560546875 448.044921875 -14 320 -14 c 0
 191.956054688 -14 88 89.9560546875 88 218 c 0xf7
 88 247.897460938 93.759765625 276.608398438 104.078125 302.86328125 c 1
 61.359375 323.612304688 32.0009765625 367.354492188 32 418 c 0
 32 488.64453125 89.35546875 546 160 546 c 0xfa
160 482 m 0
 124.677734375 482 96 453.322265625 96 418 c 0
 96 391.2890625 112.357421875 368.40625 135.626953125 358.822265625 c 1
 158.569335938 388.858398438 188.374023438 412.828125 223.083984375 428.787109375 c 1
 217.92578125 458.952148438 191.625976562 482 160 482 c 0
480 482 m 0
 448.374023438 482 422.07421875 458.952148438 416.916015625 428.787109375 c 1
 451.625976562 412.828125 481.431640625 388.858398438 504.373046875 358.822265625 c 1
 527.642578125 368.40625 544 391.2890625 544 418 c 0
 544 453.322265625 515.323242188 482 480 482 c 0
320 386 m 0
 227.278320312 386 152 310.721679688 152 218 c 0
 152 125.278320312 227.278320312 50 320 50 c 0
 412.721679688 50 488 125.278320312 488 218 c 0xf7
 488 310.721679688 412.721679688 386 320 386 c 0
320 193.998046875 m 0
 346.509765625 193.998046875 368 172.5078125 368 145.998046875 c 0
 368 119.48828125 346.509765625 97.998046875 320 97.998046875 c 0
 293.491210938 97.998046875 272 119.48828125 272 145.998046875 c 0
 272 172.5078125 293.491210938 193.998046875 320 193.998046875 c 0
EndSplineSet
LCarets2: 1 -48
MultipleSubs2: "CCMP cartouches" t.mu cart.body
Ligature2: "LIGA basics" m u
EndChar

StartChar: t.mun
Encoding: 65595 989498 60
GlifName: t.mun
Width: 640
GlyphClass: 1
Flags: HW
HStem: -16.001 64<238.56 384.957> 463.999 64<238.559 384.957>
VStem: 280 64<198.262 313.737> 520 64<183.042 328.956>
LayerCount: 2
Fore
SplineSet
312 527.999023438 m 0
 462.12109375 527.999023438 584 406.120117188 584 255.999023438 c 0
 584 105.877929688 462.12109375 -16.0009765625 312 -16.0009765625 c 0
 235.044921875 -16.0009765625 165.500976562 15.9609375 116.001953125 67.4013671875 c 0
 86.8310546875 97.724609375 64.6845703125 134.86328125 52.017578125 176.090820312 c 1
 74.6904296875 147.71875 109.190429688 129.276367188 148.005859375 128.061523438 c 0
 149.353515625 128.01953125 150.641601562 127.999023438 152 127.999023438 c 0
 222.645507812 127.999023438 280 185.354492188 280 255.999023438 c 0
 280 326.64453125 222.645507812 383.999023438 152 383.999023438 c 0
 150.641601562 383.999023438 149.348632812 383.979492188 148 383.936523438 c 0
 109.182617188 382.721679688 74.6806640625 364.27734375 52.0078125 335.901367188 c 1
 64.6767578125 377.130859375 86.8251953125 414.26953125 116 444.592773438 c 0
 165.499023438 496.036132812 235.043945312 527.999023438 312 527.999023438 c 0
312 463.999023438 m 0
 275.853515625 463.999023438 241.62890625 454.62890625 212 438.383789062 c 1
 288.635742188 413.172851562 344 341.02734375 344 255.999023438 c 0
 343.999023438 170.973632812 288.635742188 98.830078125 212.001953125 73.6181640625 c 1
 241.629882812 57.3720703125 275.853515625 48.0009765625 312 47.9990234375 c 0
 426.797851562 48 520 141.201171875 520 255.999023438 c 0
 520 370.797851562 426.797851562 463.999023438 312 463.999023438 c 0
EndSplineSet
MultipleSubs2: "CCMP cartouches" t.mun cart.body
Ligature2: "LIGA basics" m u n
EndChar

StartChar: t.musi
Encoding: 65596 989499 61
GlifName: t.musi
Width: 640
GlyphClass: 1
Flags: HW
HStem: -32 64.0039<252.984 387.135> 288.044 63.9561<158.3 197.744 442.529 481.601> 480.008 64.0039<121.884 198.3 441.207 518.783>
VStem: 31.9443 64.0049<376.554 454.794> 79.9844 64.1484<142.331 276.46> 223.957 64.2695<377.526 454.794> 352.037 63.9072<377.497 454.794> 496.131 63.8594<142.331 276.423> 543.953 64.1006<376.552 454.794>
LayerCount: 2
Fore
SplineSet
159.953125 544.01171875 m 2xf6
 160.243164062 544.01171875 l 2
 230.922851562 544.01171875 288.2265625 486.708007812 288.2265625 416.00390625 c 0
 288.2265625 346.412109375 232.689453125 290.462890625 163.484375 288.043945312 c 1
 151.208984375 264.077148438 144.1640625 236.752929688 144.1328125 208.002929688 c 0
 144.133789062 110.8671875 222.99609375 32.0048828125 320.131835938 32.00390625 c 0
 417.268554688 32.0048828125 496.130859375 110.8671875 496.130859375 208.002929688 c 0xef
 496.099609375 236.752929688 489.055664062 264.077148438 476.780273438 288.043945312 c 1
 407.599609375 289.786132812 352.037109375 346.412109375 352.037109375 416.00390625 c 0
 352.037109375 486.708007812 409.340820312 544.01171875 480.045898438 544.01171875 c 0
 550.725585938 544.01171875 608.053710938 486.708007812 608.053710938 416.00390625 c 0xe680
 608.053710938 367.142578125 580.647460938 324.642578125 540.397460938 303.114257812 c 1
 552.931640625 274.02734375 559.990234375 241.80078125 559.990234375 208.138671875 c 2
 559.990234375 208.002929688 l 2
 559.990234375 75.54296875 452.446289062 -32 319.987304688 -32 c 0
 187.52734375 -32 79.984375 75.54296875 79.984375 208.002929688 c 0xef
 79.984375 208.047851562 80.09765625 208.267578125 80.09765625 208.3125 c 0
 80.09765625 241.974609375 87.04296875 274.02734375 99.5771484375 303.114257812 c 1
 59.326171875 324.666992188 31.9443359375 367.142578125 31.9443359375 416.00390625 c 0
 31.9443359375 486.708007812 89.248046875 544.01171875 159.953125 544.01171875 c 2xf6
159.953125 480.0078125 m 0
 124.588867188 480.0078125 95.94921875 451.34375 95.94921875 416.00390625 c 0xf6
 95.94921875 380.6640625 124.588867188 352 159.953125 352 c 0
 195.29296875 352 223.95703125 380.6640625 223.95703125 416.00390625 c 0
 223.95703125 451.34375 195.29296875 480.0078125 159.953125 480.0078125 c 0
479.94921875 480.0078125 m 0
 444.608398438 480.0078125 415.944335938 451.34375 415.944335938 416.00390625 c 0
 415.944335938 380.6640625 444.608398438 352 479.94921875 352 c 0
 515.2890625 352 543.953125 380.6640625 543.953125 416.00390625 c 0xe680
 543.953125 451.34375 515.2890625 480.0078125 479.94921875 480.0078125 c 0
EndSplineSet
MultipleSubs2: "CCMP cartouches" t.musi cart.body
Ligature2: "LIGA basics" m u s i
EndChar

StartChar: t.mute
Encoding: 65597 989500 62
GlifName: t.mute
Width: 640
GlyphClass: 1
Flags: HW
HStem: 0 21G<128 192 287.99 351.99 448 512> 491.998 20G<128 192 287.99 351.99 448 512> 491.998 20G<128 192 287.99 351.99 448 512>
VStem: 128 64<0 512> 287.99 64<-0.00195312 511.998> 448 64<0 512>
LayerCount: 2
Fore
SplineSet
287.990234375 -0.001953125 m 1xdc
 287.990234375 511.998046875 l 1
 351.990234375 511.998046875 l 1
 351.990234375 -0.001953125 l 1
 287.990234375 -0.001953125 l 1xdc
128 0 m 1
 128 512 l 1
 192 512 l 1
 192 0 l 1
 128 0 l 1
448 0 m 1
 448 512 l 1
 512 512 l 1
 512 0 l 1
 448 0 l 1
EndSplineSet
LCarets2: 3 -48 -48 -48
MultipleSubs2: "CCMP cartouches" t.mute cart.body
Ligature2: "LIGA basics" m u t e
EndChar

StartChar: t.nanpa
Encoding: 65598 989501 63
GlifName: t.nanpa
Width: 640
GlyphClass: 1
Flags: HW
HStem: 127.993 64<48.001 192.001 256.001 384.001 448.001 592> 319.993 64<48.001 192.001 256.001 384.001 448.001 592>
VStem: 192.001 64<-16.0156 127.993 191.993 319.993 383.993 528> 384.001 64<-16.0146 127.993 191.993 319.993 383.993 528.001>
LayerCount: 2
Fore
SplineSet
384.000976562 319.993164062 m 1
 256.000976562 319.993164062 l 1
 256.000976562 191.993164062 l 1
 384.000976562 191.993164062 l 1
 384.000976562 319.993164062 l 1
448.000976562 383.993164062 m 1
 592 383.993164062 l 1
 592 319.993164062 l 1
 448.000976562 319.993164062 l 1
 448.000976562 191.993164062 l 1
 592 191.993164062 l 1
 592 127.993164062 l 1
 448.000976562 127.993164062 l 1
 448.000976562 -16.0146484375 l 1
 384.000976562 -16.0146484375 l 1
 384.000976562 127.993164062 l 1
 256.000976562 127.993164062 l 1
 256.000976562 -16.015625 l 1
 192.000976562 -16.015625 l 1
 192.000976562 127.993164062 l 1
 48.0009765625 127.993164062 l 1
 48.0009765625 191.993164062 l 1
 192.000976562 191.993164062 l 1
 192.000976562 319.993164062 l 1
 48.0009765625 319.993164062 l 1
 48.0009765625 383.993164062 l 1
 192.000976562 383.993164062 l 1
 192.000976562 528 l 1
 256.000976562 528 l 1
 256.000976562 383.993164062 l 1
 384.000976562 383.993164062 l 1
 384.000976562 528.000976562 l 1
 448.000976562 528.000976562 l 1
 448.000976562 383.993164062 l 1
EndSplineSet
LCarets2: 4 -48 -48 -48 -48
MultipleSubs2: "CCMP cartouches" t.nanpa cart.body
Ligature2: "LIGA basics" n a n p a
EndChar

StartChar: t.nasa
Encoding: 65599 989502 64
GlifName: t.nasa
Width: 640
GlyphClass: 1
Flags: HW
HStem: -32 64<304.064 383.998> 96 64<326.313 441.679> 352 64<281.21 358.783> 480 64<249.754 390.237>
VStem: 63.998 64<206.998 358.241> 191.998 64<230.318 326.788> 383.998 64<248.666 326.792> 511.998 64<230.312 358.247>
LayerCount: 2
Fore
SplineSet
319.998046875 544 m 0
 461.36328125 544 575.997070312 429.408203125 575.998046875 287.99609375 c 0
 575.998046875 181.959960938 490.037109375 96 384 96 c 0
 277.951171875 96.0009765625 191.998046875 181.96875 191.998046875 288 c 0
 191.998046875 358.692382812 249.305664062 416 319.998046875 416 c 0
 390.690429688 416 447.998046875 358.692382812 447.998046875 288 c 0
 447.998046875 254.052734375 434.512695312 221.495117188 410.5078125 197.490234375 c 1
 365.25390625 242.744140625 l 1
 377.255859375 254.74609375 383.998046875 271.024414062 383.998046875 287.99609375 c 0
 383.997070312 323.365234375 355.329101562 352 319.998046875 352 c 0
 284.651367188 352 255.998046875 323.346679688 255.998046875 288 c 0
 255.998046875 217.307617188 313.305664062 160 383.998046875 160 c 0
 454.676757812 160 511.997070312 217.291015625 511.998046875 288.00390625 c 0
 511.998046875 394.040039062 426.037109375 480 320 480 c 0
 213.951171875 479.999023438 127.998046875 394.03125 127.998046875 288 c 0
 127.998046875 146.709960938 242.708007812 32 383.998046875 32 c 1
 383.998046875 -32 l 1
 207.384765625 -32 63.998046875 111.387695312 63.998046875 288 c 0
 63.998046875 429.384765625 178.61328125 544 319.998046875 544 c 0
EndSplineSet
LCarets2: 3 -48 -48 -48
MultipleSubs2: "CCMP cartouches" t.nasa cart.body
Ligature2: "LIGA basics" n a s a
EndChar

StartChar: t.nasin
Encoding: 65600 989503 65
GlifName: t.nasin
Width: 640
GlyphClass: 1
Flags: HW
HStem: 0 21G<288.02 352> 492.008 20G<288.02 352> 492.008 20G<288.02 352>
VStem: 288.02 63.9805<0 296.001 384 512.008>
LayerCount: 2
Fore
SplineSet
288.01953125 512.0078125 m 1xd0
 352 512.0078125 l 1
 352 384 l 1
 528.022460938 208.000976562 l 1
 480.0078125 160.009765625 l 1
 352 296.000976562 l 1
 352 0 l 1
 288.01953125 0 l 1
 288.01953125 296.000976562 l 1
 160.01171875 160.009765625 l 1
 112.020507812 208.000976562 l 1
 288.01953125 384 l 1
 288.01953125 512.0078125 l 1xd0
EndSplineSet
MultipleSubs2: "CCMP cartouches" t.nasin cart.body
Ligature2: "LIGA basics" n a s i n
EndChar

StartChar: t.nena
Encoding: 65601 989504 66
GlifName: t.nena
Width: 640
GlyphClass: 1
Flags: HW
HStem: 0 21G<112 176 464 528> 464 64<259.443 380.557>
VStem: 112 64<0 379.261> 464 64<0 379.261>
LayerCount: 2
Fore
SplineSet
320 528 m 0
 434.875976562 528 528 434.875 528 320 c 2
 528 0 l 1
 464 0 l 1
 464 320 l 2
 464 399.529296875 399.529296875 464 320 464 c 0
 240.470703125 464 176 399.529296875 176 320 c 2
 176 0 l 1
 112 0 l 1
 112 320 l 2
 112 434.875 205.125 528 320 528 c 0
EndSplineSet
LCarets2: 3 -48 -48 -48
MultipleSubs2: "CCMP cartouches" t.nena cart.body
Ligature2: "LIGA basics" n e n a
EndChar

StartChar: t.ni
Encoding: 65602 989505 67
GlifName: t.ni
Width: 640
GlyphClass: 1
Flags: HW
HStem: -7.99512 21G<300 340> 492.02 20G<287.998 352.002> 492.02 20G<287.998 352.002>
VStem: 287.998 64.0039<112.007 512.02>
LayerCount: 2
Fore
SplineSet
287.998046875 512.01953125 m 1xd0
 352.001953125 512.01953125 l 1
 352.001953125 112.006835938 l 1
 480.009765625 248.021484375 l 1
 528.000976562 200.005859375 l 1
 320 -7.9951171875 l 1
 111.999023438 200.005859375 l 1
 159.989257812 248.021484375 l 1
 287.998046875 112.006835938 l 1
 287.998046875 512.01953125 l 1xd0
EndSplineSet
MultipleSubs2: "CCMP cartouches" t.ni cart.body
Ligature2: "LIGA basics" n i
EndChar

StartChar: t.nimi
Encoding: 65603 989506 68
GlifName: t.nimi
Width: 640
GlyphClass: 1
Flags: HW
HStem: 120.009 63.9805<117.908 522.092> 328.011 64.0039<117.908 522.092>
VStem: 48 64.0049<189.892 322.107> 527.996 64.0039<189.892 322.107>
LayerCount: 2
Fore
SplineSet
144.006835938 392.014648438 m 2
 495.994140625 392.014648438 l 2
 549.018554688 392.018554688 592.00390625 349.033203125 592 296.008789062 c 2
 592 215.991210938 l 2
 591.990234375 162.9765625 549.008789062 120.005859375 495.994140625 120.008789062 c 2
 144.006835938 120.008789062 l 2
 90.9921875 120.005859375 48 162.9765625 48 215.991210938 c 2
 48 296.008789062 l 2
 47.9970703125 349.033203125 90.982421875 392.014648438 144.006835938 392.014648438 c 2
144.006835938 328.010742188 m 2
 126.33203125 328.010742188 112.002929688 313.68359375 112.004882812 296.008789062 c 2
 112.004882812 215.991210938 l 2
 112.002929688 198.31640625 126.33203125 183.987304688 144.006835938 183.989257812 c 2
 495.994140625 183.989257812 l 2
 513.668945312 183.987304688 527.997070312 198.31640625 527.99609375 215.991210938 c 2
 527.99609375 296.008789062 l 2
 527.997070312 313.68359375 513.668945312 328.01171875 495.994140625 328.010742188 c 2
 144.006835938 328.010742188 l 2
EndSplineSet
LCarets2: 3 -48 -48 -48
MultipleSubs2: "CCMP cartouches" t.nimi cart.body
Ligature2: "LIGA basics" n i m i
EndChar

StartChar: t.noka
Encoding: 65604 989507 69
GlifName: t.noka
Width: 640
GlyphClass: 1
Flags: HW
HStem: -0.0078125 64.0039<176.009 458.826> 223.975 64.0117<351.984 458.826> 492 20G<112.004 176.009 288.005 351.984> 492 20G<112.004 176.009 288.005 351.984>
VStem: 112.004 64.0049<63.9961 512> 288.005 63.9795<287.986 512> 495.997 64.0039<100.21 187.758>
LayerCount: 2
Fore
SplineSet
112.00390625 512 m 1xee
 176.008789062 512 l 1
 176.008789062 63.99609375 l 1
 416.00390625 63.98828125 l 2
 460.172851562 63.98828125 495.997070312 99.8125 495.997070312 143.981445312 c 0
 495.997070312 188.174804688 460.172851562 223.971679688 416.00390625 223.974609375 c 2
 288.004882812 223.981445312 l 1
 288.004882812 512 l 1
 351.984375 512 l 1
 351.984375 287.986328125 l 1
 416.00390625 287.978515625 l 2
 495.537109375 287.978515625 560.000976562 223.514648438 560.000976562 143.981445312 c 0
 560.000976562 64.4482421875 495.537109375 -0.017578125 416.00390625 -0.015625 c 2
 112.00390625 -0.0078125 l 1
 112.00390625 512 l 1xee
EndSplineSet
LCarets2: 3 -48 -48 -48
MultipleSubs2: "CCMP cartouches" t.noka cart.body
Ligature2: "LIGA basics" n o k a
EndChar

StartChar: t.o
Encoding: 65605 989508 70
GlifName: t.o
Width: 640
GlyphClass: 1
Flags: HW
HStem: -16 64.0039<281.215 358.789> 176.012 64.0049<281.215 358.789>
VStem: 191.997 64.0039<73.2224 150.798> 288.004 64<288 528> 384.009 63.9795<73.2224 150.798>
LayerCount: 2
Fore
SplineSet
288.00390625 288 m 1
 288.00390625 528 l 1
 352.00390625 528 l 1
 352.00390625 288 l 1
 288.00390625 288 l 1
320.004882812 240.016601562 m 0
 390.684570312 240.016601562 447.98828125 182.712890625 447.98828125 112.0078125 c 0
 447.98828125 41.328125 390.684570312 -16 320.004882812 -16 c 0
 249.30078125 -16 191.997070312 41.328125 191.997070312 112.0078125 c 0
 191.997070312 182.712890625 249.30078125 240.016601562 320.004882812 240.016601562 c 0
320.004882812 176.01171875 m 0
 284.665039062 176.01171875 256.000976562 147.348632812 256.000976562 112.0078125 c 0
 256.000976562 76.66796875 284.665039062 48.00390625 320.004882812 48.00390625 c 0
 355.344726562 48.00390625 384.008789062 76.66796875 384.008789062 112.0078125 c 0
 384.008789062 147.348632812 355.344726562 176.01171875 320.004882812 176.01171875 c 0
EndSplineSet
MultipleSubs2: "CCMP cartouches" t.o cart.body
Ligature2: "LIGA basics" o
EndChar

StartChar: t.olin
Encoding: 65606 989509 71
GlifName: t.olin
Width: 640
GlyphClass: 1
Flags: HW
HStem: 288.006 63.9941<200.293 260.33 379.711 439.928> 488 64<185.228 260.226 379.056 454.876>
VStem: 96 64.2334<184.251 263.491 383.932 462.772> 480.01 63.9902<184.259 263.51 384.297 462.773>
LayerCount: 2
Fore
SplineSet
224 552 m 0
 262 552 297 523 320 496 c 1
 344 523 378 552 416 552 c 0
 487 552 544 495 544 424 c 0
 544 387 529 354 503 330 c 2
 496 324 l 1
 525 300 544 264 544 224 c 0
 544 187 528 154 503 130 c 2
 320 -40 l 1
 137 130 l 2
 112 154 96 187 96 224 c 0
 96 264 115 300 144 324 c 1
 137 330 l 2
 112 354 96 387 96 424 c 0
 96 495 153 552 224 552 c 0
224 488 m 0
 189 488 160 459 160 424 c 0
 160 405 168 389 180 377 c 2
 208 351 l 1
 214 352 219 352 224 352 c 0
 262 352 297 323 320 296 c 1
 343 323 378 352 416 352 c 0
 421 352 426.575195312 351.682617188 431.727539062 351.052734375 c 2
 432 351 l 1
 459.790039062 377.1484375 l 2
 472.368164062 388.831054688 480 406 480 424 c 0
 480 459 451.444335938 488.005859375 416.104492188 488.005859375 c 0
 380.763671875 488.005859375 336.0625 440.015625 320.09765625 408.013671875 c 1
 304.109375 440.015625 259 488 224 488 c 0
224.114257812 288.005859375 m 0
 188.805664062 287.939453125 160.233398438 259.30078125 160.233398438 224.001953125 c 0
 160.233398438 205.497070312 167.973632812 188.733398438 180.551757812 177.123046875 c 2
 320.12109375 47.373046875 l 1
 459.69140625 177.123046875 l 2
 472.270507812 188.805664062 480.009765625 205.375976562 480.009765625 224.001953125 c 0
 480.009765625 259.341796875 451.346679688 288.005859375 416.006835938 288.005859375 c 0
 380.666015625 288.005859375 335.96484375 240.013671875 320.000976562 208.01171875 c 1
 304.026367188 239.984375 259.438476562 287.919921875 224.114257812 288.005859375 c 0
EndSplineSet
MultipleSubs2: "CCMP cartouches" t.olin cart.body
LCarets2: 3 -48 -48 -48
Ligature2: "LIGA basics" o l i n
EndChar

StartChar: t.ona
Encoding: 65607 989510 72
GlifName: t.ona
Width: 640
GlyphClass: 1
Flags: HW
HStem: 112 64<397.66 483.758> 336 64<396.24 483.758>
VStem: 295.999 64<211.38 299.759> 520.001 63.998<212.241 299.759>
LayerCount: 2
Fore
SplineSet
439.999023438 400 m 0
 519.474609375 400 583.999023438 335.475585938 583.999023438 256 c 0
 583.999023438 176.524414062 519.474609375 112 439.999023438 112 c 0
 297.208984375 112.000976562 160.909179688 171.627929688 63.9951171875 276.48828125 c 1
 110.995117188 319.927734375 l 1
 165.44140625 261.017578125 234.09375 218.421875 309.334960938 195.4765625 c 1
 300.825195312 213.848632812 295.999023438 234.436523438 295.999023438 256 c 0
 295.999023438 335.475585938 360.5234375 400 439.999023438 400 c 0
439.999023438 336 m 0
 395.845703125 336 359.999023438 300.153320312 359.999023438 256 c 0
 359.999023438 211.846679688 395.845703125 176 439.999023438 176 c 0
 484.15234375 176 520.000976562 211.846679688 520.000976562 256 c 0
 520.000976562 300.153320312 484.15234375 336 439.999023438 336 c 0
EndSplineSet
MultipleSubs2: "CCMP cartouches" t.ona cart.body
Ligature2: "LIGA basics" o n a
EndChar

StartChar: t.open
Encoding: 65608 989511 73
GlifName: t.open
Width: 640
GlyphClass: 1
Flags: HW
HStem: 0.015625 64.0049<176.003 463.991> 160.014 64<176.004 463.991> 492 20G<112.001 176.005 463.993 527.997> 492 20G<112.001 176.005 463.993 527.997>
VStem: 111.999 64.0049<64.0205 160.014 224.014 512> 463.992 64.0029<64.0176 160.014 224.014 511.998>
LayerCount: 2
Fore
SplineSet
176.002929688 160.013671875 m 1xcc
 176.002929688 128.015625 176.002929688 96.0185546875 176.002929688 64.0205078125 c 1
 463.991210938 64.017578125 l 1
 463.991210938 96.0166015625 463.991210938 128.014648438 463.991210938 160.013671875 c 1
 176.002929688 160.013671875 l 1xcc
112.000976562 512 m 1xec
 176.004882812 512 l 1
 176.004882812 416.004882812 176.00390625 320.008789062 176.00390625 224.013671875 c 1
 463.9921875 224.013671875 l 1
 463.9921875 320.008789062 463.993164062 416.002929688 463.993164062 511.998046875 c 1
 527.997070312 511.998046875 l 1
 527.995117188 0.013671875 l 1
 111.999023438 0.015625 l 1
 112.000976562 512 l 1xec
EndSplineSet
LCarets2: 3 -48 -48 -48
MultipleSubs2: "CCMP cartouches" t.open cart.body
Ligature2: "LIGA basics" o p e n
EndChar

StartChar: t.pakala
Encoding: 65609 989512 74
GlifName: t.pakala
Width: 640
GlyphClass: 1
Flags: HW
HStem: -0.0107422 64.0039<159.994 246.276 320.005 479.99> 224.004 63.9795<302.274 337.711> 447.994 64.0039<159.994 320.005 393.708 479.99>
VStem: 95.9902 64.0039<63.9932 447.994> 479.99 64.0039<63.9932 447.994>
LayerCount: 2
Fore
SplineSet
95.990234375 511.998046875 m 1
 543.994140625 511.998046875 l 1
 543.994140625 -0.0107421875 l 1
 95.990234375 -0.0107421875 l 1
 95.990234375 511.998046875 l 1
159.994140625 447.994140625 m 1
 159.994140625 63.9931640625 l 1
 246.276367188 63.9931640625 l 1
 337.7109375 224.00390625 l 1
 191.997070312 224.00390625 l 1
 320.004882812 447.994140625 l 1
 159.994140625 447.994140625 l 1
393.708007812 447.994140625 m 1
 302.274414062 287.983398438 l 1
 448.012695312 287.983398438 l 1
 320.004882812 63.9931640625 l 1
 479.990234375 63.9931640625 l 1
 479.990234375 447.994140625 l 1
 393.708007812 447.994140625 l 1
EndSplineSet
LCarets2: 5 -48 -48 -48 -48 -48
MultipleSubs2: "CCMP cartouches" t.pakala cart.body
Ligature2: "LIGA basics" p a k a l a
EndChar

StartChar: t.pali
Encoding: 65610 989513 75
GlifName: t.pali
Width: 640
GlyphClass: 1
Flags: HW
HStem: 0 21G<176 240.001 464 528.001> 208 80<305.908 398.092> 464 64<305.702 398.298>
VStem: 200 64<328.842 422.298> 440 64<328.842 422.298> 464 64.001<0 149.386>
LayerCount: 2
Fore
SplineSet
352 528 m 0xf4
 435.891601562 528 504 459.890625 504 376 c 0xf8
 504 323.637695312 477.465820312 277.424804688 437.122070312 250.083007812 c 1
 491.311523438 220.083007812 528 162.326171875 528.000976562 96 c 2
 528.000976562 0 l 1
 464 0 l 1
 464 96 l 2
 464 157.85546875 413.856445312 208 352 208 c 0
 290.14453125 208 240 157.85546875 240.000976562 96 c 2
 240.000976562 0 l 1
 176 0 l 1
 176 0.0244140625 l 1
 80 128 l 1
 131.208984375 166.412109375 l 1
 176.006835938 106.689453125 l 1
 176.296875 106.302734375 l 1
 179.874023438 168.274414062 215.514648438 221.647460938 266.877929688 250.083007812 c 1
 226.534179688 277.424804688 200 323.637695312 200 376 c 0
 200 459.890625 268.109375 528 352 528 c 0xf4
352 464 m 0
 303.431640625 464 264 424.568359375 264 376 c 0
 264 327.431640625 303.431640625 288 352 288 c 0
 400.569335938 288 440 327.431640625 440 376 c 0
 440 424.568359375 400.569335938 464 352 464 c 0
EndSplineSet
LCarets2: 3 -48 -48 -48
MultipleSubs2: "CCMP cartouches" t.pali cart.body
Ligature2: "LIGA basics" p a l i
EndChar

StartChar: t.palisa
Encoding: 65611 989514 76
GlifName: t.palisa
Width: 640
GlyphClass: 1
Flags: HW
HStem: -16 64<286.388 353.612> 464 64<286.388 353.612>
VStem: 208 64<62.71 449.29> 368 64<62.71 449.29>
LayerCount: 2
Fore
SplineSet
320 528 m 0
 381.814453125 528 432 477.814453125 432 416 c 2
 432 96 l 2
 432 34.185546875 381.814453125 -16 320 -16 c 0
 258.185546875 -16 208 34.185546875 208 96 c 2
 208 416 l 2
 208 477.814453125 258.185546875 528 320 528 c 0
320 464 m 0
 293.5078125 464 272 442.4921875 272 416 c 2
 272 96 l 2
 272 69.5078125 293.5078125 48 320 48 c 0
 346.4921875 48 368 69.5078125 368 96 c 2
 368 416 l 2
 368 442.4921875 346.4921875 464 320 464 c 0
EndSplineSet
LCarets2: 5 -48 -48 -48 -48 -48
MultipleSubs2: "CCMP cartouches" t.palisa cart.body
Ligature2: "LIGA basics" p a l i s a
EndChar

StartChar: t.pan
Encoding: 65612 989515 77
GlifName: t.pan
Width: 640
GlyphClass: 1
Flags: HW
LayerCount: 2
Fore
SplineSet
191.177734375 211.24609375 m 1
 320 56 l 1
 448.822265625 211.24609375 l 1
 496 168 l 1
 320 -24 l 1
 144 168 l 1
 191.177734375 211.24609375 l 1
191.177734375 531.24609375 m 1
 320 376 l 1
 448.822265625 531.24609375 l 1
 496 488 l 1
 320 296 l 1
 144 488 l 1
 191.177734375 531.24609375 l 1
191.177734375 371.24609375 m 1
 320 216 l 1
 448.822265625 371.24609375 l 1
 496 328 l 1
 320 136 l 1
 144 328 l 1
 191.177734375 371.24609375 l 1
EndSplineSet
LCarets2: 2 -48 -48
MultipleSubs2: "CCMP cartouches" t.pan cart.body
Ligature2: "LIGA basics" p a n
EndChar

StartChar: t.pana
Encoding: 65613 989516 78
GlifName: t.pana
Width: 640
GlyphClass: 1
Flags: HW
HStem: 0 21G<161 240 464 528> 288 64<299.139 404.862>
VStem: 176 64<106.674 228.337> 320 64<400.002 528> 464 64<0 228.337>
CounterMasks: 1 38
LayerCount: 2
Fore
SplineSet
320 528 m 1
 384 528 l 1
 384 400.001953125 l 1
 320 400.001953125 l 1
 320 528 l 1
215.87890625 500.845703125 m 1
 278.3828125 389.146484375 l 1
 222.53125 357.89453125 l 1
 160.029296875 469.59375 l 1
 215.87890625 500.845703125 l 1
488.159179688 500.845703125 m 1
 544.010742188 469.59375 l 1
 481.505859375 357.89453125 l 1
 425.65625 389.146484375 l 1
 488.159179688 500.845703125 l 1
352 352 m 0
 449.203125 352 528 273.202148438 528 176 c 2
 528 0 l 1
 464 0 l 1
 464 176 l 2
 464 237.85546875 413.856445312 288 352 288 c 0
 290.14453125 288 240 237.85546875 240 176 c 2
 240 4.478515625 l 2
 239.999023438 2.9970703125 240 1.50390625 240 0 c 1
 176 0 l 1
 79.994140625 128.0078125 l 1
 131.201171875 166.396484375 l 1
 176 106.673828125 l 1
 176 176 l 2
 176 273.202148438 254.797851562 352 352 352 c 0
EndSplineSet
LCarets2: 3 -48 -48 -48
MultipleSubs2: "CCMP cartouches" t.pana cart.body
Ligature2: "LIGA basics" p a n a
EndChar

StartChar: t.pi
Encoding: 65614 989517 79
GlifName: t.pi
Width: 640
GlyphClass: 1
Flags: HW
HStem: 0 64<160 576> 492 20G<96 160> 492 20G<96 160>
VStem: 96 64<64 512>
LayerCount: 2
Fore
SplineSet
96 512 m 1xd0
 160 512 l 1
 160 64 l 1
 576 64 l 1
 576 0 l 1
 96 0 l 1
 96 512 l 1xd0
EndSplineSet
LCarets2: 1 -48
MultipleSubs2: "CCMP cartouches" t.pi cart.body
Ligature2: "LIGA basics" p i
EndChar

StartChar: t.pilin
Encoding: 65615 989518 80
GlifName: t.pilin
Width: 640
GlyphClass: 1
Flags: HW
HStem: 448 64<153.685 239.179 400.822 486.316>
VStem: 48 64<312.931 406.316> 528 64<312.931 406.315>
LayerCount: 2
Fore
SplineSet
200.000976562 512 m 0
 246.916992188 512 296.000976562 480 320.000976562 432 c 1
 344.000976562 480 393.083984375 511.999023438 440.000976562 512 c 0
 523.948242188 511.999023438 592 443.947265625 592 360 c 0
 592 322.459960938 578.390625 288.100585938 555.837890625 261.58203125 c 2
 320.000976562 -16 l 1
 84.162109375 261.58203125 l 2
 61.609375 288.100585938 48 322.459960938 48 360 c 0
 48 443.947265625 116.052734375 512 200.000976562 512 c 0
200.000976562 448 m 0
 151.399414062 448 112 408.600585938 112 360 c 0
 112 338.266601562 119.87890625 318.374023438 132.935546875 303.021484375 c 2
 320.000976562 82.84765625 l 1
 507.064453125 303.021484375 l 2
 520.122070312 318.374023438 528 338.266601562 528 360 c 0
 528 408.600585938 488.6015625 448 440.000976562 448 c 0
 391.399414062 448 352 384 320.000976562 336 c 1
 288 384 248.6015625 448 200.000976562 448 c 0
EndSplineSet
LCarets2: 4 -48 -48 -48 -48
MultipleSubs2: "CCMP cartouches" t.pilin cart.body
Ligature2: "LIGA basics" p i l i n
EndChar

StartChar: t.pimeja
Encoding: 65616 989519 81
GlifName: t.pimeja
Width: 640
GlyphClass: 1
Flags: HW
HStem: 0 64.002<151.553 162.736 253.247 386.745 477.246 488.447>
LayerCount: 2
Fore
SplineSet
379.87890625 281.1328125 m 1
 320 400.888671875 l 1
 260.1171875 281.125976562 l 1
 319.994140625 221.244140625 l 1
 379.87890625 281.1328125 l 1
477.24609375 64.001953125 m 1
 488.447265625 64.001953125 l 1
 410.0390625 220.814453125 l 1
 365.2265625 176.009765625 l 1
 477.24609375 64.001953125 l 1
253.247070312 64.001953125 m 1
 386.745117188 64.001953125 l 1
 319.994140625 130.75390625 l 1
 253.247070312 64.001953125 l 1
229.951171875 220.794921875 m 1
 151.552734375 64.001953125 l 1
 162.736328125 64.001953125 l 1
 274.736328125 176.009765625 l 1
 229.951171875 220.794921875 l 1
320 544 m 1
 592 0 l 1
 48 0 l 1
 320 544 l 1
EndSplineSet
LCarets2: 5 -48 -48 -48 -48 -48
MultipleSubs2: "CCMP cartouches" t.pimeja cart.body
Ligature2: "LIGA basics" p i m e j a
EndChar

StartChar: t.pini
Encoding: 65617 989520 82
GlifName: t.pini
Width: 640
GlyphClass: 1
Flags: HW
HStem: 0 64<160 287.973 351.973 480> 448 64<160 287.973 351.973 480>
VStem: 287.973 64<64 447.977>
LayerCount: 2
Fore
SplineSet
480 448 m 1
 351.97265625 447.9765625 l 1
 351.97265625 64 l 1
 480 64 l 1
 480 0 l 1
 160 0 l 1
 160 64 l 1
 287.97265625 64 l 1
 287.97265625 447.9765625 l 1
 160 448 l 1
 160 512 l 1
 480 512 l 1
 480 448 l 1
EndSplineSet
MultipleSubs2: "CCMP cartouches" t.pini cart.body
Ligature2: "LIGA basics" p i n i
EndChar

StartChar: t.pipi
Encoding: 65618 989521 83
GlifName: t.pipi
Width: 640
GlyphClass: 1
Flags: HW
HStem: 64.0098 64<159.996 287.968 351.968 479.996> 192.012 64<159.996 287.968 351.968 479.996> 320.014 64<159.996 287.968 351.968 479.996> 464 80<185.734 246.226 393.727 454.218>
VStem: 175.98 80<473.754 534.246> 287.968 64<-16 64.0098 128.01 192.012 256.012 320.014 384.014 464> 383.973 80<473.754 534.246>
LayerCount: 2
Fore
SplineSet
175.98046875 504 m 0
 175.98046875 526.091796875 193.888671875 544 215.98046875 544 c 0
 238.071289062 544 255.98046875 526.091796875 255.98046875 504 c 0
 255.98046875 481.908203125 238.071289062 464 215.98046875 464 c 0
 193.888671875 464 175.98046875 481.908203125 175.98046875 504 c 0
383.97265625 504 m 0
 383.97265625 526.091796875 401.880859375 544 423.97265625 544 c 0
 446.063476562 544 463.97265625 526.091796875 463.97265625 504 c 0
 463.97265625 481.908203125 446.063476562 464 423.97265625 464 c 0
 401.880859375 464 383.97265625 481.908203125 383.97265625 504 c 0
159.99609375 64.009765625 m 1
 159.99609375 128.009765625 l 1
 287.967773438 128.009765625 l 1
 287.967773438 192.01171875 l 1
 159.99609375 192.01171875 l 1
 159.99609375 256.01171875 l 1
 287.967773438 256.01171875 l 1
 287.967773438 320.013671875 l 1
 159.99609375 320.013671875 l 1
 159.99609375 384.013671875 l 1
 287.967773438 384.013671875 l 1
 287.967773438 464 l 1
 351.967773438 464 l 1
 351.967773438 384.013671875 l 1
 479.99609375 384.013671875 l 1
 479.99609375 320.013671875 l 1
 351.967773438 320.013671875 l 1
 351.967773438 256.01171875 l 1
 479.99609375 256.01171875 l 1
 479.99609375 192.01171875 l 1
 351.967773438 192.01171875 l 1
 351.967773438 128.009765625 l 1
 479.99609375 128.009765625 l 1
 479.99609375 64.009765625 l 1
 351.967773438 64.009765625 l 1
 351.967773438 -16 l 1
 287.967773438 -16 l 1
 287.967773438 64.009765625 l 1
 159.99609375 64.009765625 l 1
EndSplineSet
LCarets2: 3 -48 -48 -48
MultipleSubs2: "CCMP cartouches" t.pipi cart.body
Ligature2: "LIGA basics" p i p i
EndChar

StartChar: t.poka
Encoding: 65619 989522 84
GlifName: t.poka
Width: 640
GlyphClass: 1
Flags: HW
HStem: 127.983 64.0049<112.004 399.996> 208 96<510.057 577.939>
VStem: 48 64.0039<191.988 384> 399.996 64.0039<191.988 384> 495.998 96<222.059 289.941>
LayerCount: 2
Fore
SplineSet
48 384 m 1
 112.00390625 384 l 1
 112.00390625 191.98828125 l 1
 399.99609375 191.98828125 l 1
 399.99609375 384 l 1
 464 384 l 1
 464 127.983398438 l 1
 48 127.983398438 l 1
 48 384 l 1
495.998046875 256 m 0
 495.998046875 282.509765625 517.489257812 304 543.998046875 304 c 0
 570.5078125 304 591.998046875 282.509765625 591.998046875 256 c 0
 591.998046875 229.490234375 570.5078125 208 543.998046875 208 c 0
 517.489257812 208 495.998046875 229.490234375 495.998046875 256 c 0
EndSplineSet
LCarets2: 3 -48 -48 -48
MultipleSubs2: "CCMP cartouches" t.poka cart.body
Ligature2: "LIGA basics" p o k a
EndChar

StartChar: t.poki
Encoding: 65620 989523 85
GlifName: t.poki
Width: 640
GlyphClass: 1
Flags: HW
HStem: 0 63.9961<175.991 464.004> 492 20G<112.012 175.991 464.004 528.008> 492 20G<112.012 175.991 464.004 528.008>
VStem: 112.012 63.9795<63.9961 512> 464.004 64.0039<63.9932 511.998>
LayerCount: 2
Fore
SplineSet
112.01171875 512 m 1xd8
 175.991210938 512 l 1
 175.991210938 63.99609375 l 1
 464.00390625 63.9931640625 l 1
 464.00390625 511.998046875 l 1
 528.0078125 511.998046875 l 1
 528.0078125 -0.0107421875 l 1
 112.01171875 0 l 1
 112.01171875 512 l 1xd8
EndSplineSet
LCarets2: 3 -48 -48 -48
MultipleSubs2: "CCMP cartouches" t.poki cart.body
Ligature2: "LIGA basics" p o k i
EndChar

StartChar: t.pona
Encoding: 65621 989524 86
GlifName: t.pona
Width: 640
GlyphClass: 1
Flags: HW
HStem: 96 64<249.788 390.21>
VStem: 63.999 64<281.95 352> 511.999 64<281.95 352>
LayerCount: 2
Fore
SplineSet
319.999023438 96 m 0
 178.708984375 96 64 210.709960938 63.9990234375 352 c 1
 127.999023438 352 l 1
 127.999023438 246.032226562 214.03125 160 319.999023438 160 c 0
 425.966796875 160 511.999023438 246.032226562 511.999023438 352 c 1
 575.999023438 352 l 1
 575.999023438 210.709960938 461.2890625 96 319.999023438 96 c 0
EndSplineSet
LCarets2: 3 -48 -48 -48
MultipleSubs2: "CCMP cartouches" t.pona cart.body
Ligature2: "LIGA basics" p o n a
EndChar

StartChar: t.pu
Encoding: 65622 989525 87
GlifName: t.pu
Width: 640
GlyphClass: 1
Flags: HW
HStem: -0.00390625 64.0039<176 464.021> 72 48<275.646 364.354> 280 48<275.646 364.354> 352 80<296 344> 448 64.0039<176 464.021>
VStem: 111.996 64.0039<64 448> 192 48<155.646 244.354> 296 48<352 432> 400 48<155.646 244.354> 464.021 63.9805<64.0078 448.008>
LayerCount: 2
Fore
SplineSet
296 352 m 1
 296 432 l 1
 344 432 l 1
 344 352 l 1
 296 352 l 1
373.638671875 343.775390625 m 1
 414.864257812 412.334960938 l 1
 456 387.599609375 l 1
 414.774414062 319.040039062 l 1
 373.638671875 343.775390625 l 1
266.361328125 343.775390625 m 1
 225.225585938 319.040039062 l 1
 184 387.599609375 l 1
 225.135742188 412.334960938 l 1
 266.361328125 343.775390625 l 1
111.99609375 512.00390625 m 1
 528.001953125 512.01171875 l 1
 528.001953125 0.00390625 l 1
 111.99609375 -0.00390625 l 1
 111.99609375 512.00390625 l 1
176 448 m 1
 176 64 l 1
 464.021484375 64.0078125 l 1
 464.021484375 448.0078125 l 1
 176 448 l 1
320 328 m 0
 390.645507812 328 448 270.645507812 448 200 c 0
 448 129.354492188 390.645507812 72 320 72 c 0
 249.35546875 72 192 129.354492188 192 200 c 0
 192 270.645507812 249.35546875 328 320 328 c 0
320 280 m 0
 275.846679688 280 240 244.153320312 240 200 c 0
 240 155.846679688 275.846679688 120 320 120 c 0
 364.153320312 120 400 155.846679688 400 200 c 0
 400 244.153320312 364.153320312 280 320 280 c 0
EndSplineSet
LCarets2: 1 -48
MultipleSubs2: "CCMP cartouches" t.pu cart.body
Ligature2: "LIGA basics" p u
EndChar

StartChar: t.sama
Encoding: 65623 989526 88
GlifName: t.sama
Width: 640
GlyphClass: 1
Flags: HW
HStem: 128 64<95.9912 544.011> 320 64<95.9902 544.01>
LayerCount: 2
Fore
SplineSet
95.990234375 384 m 1
 544.009765625 384 l 1
 544.009765625 320 l 1
 95.990234375 320 l 1
 95.990234375 384 l 1
95.9912109375 192 m 1
 544.010742188 192 l 1
 544.010742188 128 l 1
 95.9912109375 128 l 1
 95.9912109375 192 l 1
EndSplineSet
LCarets2: 3 -48 -48 -48
MultipleSubs2: "CCMP cartouches" t.sama cart.body
Ligature2: "LIGA basics" s a m a
EndChar

StartChar: t.seli
Encoding: 65624 989527 89
GlifName: t.seli
Width: 640
GlyphClass: 1
Flags: HW
HStem: 32 96<286.062 353.944>
VStem: 272.003 96<46.0588 113.941> 288 64<176 480>
LayerCount: 2
Fore
SplineSet
288 175.994140625 m 1xa0
 288 480 l 1
 352 480 l 1
 352 176 l 1
 288 175.994140625 l 1xa0
272.002929688 80 m 0xc0
 272.002929688 106.509765625 293.493164062 128 320.002929688 128 c 0
 346.512695312 128 368.002929688 106.509765625 368.002929688 80 c 0
 368.002929688 53.490234375 346.512695312 32 320.002929688 32 c 0
 293.493164062 32 272.002929688 53.490234375 272.002929688 80 c 0xc0
383.67578125 168.576171875 m 1
 518.654296875 440.973632812 l 1
 576 412.55859375 l 1
 441.022460938 140.16015625 l 1
 383.67578125 168.576171875 l 1
256.32421875 168.576171875 m 1
 198.977539062 140.16015625 l 1
 64 412.55859375 l 1
 121.345703125 440.973632812 l 1
 256.32421875 168.576171875 l 1
EndSplineSet
LCarets2: 3 -48 -48 -48
MultipleSubs2: "CCMP cartouches" t.seli cart.body
Ligature2: "LIGA basics" s e l i
EndChar

StartChar: t.selo
Encoding: 65625 989528 90
GlifName: t.selo
Width: 640
GlyphClass: 1
Flags: HW
HStem: 144 224<63.9873 127.991 175.982 239.986 399.996 463.977 511.991 575.995> 303.996 64.0039<127.991 175.982 239.986 399.996 463.977 511.991>
VStem: 63.9873 64.0039<144 303.996> 175.982 64.0039<144 303.996> 399.996 63.9805<144 303.996> 511.991 64.0039<144 303.996>
LayerCount: 2
Fore
SplineSet
63.9873046875 368 m 1xbc
 575.995117188 368 l 1
 575.995117188 144 l 1
 511.991210938 144 l 1xbc
 511.991210938 303.99609375 l 1
 463.9765625 303.99609375 l 1x7c
 463.9765625 144 l 1
 399.99609375 144 l 1xbc
 399.99609375 303.99609375 l 1
 239.986328125 303.99609375 l 1x7c
 239.986328125 144 l 1
 175.982421875 144 l 1xbc
 175.982421875 303.99609375 l 1
 127.991210938 303.99609375 l 1x7c
 127.991210938 144 l 1
 63.9873046875 144 l 1
 63.9873046875 368 l 1xbc
EndSplineSet
LCarets2: 3 -48 -48 -48
MultipleSubs2: "CCMP cartouches" t.selo cart.body
Ligature2: "LIGA basics" s e l o
EndChar

StartChar: t.seme
Encoding: 65626 989529 91
GlifName: t.seme
Width: 640
GlyphClass: 1
Flags: HW
HStem: -7.96094 96.0059<286.073 353.947> 207.974 64.0039<352.652 405.158> 448.001 64.0283<233.982 405.162>
VStem: 128.687 63.4727<373.777 405.852> 272.007 96.0059<6.11133 73.9783> 288.02 63.9805<152.001 207.346> 448.006 63.9805<314.78 405.133>
LayerCount: 2
Fore
SplineSet
280.013671875 512.029296875 m 2xf6
 359.982421875 511.95703125 l 2
 443.873046875 511.95703125 511.986328125 443.844726562 511.986328125 359.953125 c 0
 511.974609375 276.072265625 443.866210938 207.973632812 359.982421875 207.973632812 c 0
 355.581054688 207.963867188 352.009765625 204.392578125 352 199.991210938 c 2
 352 152.000976562 l 1
 288.01953125 152.000976562 l 1
 288.01953125 199.991210938 l 2
 288.02734375 239.71875 320.279296875 271.970703125 360.006835938 271.977539062 c 0
 408.57421875 271.978515625 448.005859375 311.409179688 448.005859375 359.977539062 c 2
 448.005859375 360.000976562 l 2
 448.005859375 408.569335938 408.575195312 448.000976562 360.006835938 448.000976562 c 2
 280.013671875 448.000976562 l 2
 233.150390625 447.999023438 194.79296875 411.217773438 192.159179688 365.008789062 c 1
 128.686523438 374.442382812 l 1
 136.028320312 451.51171875 201.03515625 512.029296875 280.013671875 512.029296875 c 2xf6
320.005859375 88.044921875 m 0
 346.509765625 88.044921875 368.012695312 66.5341796875 368.012695312 40.044921875 c 0
 368.0078125 13.544921875 346.506835938 -7.9560546875 320.022460938 -7.9609375 c 0
 293.497070312 -7.9609375 272.006835938 13.5673828125 272.006835938 40.0322265625 c 0xfa
 272.006835938 66.5380859375 293.515625 88.044921875 320.005859375 88.044921875 c 0
EndSplineSet
MultipleSubs2: "CCMP cartouches" t.seme cart.body
Ligature2: "LIGA basics" s e m e
EndChar

StartChar: t.sewi
Encoding: 65627 989530 92
GlifName: t.sewi
Width: 640
GlyphClass: 1
Flags: HW
HStem: -16 64<48.001 92.4342 198.073 249.8 325.996 378.182> 0 21G<511.997 576.001> 492.008 20G<511.997 576.001> 492.008 20G<511.997 576.001>
VStem: 128.001 64<83.2842 135.876 136 224> 256.001 64<53.9072 320> 384.001 64<53.9072 416> 511.997 64.0039<0 512.008>
LayerCount: 2
Fore
SplineSet
384.000976562 416 m 1x8f
 448.000976562 416 l 1
 448.000976562 80 l 2
 448.000976562 27.015625 404.984375 -16 352.000976562 -16 c 0
 327.443359375 -16 304.985351562 -6.74609375 288.000976562 8.4453125 c 1
 271.016601562 -6.74609375 248.557617188 -16 224.000976562 -16 c 0
 192.263671875 -16 164.150390625 -0.650390625 146.668945312 23.115234375 c 1
 120.892578125 -1.1328125 86.146484375 -16 48.0009765625 -16 c 1
 48.0009765625 48 l 1
 92.154296875 48 128.000976562 83.8466796875 128.000976562 128 c 0
 128.000976562 130.7265625 127.8671875 133.34375 127.600585938 136 c 1
 128.000976562 136 l 1
 128.000976562 224 l 1
 192.000976562 224 l 1
 192.000976562 80 l 2
 192.000976562 62.3388671875 206.33984375 48 224.000976562 48 c 0
 241.662109375 48 256.000976562 62.3388671875 256.000976562 80 c 2
 256.000976562 320 l 1
 320.000976562 320 l 1
 320.000976562 79.916015625 l 2
 320.046875 62.2939453125 334.368164062 48 352.000976562 48 c 0
 369.662109375 48 384.000976562 62.3388671875 384.000976562 80 c 2
 384.000976562 416 l 1x8f
511.997070312 512.0078125 m 1x6f
 576.000976562 512.0078125 l 1
 576.000976562 0 l 1
 511.997070312 0 l 1
 511.997070312 512.0078125 l 1x6f
EndSplineSet
LCarets2: 3 -48 -48 -48
MultipleSubs2: "CCMP cartouches" t.sewi cart.body
Ligature2: "LIGA basics" s e w i
EndChar

StartChar: t.sijelo
Encoding: 65628 989531 93
GlifName: t.sijelo
Width: 640
GlyphClass: 1
Flags: HW
HStem: 383.996 64.0039<144.005 288.013 351.993 495.997>
VStem: 80.001 64.0039<64 383.996> 288.013 63.9805<64 383.996> 495.997 64.0039<64 383.996>
LayerCount: 2
Fore
SplineSet
80.0009765625 448 m 1
 560.000976562 448 l 1
 560.000976562 64 l 1
 495.997070312 64 l 1
 495.997070312 383.99609375 l 1
 351.993164062 383.99609375 l 1
 351.993164062 64 l 1
 288.012695312 64 l 1
 288.012695312 383.99609375 l 1
 144.004882812 383.99609375 l 1
 144.004882812 64 l 1
 80.0009765625 64 l 1
 80.0009765625 448 l 1
EndSplineSet
LCarets2: 5 -48 -48 -48 -48 -48
MultipleSubs2: "CCMP cartouches" t.sijelo cart.body
Ligature2: "LIGA basics" s i j e l o
EndChar

StartChar: t.sike
Encoding: 65629 989532 94
GlifName: t.sike
Width: 640
GlyphClass: 1
Flags: HW
HStem: -15.9941 63.9795<247.039 392.948> 127.999 63.9805<281.239 358.778> 319.987 64.0039<281.238 358.78> 463.987 64.0039<247.037 392.95>
VStem: 48.0117 63.9795<183.033 328.942> 192.021 64.0039<217.215 294.756> 384.009 64.0039<217.211 294.759> 527.993 64.0039<183.031 328.944>
LayerCount: 2
Fore
SplineSet
335.990234375 400.008789062 m 0
 415.465820312 400.008789062 479.990234375 335.484375 479.990234375 256.008789062 c 0
 479.990234375 176.533203125 415.465820312 112.008789062 335.990234375 112.008789062 c 0
 256.514648438 112.008789062 191.990234375 176.533203125 191.990234375 256.008789062 c 0
 191.990234375 335.484375 256.514648438 400.008789062 335.990234375 400.008789062 c 0
335.990234375 336.008789062 m 0
 291.836914062 336.008789062 255.990234375 300.162109375 255.990234375 256.008789062 c 0
 255.990234375 211.85546875 291.836914062 176.008789062 335.990234375 176.008789062 c 0
 380.143554688 176.008789062 415.990234375 211.85546875 415.990234375 256.008789062 c 0
 415.990234375 300.162109375 380.143554688 336.008789062 335.990234375 336.008789062 c 0
335.98046875 528 m 0
 486.1015625 528 607.986328125 406.116210938 607.986328125 255.995117188 c 0
 607.975585938 105.8828125 486.095703125 -15.986328125 335.98046875 -15.986328125 c 0
 185.875 -15.9755859375 64.0107421875 105.889648438 64 255.995117188 c 0
 64 406.109375 185.869140625 527.989257812 335.98046875 528 c 0
335.98046875 463.99609375 m 0
 221.182617188 463.99609375 127.979492188 370.79296875 127.979492188 255.995117188 c 0
 127.979492188 141.196289062 221.182617188 47.994140625 335.98046875 47.994140625 c 0
 450.779296875 47.994140625 543.981445312 141.196289062 543.981445312 255.995117188 c 0
 543.981445312 370.79296875 450.779296875 463.99609375 335.98046875 463.99609375 c 0
EndSplineSet
LCarets2: 3 -48 -48 -48
MultipleSubs2: "CCMP cartouches" t.sike cart.body
Ligature2: "LIGA basics" s i k e
EndChar

StartChar: t.sin
Encoding: 65630 989533 95
GlifName: t.sin
Width: 640
GlyphClass: 1
Flags: HW
HStem: 159.999 64<63.999 255.995 384.007 575.999>
VStem: 288.001 64<256 447.992>
LayerCount: 2
Fore
SplineSet
63.9990234375 159.999023438 m 1
 63.9990234375 223.999023438 l 1
 255.995117188 223.999023438 l 1
 255.995117188 159.999023438 l 1
 63.9990234375 159.999023438 l 1
384.006835938 159.999023438 m 1
 384.006835938 223.999023438 l 1
 575.999023438 223.999023438 l 1
 575.999023438 159.999023438 l 1
 384.006835938 159.999023438 l 1
288.000976562 447.9921875 m 1
 352.000976562 447.9921875 l 1
 352.000976562 256 l 1
 288.000976562 256 l 1
 288.000976562 447.9921875 l 1
EndSplineSet
LCarets2: 2 -48 -48
MultipleSubs2: "CCMP cartouches" t.sin cart.body
Ligature2: "LIGA basics" s i n
EndChar

StartChar: t.sina
Encoding: 65631 989534 96
GlifName: t.sina
Width: 640
GlyphClass: 1
Flags: HW
HStem: 0 63.998<276.241 363.759> 224 64<275.381 363.759>
VStem: 176 64<100.241 186.339> 400.001 63.999<100.241 187.759>
LayerCount: 2
Fore
SplineSet
464 144 m 0
 464 64.5244140625 399.4765625 0 320 0 c 0
 240.524414062 0 176 64.5244140625 176 144 c 0
 176.000976562 286.7890625 235.627929688 423.08984375 340.489257812 520.00390625 c 1
 383.927734375 473.00390625 l 1
 325.017578125 418.557617188 282.421875 349.905273438 259.4765625 274.6640625 c 1
 277.848632812 283.173828125 298.4375 288 320 288 c 0
 399.4765625 288 464 223.475585938 464 144 c 0
400.000976562 144 m 0
 400.000976562 188.153320312 364.153320312 224 320 224 c 0
 275.84765625 224 240 188.153320312 240 144 c 0
 240 99.8466796875 275.846679688 63.998046875 320 63.998046875 c 0
 364.153320312 63.998046875 400.000976562 99.8466796875 400.000976562 144 c 0
EndSplineSet
LCarets2: 3 0 0 0
MultipleSubs2: "CCMP cartouches" t.sina cart.body
Ligature2: "LIGA basics" s i n a
EndChar

StartChar: t.sinpin
Encoding: 65632 989535 97
GlifName: t.sinpin
Width: 640
GlyphClass: 1
Flags: HW
HStem: -0.0078125 64.0039<144.001 320.001> 207.997 96<430.055 497.937> 447.996 64.0039<144.001 320.001>
VStem: 320.001 64<64 448> 415.996 96<222.056 289.938>
LayerCount: 2
Fore
SplineSet
144.000976562 512 m 1
 384.000976562 512.0078125 l 1
 384.000976562 0 l 1
 144.000976562 -0.0078125 l 1
 144.000976562 63.99609375 l 1
 320.000976562 64 l 1
 320.000976562 448 l 1
 144.000976562 447.99609375 l 1
 144.000976562 512 l 1
511.99609375 255.997070312 m 0
 511.99609375 229.487304688 490.505859375 207.997070312 463.99609375 207.997070312 c 0
 437.486328125 207.997070312 415.99609375 229.487304688 415.99609375 255.997070312 c 0
 415.99609375 282.506835938 437.486328125 303.997070312 463.99609375 303.997070312 c 0
 490.505859375 303.997070312 511.99609375 282.506835938 511.99609375 255.997070312 c 0
EndSplineSet
LCarets2: 5 -48 -48 -48 -48 -48
MultipleSubs2: "CCMP cartouches" t.sinpin cart.body
Ligature2: "LIGA basics" s i n p i n
EndChar

StartChar: t.sitelen
Encoding: 65633 989536 98
GlifName: t.sitelen
Width: 640
GlyphClass: 1
Flags: HW
HStem: -0.00976562 64.0039<159.994 479.99> 215.998 80<193.744 254.236 289.744 350.236 385.744 446.236> 447.997 64.001<159.991 479.99>
VStem: 95.9902 64.0039<63.9941 447.997> 183.99 80<225.752 286.244> 279.99 80<225.751 286.243> 375.99 80<225.752 286.244> 479.99 64<63.9971 447.998>
LayerCount: 2
Fore
SplineSet
95.990234375 511.998046875 m 1
 543.990234375 512.005859375 l 1
 543.990234375 -0.0029296875 l 1
 95.990234375 -0.009765625 l 1
 95.990234375 511.998046875 l 1
159.991210938 447.997070312 m 1
 159.994140625 63.994140625 l 1
 479.990234375 63.9970703125 l 1
 479.990234375 447.998046875 l 1
 159.991210938 447.997070312 l 1
183.990234375 255.998046875 m 0
 183.990234375 278.088867188 201.8984375 295.998046875 223.990234375 295.998046875 c 0
 246.081054688 295.998046875 263.990234375 278.088867188 263.990234375 255.998046875 c 0
 263.990234375 233.90625 246.081054688 215.998046875 223.990234375 215.998046875 c 0
 201.8984375 215.998046875 183.990234375 233.90625 183.990234375 255.998046875 c 0
279.990234375 255.997070312 m 0
 279.990234375 278.088867188 297.8984375 295.997070312 319.990234375 295.997070312 c 0
 342.08203125 295.997070312 359.990234375 278.088867188 359.990234375 255.997070312 c 0
 359.990234375 233.90625 342.08203125 215.997070312 319.990234375 215.997070312 c 0
 297.8984375 215.997070312 279.990234375 233.90625 279.990234375 255.997070312 c 0
375.990234375 255.998046875 m 0
 375.990234375 278.088867188 393.8984375 295.998046875 415.990234375 295.998046875 c 0
 438.08203125 295.998046875 455.990234375 278.088867188 455.990234375 255.998046875 c 0
 455.990234375 233.90625 438.08203125 215.998046875 415.990234375 215.998046875 c 0
 393.8984375 215.998046875 375.990234375 233.90625 375.990234375 255.998046875 c 0
EndSplineSet
LCarets2: 6 -48 -48 -48 -48 -48 -48
MultipleSubs2: "CCMP cartouches" t.sitelen cart.body
Ligature2: "LIGA basics" s i t e l e n
EndChar

StartChar: t.sona
Encoding: 65634 989537 99
GlifName: t.sona
Width: 640
GlyphClass: 1
Flags: HW
HStem: -0.0136719 64.0127<224.001 416.001> 272 64<224.001 416.001>
VStem: 160.001 64<63.999 272> 288 64<400.002 528> 416.001 64<63.9912 271.992>
LayerCount: 2
Fore
SplineSet
160 336 m 1
 480.000976562 336 l 1
 480.000976562 -0.013671875 l 1
 160.000976562 -0.013671875 l 1
 160 336 l 1
224.000976562 272 m 1
 224.000976562 63.9990234375 l 1
 416.000976562 63.9912109375 l 1
 416.000976562 271.9921875 l 1
 224.000976562 272 l 1
288 400.001953125 m 1
 288 528 l 1
 352 528 l 1
 352 400.001953125 l 1
 288 400.001953125 l 1
393.655273438 389.146484375 m 1
 456.159179688 500.846679688 l 1
 512.009765625 469.594726562 l 1
 449.506835938 357.89453125 l 1
 393.655273438 389.146484375 l 1
246.383789062 389.146484375 m 1
 190.533203125 357.89453125 l 1
 128.029296875 469.594726562 l 1
 183.879882812 500.846679688 l 1
 246.383789062 389.146484375 l 1
EndSplineSet
LCarets2: 3 -48 -48 -48
MultipleSubs2: "CCMP cartouches" t.sona cart.body
Ligature2: "LIGA basics" s o n a
EndChar

StartChar: t.soweli
Encoding: 65635 989538 100
GlifName: t.soweli
Width: 640
GlyphClass: 1
Flags: HW
HStem: -0.0078125 191.988<47.9873 111.991 160.006 223.986 272.001 336.005 384.021 446.901> 256 96<270.059 337.941> 288 96<398.059 465.941> 447.996 64.0049<47.9873 457.079>
VStem: 47.9873 64.0039<-0.0078125 191.98> 160.006 63.9805<-0.0078125 191.98> 256 96<270.059 337.941> 272.001 64.0039<-0.0078125 191.98> 384 96<302.059 369.941> 384.021 64.0039<-0.0078125 137.451> 527.993 64.0283<262.766 377.65>
LayerCount: 2
Fore
SplineSet
47.9873046875 512.000976562 m 1x9c60
 400.008789062 512.000976562 l 2
 505.9765625 512.000976562 592.021484375 425.956054688 592.021484375 319.98828125 c 0
 592.016601562 230.625 530.754882812 155.458984375 448.024414062 134.096679688 c 1
 448.024414062 -0.0078125 l 1
 384.020507812 -0.0078125 l 1
 384.020507812 191.98046875 l 1
 399.985351562 191.98046875 l 2
 470.629882812 191.98046875 527.993164062 249.34375 527.993164062 319.98828125 c 0
 527.993164062 390.633789062 470.629882812 447.99609375 399.985351562 447.99609375 c 2
 47.9873046875 447.99609375 l 1
 47.9873046875 512.000976562 l 1x9c60
47.9873046875 191.98046875 m 1
 111.991210938 191.98046875 l 1
 111.991210938 -0.0078125 l 1
 47.9873046875 -0.0078125 l 1
 47.9873046875 191.98046875 l 1
160.005859375 191.98046875 m 1
 223.986328125 191.98046875 l 1
 223.986328125 -0.0078125 l 1
 160.005859375 -0.0078125 l 1
 160.005859375 191.98046875 l 1
272.000976562 191.98046875 m 1x9d20
 336.004882812 191.98046875 l 1
 336.004882812 -0.0078125 l 1
 272.000976562 -0.0078125 l 1
 272.000976562 191.98046875 l 1x9d20
256 304 m 0xde20
 256 330.509765625 277.490234375 352 304 352 c 0
 330.509765625 352 352 330.509765625 352 304 c 0
 352 277.490234375 330.509765625 256 304 256 c 0
 277.490234375 256 256 277.490234375 256 304 c 0xde20
384 336 m 0xbca0
 384 362.509765625 405.490234375 384 432 384 c 0
 458.509765625 384 480 362.509765625 480 336 c 0
 480 309.490234375 458.509765625 288 432 288 c 0
 405.490234375 288 384 309.490234375 384 336 c 0xbca0
EndSplineSet
LCarets2: 5 -48 -48 -48 -48 -48
MultipleSubs2: "CCMP cartouches" t.soweli cart.body
Ligature2: "LIGA basics" s o w e l i
EndChar

StartChar: t.suli
Encoding: 65636 989539 101
GlifName: t.suli
Width: 640
GlyphClass: 1
Flags: HW
HStem: -0.000976562 21G<279.246 360.749> 492 20G<64 142.607 497.376 575.983> 492 20G<64 142.607 497.376 575.983>
LayerCount: 2
Fore
SplineSet
122.311523438 525.0703125 m 1
 208.837890625 410.357421875 275.579101562 280.958007812 319.999023438 144.3125 c 1
 364.418945312 280.958007812 431.16015625 410.357421875 517.686523438 525.0703125 c 1
 575.450195312 495.28515625 l 1
 463.72265625 349.974609375 385.745117188 179.185546875 347.334960938 0.001953125 c 1
 292.663085938 0.001953125 l 1
 254.252929688 179.185546875 176.275390625 349.974609375 64.5478515625 495.28515625 c 1
 122.311523438 525.0703125 l 1
EndSplineSet
LCarets2: 3 0 0 0
MultipleSubs2: "CCMP cartouches" t.suli cart.body
Ligature2: "LIGA basics" s u l i
EndChar

StartChar: t.suno
Encoding: 65637 989540 102
GlifName: t.suno
Width: 640
GlyphClass: 1
Flags: HW
HStem: -0.0146484 160.011<289.222 350.769> 223.976 64.0039<64.0039 166.467 473.923 575.987> 351.983 160.011<289.218 350.772>
VStem: 64.0039 159.985<225.206 286.755> 287.993 64.0039<-0.0146484 102.451 409.926 511.994> 416.001 159.986<225.206 286.755>
LayerCount: 2
Fore
SplineSet
287.993164062 511.994140625 m 1
 351.997070312 511.994140625 l 1
 351.997070312 412.74609375 l 1
 414.543945312 399.96875 463.973632812 350.53125 476.740234375 287.979492188 c 1
 575.987304688 287.979492188 l 1
 575.987304688 223.975585938 l 1
 476.352539062 223.975585938 l 1
 463.498046875 161.692382812 414.280273438 112.475585938 351.997070312 99.6201171875 c 1
 351.997070312 -0.0146484375 l 1
 287.993164062 -0.0146484375 l 1
 287.993164062 99.6201171875 l 1
 225.709960938 112.475585938 176.493164062 161.692382812 163.637695312 223.975585938 c 1
 64.00390625 223.975585938 l 1
 64.00390625 287.979492188 l 1
 163.637695312 287.979492188 l 1
 176.484375 350.2734375 225.704101562 399.500976562 287.993164062 412.359375 c 1
 287.993164062 511.994140625 l 1
319.995117188 351.983398438 m 0
 267.01171875 351.983398438 223.989257812 308.961914062 223.989257812 255.977539062 c 0
 223.999023438 203.001953125 267.017578125 159.99609375 319.995117188 159.99609375 c 0
 372.97265625 159.99609375 415.991210938 203.001953125 416.000976562 255.977539062 c 0
 416.000976562 308.961914062 372.979492188 351.983398438 319.995117188 351.983398438 c 0
EndSplineSet
LCarets2: 3 -48 -48 -48
MultipleSubs2: "CCMP cartouches" t.suno cart.body
Ligature2: "LIGA basics" s u n o
EndChar

StartChar: t.supa
Encoding: 65638 989541 103
GlifName: t.supa
Width: 640
GlyphClass: 1
Flags: HW
HStem: 287.996 64.0039<48 144.006 208.011 431.99 495.994 592>
VStem: 144.005 64.0039<128 287.996> 431.988 64.0039<128.004 288>
LayerCount: 2
Fore
SplineSet
48 352 m 1
 592 352.00390625 l 1
 592 288 l 1
 495.994140625 288 l 1
 495.9921875 128.00390625 l 1
 431.98828125 128.00390625 l 1
 431.990234375 288 l 1
 208.010742188 287.99609375 l 1
 208.008789062 128 l 1
 144.004882812 128 l 1
 144.005859375 287.99609375 l 1
 48 287.99609375 l 1
 48 352 l 1
EndSplineSet
LCarets2: 3 -48 -48 -48
MultipleSubs2: "CCMP cartouches" t.supa cart.body
Ligature2: "LIGA basics" s u p a
EndChar

StartChar: t.suwi
Encoding: 65639 989542 104
GlifName: t.suwi
Width: 640
GlyphClass: 1
Flags: HW
HStem: 55.9902 96<286.049 353.931>
VStem: 271.99 96<70.0491 137.931>
LayerCount: 2
Fore
SplineSet
271.990234375 103.990234375 m 0
 271.990234375 130.5 293.48046875 151.990234375 319.990234375 151.990234375 c 0
 346.5 151.990234375 367.990234375 130.5 367.990234375 103.990234375 c 0
 367.990234375 77.48046875 346.5 55.990234375 319.990234375 55.990234375 c 0
 293.48046875 55.990234375 271.990234375 77.48046875 271.990234375 103.990234375 c 0
448.000976562 416 m 1
 512.000976562 416 l 1
 608.000976562 224 l 1
 536.447265625 224 l 1
 480 336.890625 l 1
 423.5546875 224 l 1
 352.000976562 224 l 1
 448.000976562 416 l 1
128.000976562 416 m 1
 192 416 l 1
 288 224 l 1
 216.447265625 224 l 1
 160 336.890625 l 1
 103.5546875 224 l 1
 32.0009765625 224 l 1
 128.000976562 416 l 1
EndSplineSet
LCarets2: 3 -48 -48 -48
MultipleSubs2: "CCMP cartouches" t.suwi cart.body
Ligature2: "LIGA basics" s u w i
EndChar

StartChar: t.tan
Encoding: 65640 989543 105
GlifName: t.tan
Width: 640
GlyphClass: 1
Flags: HW
HStem: 384 64<306.199 429.801>
VStem: 144 64.002<192.002 285.323> 528 64<159.033 285.801>
LayerCount: 2
Fore
SplineSet
368 448 m 0
 491.711914062 448 592 347.711914062 592 224 c 0
 592 185.017578125 581.827148438 146.7109375 562.486328125 112.865234375 c 1
 506.91796875 144.6171875 l 1
 520.733398438 168.79296875 528 196.155273438 528 224 c 0
 528 312.365234375 456.365234375 384 368 384 c 0
 279.634765625 384 208 312.365234375 208 224 c 2
 208.001953125 192.001953125 l 1
 288.009765625 288.015625 l 1
 336 240 l 1
 176 80 l 1
 16 240 l 1
 63.990234375 288.015625 l 1
 144 192 l 1
 144 224 l 2
 144 347.711914062 244.288085938 448 368 448 c 0
EndSplineSet
LCarets2: 2 -48 -48
MultipleSubs2: "CCMP cartouches" t.tan cart.body
Ligature2: "LIGA basics" t a n
EndChar

StartChar: t.taso
Encoding: 65641 989544 106
GlifName: t.taso
Width: 640
GlyphClass: 1
Flags: HW
HStem: 0 21G<352.008 416.012> 223.99 64.0039<191.998 352.008> 491.984 20G<352.008 416.012> 491.984 20G<352.008 416.012>
VStem: 352.008 64.0039<0 223.99 287.994 511.984>
LayerCount: 2
Fore
SplineSet
352.0078125 511.984375 m 1xe8
 416.01171875 511.984375 l 1
 416.01171875 0 l 1
 352.0078125 0 l 1
 352.0078125 223.990234375 l 1
 191.998046875 223.990234375 l 1
 191.998046875 287.994140625 l 1
 352.0078125 287.994140625 l 1
 352.0078125 511.984375 l 1xe8
EndSplineSet
LCarets2: 3 -48 -48 -48
MultipleSubs2: "CCMP cartouches" t.taso cart.body
Ligature2: "LIGA basics" t a s o
EndChar

StartChar: t.tawa
Encoding: 65642 989545 107
GlifName: t.tawa
Width: 640
GlyphClass: 1
Flags: HW
HStem: -184.001 64.0039<607.954 735.962>
VStem: 543.998 63.9561<-119.997 221.302>
LayerCount: 2
Fore
SplineSet
256 512 m 1
 256.001953125 512 l 1
 320 512 l 1
 442.451171875 77.3359375 l 1
 560.681640625 123.599609375 l 1
 584.00390625 64.001953125 l 1
 400.001953125 -8 l 1
 281.591796875 412.326171875 l 1
 141.78515625 99.158203125 l 1
 263.32421875 51.599609375 l 1
 240.001953125 -8 l 1
 56 64 l 1
 256 511.99609375 l 1
 256 512 l 1
EndSplineSet
LCarets2: 3 0 0 0
MultipleSubs2: "CCMP cartouches" t.tawa cart.body
Ligature2: "LIGA basics" t a w a
EndChar

StartChar: t.telo
Encoding: 65643 989546 108
GlifName: t.telo
Width: 640
GlyphClass: 1
Flags: HW
HStem: 45.9688 64<159.322 256.158> 178.031 64<383.836 480.679> 269.969 64<159.322 256.158> 402.031 64<384.429 479.58>
VStem: 48.001 64<158.39 205.969 382.39 429.969> 527.999 64<82.0312 129.61 306.031 353.61>
LayerCount: 2
Fore
SplineSet
112.000976562 429.96875 m 1
 112.000976562 376.950195312 154.982421875 333.96875 208.000976562 333.96875 c 0
 242.924804688 333.96875 275.09375 352.934570312 292.000976562 383.4921875 c 0
 320.16796875 434.401367188 373.768554688 466.03125 432.000976562 466.03125 c 0
 520.365234375 466.03125 592 394.396484375 591.999023438 306.03125 c 1
 527.999023438 306.03125 l 1
 527.999023438 359.05078125 485.018554688 402.032226562 431.999023438 402.03125 c 0
 397.075195312 402.032226562 364.90625 383.06640625 347.999023438 352.5078125 c 0
 319.8203125 301.579101562 266.20703125 269.969726562 208.000976562 269.96875 c 0
 119.635742188 269.96875 48.0009765625 341.603515625 48.0009765625 429.96875 c 1
 112.000976562 429.96875 l 1
527.999023438 82.03125 m 1
 527.999023438 135.05078125 485.018554688 178.03125 431.999023438 178.03125 c 0
 397.075195312 178.03125 364.90625 159.06640625 347.999023438 128.5078125 c 0
 319.8203125 77.578125 266.20703125 45.9697265625 208.000976562 45.96875 c 0
 119.635742188 45.96875 48.0009765625 117.603515625 48.0009765625 205.96875 c 1
 112.000976562 205.96875 l 1
 112.000976562 152.94921875 154.982421875 109.96875 208.000976562 109.96875 c 0
 242.924804688 109.96875 275.09375 128.934570312 292.000976562 159.4921875 c 0
 320.16796875 210.401367188 373.768554688 242.03125 432.000976562 242.03125 c 0
 520.365234375 242.03125 592 170.396484375 591.999023438 82.03125 c 1
 527.999023438 82.03125 l 1
EndSplineSet
LCarets2: 3 -48 -48 -48
MultipleSubs2: "CCMP cartouches" t.telo cart.body
Ligature2: "LIGA basics" t e l o
EndChar

StartChar: t.tenpo
Encoding: 65644 989547 109
GlifName: t.tenpo
Width: 640
GlyphClass: 1
Flags: HW
HStem: -16 64<247.043 392.957> 224.001 64<287.968 287.99 351.99 448.001> 464 64<247.043 392.957>
VStem: 48 64<183.043 328.957> 287.99 64<288.001 432> 528 64<183.043 328.957>
LayerCount: 2
Fore
SplineSet
351.990234375 288.000976562 m 1
 448.000976562 288.000976562 l 1
 448.000976562 224.000976562 l 1
 287.967773438 224.000976562 l 1
 287.967773438 288.000976562 l 1
 287.990234375 288.000976562 l 1
 287.990234375 432 l 1
 351.990234375 432 l 1
 351.990234375 288.000976562 l 1
320 528 m 0
 470.12109375 528 592 406.12109375 592 256 c 0
 592 105.87890625 470.12109375 -16 320 -16 c 0
 169.87890625 -16 48 105.87890625 48 256 c 0
 48 406.12109375 169.87890625 528 320 528 c 0
320 464 m 0
 205.202148438 464 112 370.798828125 112 256 c 0
 112 141.202148438 205.202148438 48 320 48 c 0
 434.798828125 48 528 141.202148438 528 256 c 0
 528 370.797851562 434.798828125 464 320 464 c 0
EndSplineSet
LCarets2: 4 -48 -48 -48 -48
MultipleSubs2: "CCMP cartouches" t.tenpo cart.body
Ligature2: "LIGA basics" t e n p o
EndChar

StartChar: t.toki
Encoding: 65645 989548 110
GlifName: t.toki
Width: 640
GlyphClass: 1
Flags: HW
HStem: -16 64<262.34 377.66> 304 64<262.34 377.66>
VStem: 128 64<118.34 233.66> 287.99 64<400.002 528> 448 64<118.34 233.66>
LayerCount: 2
Fore
SplineSet
287.990234375 400.001953125 m 1
 287.990234375 528 l 1
 351.990234375 528 l 1
 351.990234375 400.001953125 l 1
 287.990234375 400.001953125 l 1
393.645507812 389.146484375 m 1
 456.149414062 500.846679688 l 1
 512 469.59375 l 1
 449.497070312 357.89453125 l 1
 393.645507812 389.146484375 l 1
246.373046875 389.146484375 m 1
 190.522460938 357.89453125 l 1
 128.01953125 469.59375 l 1
 183.870117188 500.846679688 l 1
 246.373046875 389.146484375 l 1
320 368 m 0
 425.967773438 368 512 281.967773438 512 176 c 0
 512 70.0322265625 425.967773438 -16 320 -16 c 0
 214.032226562 -16 128 70.0322265625 128 176 c 0
 128 281.967773438 214.032226562 368 320 368 c 0
320 304 m 0
 249.35546875 304 192 246.64453125 192 176 c 0
 192 105.354492188 249.35546875 48 320 48 c 0
 390.645507812 48 448 105.354492188 448 176 c 0
 448 246.64453125 390.645507812 304 320 304 c 0
EndSplineSet
LCarets2: 3 -48 -48 -48
MultipleSubs2: "CCMP cartouches" t.toki cart.body
Ligature2: "LIGA basics" t o k i
EndChar

StartChar: t.tomo
Encoding: 65646 989549 111
GlifName: t.tomo
Width: 640
GlyphClass: 1
Flags: HW
HStem: 0 64.0039<128.004 511.996> 492 20G<297.143 342.857> 492 20G<297.143 342.857>
VStem: 64 64.0039<64.0039 258.961> 511.996 64.0039<64.0039 258.961>
LayerCount: 2
Fore
SplineSet
320 512 m 1xd8
 576 288 l 1
 576 0 l 1
 64 0 l 1
 64 288 l 1
 320 512 l 1xd8
320 426.958984375 m 1
 128.00390625 258.9609375 l 1
 128.00390625 64.00390625 l 1
 511.99609375 64.00390625 l 1
 511.99609375 258.9609375 l 1
 320 426.958984375 l 1
EndSplineSet
LCarets2: 3 -48 -48 -48
MultipleSubs2: "CCMP cartouches" t.tomo cart.body
Ligature2: "LIGA basics" t o m o
EndChar

StartChar: t.tu
Encoding: 65647 989550 112
GlifName: t.tu
Width: 640
GlyphClass: 1
Flags: HW
HStem: 0 21G<192 256 384 448> 492 20G<192 256 384 448> 492 20G<192 256 384 448>
VStem: 192 64<0 512> 384 64<0 512>
LayerCount: 2
Fore
SplineSet
192 0 m 1xd8
 192 512 l 1
 256 512 l 1
 256 0 l 1
 192 0 l 1xd8
384 0 m 1
 384 512 l 1
 448 512 l 1
 448 0 l 1
 384 0 l 1
EndSplineSet
LCarets2: 1 -48
MultipleSubs2: "CCMP cartouches" t.tu cart.body
Ligature2: "LIGA basics" t u
EndChar

StartChar: t.unpa
Encoding: 65648 989551 113
GlifName: t.unpa
Width: 640
GlyphClass: 1
Flags: HW
HStem: 0 64<276.241 363.759> 192 64<240 400> 448 64<159.339 255.498 384.502 480.66>
VStem: 48 64<302.778 400.66> 176 64<101.199 144 144.017 191.87 261.471 325.6> 400 64<101.199 192 261.469 325.599> 528 64<302.777 400.66>
LayerCount: 2
Fore
SplineSet
208 512 m 0
 248.059570312 512 286.22265625 502.631835938 320 486.197265625 c 1
 353.77734375 502.631835938 391.940429688 511.999023438 432 512 c 0
 520.305664062 512 592 440.306640625 592 352 c 0
 592 274.693359375 536.934570312 210.120117188 464 195.232421875 c 1
 464 144 l 2
 464 64.5244140625 399.475585938 0 320 0 c 0
 240.524414062 0 176 64.5244140625 176 144 c 2
 176 144 175.946289062 166.76953125 175.946289062 181.94921875 c 0
 175.946289062 189.5390625 175.959960938 195.231445312 176 195.232421875 c 1
 103.064453125 210.120117188 48 274.693359375 48 352 c 0
 48 440.306640625 119.693359375 512 208 512 c 0
208 448 m 0
 155.015625 448 112 404.983398438 112 352 c 0
 112 310.202148438 138.7421875 274.63671875 176.05859375 261.470703125 c 1
 177.575195312 332.4296875 207.953125 396.415039062 256 441.90234375 c 1
 240.633789062 445.870117188 224.59765625 448 208 448 c 0
432 448 m 0
 415.401367188 448 399.365234375 445.870117188 384 441.90234375 c 1
 432.046875 396.4140625 462.424804688 332.428710938 463.94140625 261.46875 c 1
 501.2578125 274.634765625 528 310.201171875 528 352 c 0
 528 404.983398438 484.983398438 448 432 448 c 0
320 411.94921875 m 1
 271.462890625 377.090820312 240 320.26171875 240 256 c 1
 400 256 l 1
 400 320.26171875 368.536132812 377.090820312 320 411.94921875 c 1
240 192 m 1
 240 144 l 2
 240 99.8466796875 275.846679688 64 320 64 c 0
 364.153320312 64 400 99.8466796875 400 144 c 2
 400 192 l 1
 240 192 l 1
EndSplineSet
LCarets2: 3 -48 -48 -48
MultipleSubs2: "CCMP cartouches" t.unpa cart.body
Ligature2: "LIGA basics" u n p a
EndChar

StartChar: t.uta
Encoding: 65649 989552 114
GlifName: t.uta
Width: 640
GlyphClass: 1
Flags: HW
HStem: 0 96<286.059 353.941> 128 64<249.264 390.736> 352 64<130.686 509.314>
VStem: 272 96<14.0588 81.9412>
LayerCount: 2
Fore
SplineSet
272 48 m 0
 272 74.509765625 293.490234375 96 320 96 c 0
 346.509765625 96 368 74.509765625 368 48 c 0
 368 21.490234375 346.509765625 0 320 0 c 0
 293.490234375 0 272 21.490234375 272 48 c 0
64 416 m 1
 576 416 l 1
 576 384 l 2
 576 242.709960938 461.290039062 128 320 128 c 0
 178.709960938 128 64 242.709960938 64 384 c 2
 64 416 l 1
130.685546875 352 m 1
 146.01171875 261.329101562 224.99609375 192 320 192 c 0
 415.00390625 192 493.98828125 261.329101562 509.314453125 352 c 1
 130.685546875 352 l 1
EndSplineSet
LCarets2: 2 -48 -48
MultipleSubs2: "CCMP cartouches" t.uta cart.body
Ligature2: "LIGA basics" u t a
EndChar

StartChar: t.utala
Encoding: 65650 989553 115
GlifName: t.utala
Width: 640
GlyphClass: 1
Flags: HW
HStem: 0 21G<178.672 206.673 433.334 461.335>
LayerCount: 2
Fore
SplineSet
492.38671875 517.836914062 m 1
 544.005859375 480.005859375 l 1
 359.6875 228.658203125 l 1
 445.5078125 111.631835938 l 1
 522.743164062 227.497070312 l 1
 576.0078125 191.98828125 l 1
 448 0 l 1
 320.00390625 174.54296875 l 1
 192.006835938 0 l 1
 63.9990234375 191.98828125 l 1
 117.263671875 227.497070312 l 1
 194.499023438 111.631835938 l 1
 280.319335938 228.658203125 l 1
 96.0009765625 480.005859375 l 1
 147.620117188 517.836914062 l 1
 320.00390625 282.771484375 l 1
 492.38671875 517.836914062 l 1
EndSplineSet
MultipleSubs2: "CCMP cartouches" t.utala cart.body
Ligature2: "LIGA basics" u t a l a
EndChar

StartChar: t.walo
Encoding: 65651 989554 116
GlifName: t.walo
Width: 640
GlyphClass: 1
Flags: HW
HStem: 0 64.002<151.553 488.447>
LayerCount: 2
Fore
SplineSet
200.819335938 305.637695312 m 1
 320 544 l 1
 439.153320312 305.693359375 l 1
 530.70703125 397.247070312 l 1
 575.9609375 351.9921875 l 1
 469.323242188 245.354492188 l 1
 592 0 l 1
 48 0 l 1
 170.649414062 245.298828125 l 1
 63.9599609375 351.987304688 l 1
 109.21484375 397.2421875 l 1
 200.819335938 305.637695312 l 1
320 400.888671875 m 1
 151.552734375 64.001953125 l 1
 488.447265625 64.001953125 l 1
 320 400.888671875 l 1
EndSplineSet
LCarets2: 3 -48 -48 -48
MultipleSubs2: "CCMP cartouches" t.walo cart.body
Ligature2: "LIGA basics" w a l o
EndChar

StartChar: t.wan
Encoding: 65652 989555 117
GlifName: t.wan
Width: 640
GlyphClass: 1
Flags: HW
HStem: 0 21G<319.994 383.999> 491.984 20G<299.991 383.999> 491.984 20G<299.991 383.999>
VStem: 319.994 64.0049<0 421.493>
LayerCount: 2
Fore
SplineSet
319.994140625 511.984375 m 1xd0
 383.999023438 511.984375 l 1
 383.999023438 0 l 1
 319.994140625 0 l 1
 319.994140625 421.493164062 l 1
 205.2421875 306.741210938 l 1
 159.984375 351.998046875 l 1
 319.994140625 511.984375 l 1xd0
EndSplineSet
LCarets2: 2 -48 -48
MultipleSubs2: "CCMP cartouches" t.wan cart.body
Ligature2: "LIGA basics" w a n
EndChar

StartChar: t.waso
Encoding: 65653 989556 118
GlifName: t.waso
Width: 640
GlyphClass: 1
Flags: HW
HStem: 127.988 63.9795<272.003 451.05> 232 96<110.06 177.942> 264 96<238.059 305.941>
VStem: 96.001 96<246.059 313.941> 207.999 64.0039<-16.0088 127.988> 224 96<278.059 345.941>
LayerCount: 2
Fore
SplineSet
527.970703125 191.967773438 m 1
 303.98046875 527.977539062 l 1025x90
224 312 m 0xb4
 224 338.509765625 245.490234375 360 272 360 c 0
 298.509765625 360 320 338.509765625 320 312 c 0
 320 285.490234375 298.509765625 264 272 264 c 0
 245.490234375 264 224 285.490234375 224 312 c 0xb4
96.0009765625 280 m 0
 96.0009765625 306.509765625 117.491210938 328 144.000976562 328 c 0
 170.510742188 328 192.000976562 306.509765625 192.000976562 280 c 0
 192.000976562 253.490234375 170.510742188 232 144.000976562 232 c 0xd0
 117.491210938 232 96.0009765625 253.490234375 96.0009765625 280 c 0
298.634765625 535.983398438 m 1
 527.995117188 191.967773438 l 1
 527.995117188 127.98828125 l 1
 272.002929688 127.98828125 l 1
 272.002929688 -16.0087890625 l 1
 207.999023438 -16.0087890625 l 1
 207.999023438 191.967773438 l 1x98
 256.013671875 191.967773438 l 1
 271.978515625 191.967773438 l 1
 451.049804688 191.967773438 l 1
 245.395507812 500.474609375 l 1
 298.634765625 535.983398438 l 1
EndSplineSet
LCarets2: 3 -48 -48 -48
MultipleSubs2: "CCMP cartouches" t.waso cart.body
Ligature2: "LIGA basics" w a s o
EndChar

StartChar: t.wawa
Encoding: 65654 989557 119
GlifName: t.wawa
Width: 640
GlyphClass: 1
Flags: HW
HStem: 64 64<271.339 368.66> 320 64<271.339 368.66>
VStem: 159.999 64<175.34 272.66> 415.999 64<175.34 272.66>
LayerCount: 2
Fore
SplineSet
31.37890625 451.106445312 m 1
 94.1357421875 463.658203125 l 1
 158.134765625 143.658203125 l 1
 95.3779296875 131.106445312 l 1
 31.37890625 451.106445312 l 1
608.619140625 451.106445312 m 1
 544.620117188 131.106445312 l 1
 481.86328125 143.658203125 l 1
 545.86328125 463.658203125 l 1
 608.619140625 451.106445312 l 1
319.999023438 384 m 0
 408.305664062 384 479.999023438 312.306640625 479.999023438 224 c 0
 479.999023438 135.693359375 408.305664062 64 319.999023438 64 c 0
 231.693359375 64 159.999023438 135.693359375 159.999023438 224 c 0
 159.999023438 312.306640625 231.693359375 384 319.999023438 384 c 0
319.999023438 320 m 0
 267.015625 320 223.999023438 276.983398438 223.999023438 224 c 0
 223.999023438 171.016601562 267.015625 128 319.999023438 128 c 0
 372.983398438 128 415.999023438 171.016601562 415.999023438 224 c 0
 415.999023438 276.983398438 372.983398438 320 319.999023438 320 c 0
EndSplineSet
LCarets2: 3 -48 -48 -48
MultipleSubs2: "CCMP cartouches" t.wawa cart.body
Ligature2: "LIGA basics" w a w a
EndChar

StartChar: t.weka
Encoding: 65655 989558 120
GlifName: t.weka
Width: 640
GlyphClass: 1
Flags: HW
HStem: 0 21G<89.2578 129.257 510.739 550.742> 492 20G<89.2578 129.254 510.741 550.742> 492 20G<89.2578 129.254 510.741 550.742>
LayerCount: 2
Fore
SplineSet
109.2578125 512 m 1xc0
 287.9765625 333.249023438 l 1
 242.71875 287.991210938 l 1
 64 466.7421875 l 1
 109.2578125 512 l 1xc0
530.7421875 512 m 1
 576 466.7421875 l 1
 397.23828125 287.991210938 l 1
 351.98046875 333.249023438 l 1
 530.7421875 512 l 1
242.71875 223.987304688 m 1
 287.9765625 178.729492188 l 1
 109.2578125 0 l 1
 64 45.2578125 l 1
 242.71875 223.987304688 l 1
397.23828125 223.987304688 m 1
 576 45.2578125 l 1
 530.7421875 0 l 1
 351.98046875 178.729492188 l 1
 397.23828125 223.987304688 l 1
EndSplineSet
LCarets2: 3 -48 -48 -48
MultipleSubs2: "CCMP cartouches" t.weka cart.body
Ligature2: "LIGA basics" w e k a
EndChar

StartChar: t.wile
Encoding: 65656 989559 121
GlifName: t.wile
Width: 640
GlyphClass: 1
Flags: HW
HStem: 31.999 64.001<153.684 247.18 392.821 486.316>
VStem: 48 64<138.799 297.254> 288 64<136.569 208> 528 64<137.684 297.802>
CounterMasks: 1 70
LayerCount: 2
Fore
SplineSet
528 184 m 0
 528 280.008789062 499.8046875 369.41796875 451.26171875 444.422851562 c 1
 504.447265625 480.045898438 l 1
 559.823242188 394.849609375 592 293.180664062 592 183.999023438 c 0
 592 100.051757812 523.947265625 31.9990234375 440 31.9990234375 c 0
 393.083984375 31.9990234375 348.796875 53.6650390625 320 90.7041015625 c 1
 291.203125 53.6650390625 246.916992188 31.9990234375 200 31.9990234375 c 0
 116.052734375 31.9990234375 48 100.051757812 48 183.999023438 c 2
 48 184.029296875 l 2
 48.005859375 293.2109375 80.1767578125 394.879882812 135.552734375 480.076171875 c 1
 188.73828125 444.453125 l 1
 140.1953125 369.448242188 112 280.0390625 112 184.048828125 c 2
 112 184 l 2
 112 135.3984375 151.399414062 96 200 96 c 0
 248.6015625 96 288 135.3984375 288 184 c 2
 288 208 l 1
 352 208 l 1
 352 184 l 2
 352 135.3984375 391.399414062 96 440 96 c 0
 488.6015625 96 528 135.3984375 528 184 c 0
EndSplineSet
LCarets2: 3 -48 -48 -48
MultipleSubs2: "CCMP cartouches" t.wile cart.body
Ligature2: "LIGA basics" w i l e
EndChar

StartChar: i
Encoding: 105 105 122
GlifName: glyph122
Width: 320
VWidth: 576
Flags: W
HStem: -0 21G<128.001 192.001> 288 64<55.999 128.001> 400 96<126.066 193.935>
VStem: 112.001 96<414.065 481.934> 128.001 64<0 288>
LayerCount: 2
Fore
SplineSet
160.000976562 496 m 0xf0
 186.4921875 496 208.000976562 474.491210938 208.000976562 448 c 0
 208.000976562 421.5078125 186.4921875 400 160.000976562 400 c 0
 133.508789062 400 112.000976562 421.5078125 112.000976562 448 c 0
 112.000976562 474.491210938 133.508789062 496 160.000976562 496 c 0xf0
55.9990234375 352 m 1
 128.000976562 352 l 1
 135.999023438 352 l 1
 192.000976562 352 l 1
 192.000976562 -0 l 1
 128.000976562 -0 l 1
 128.000976562 288 l 1xe8
 55.9990234375 288 l 1
 55.9990234375 352 l 1
EndSplineSet
EndChar

StartChar: j
Encoding: 106 106 123
GlifName: glyph123
Width: 320
VWidth: -64
Flags: W
HStem: -64.3535 64<100.606 163.972> 288 64<103.998 176> 400 96<174.065 241.934>
VStem: 160 96<414.065 481.934> 176 64<11.8022 288>
LayerCount: 2
Fore
SplineSet
208 496 m 0xf0
 234.491210938 496 256 474.491210938 256 448 c 0
 256 421.5078125 234.491210938 400 208 400 c 0
 181.5078125 400 160 421.5078125 160 448 c 0
 160 474.491210938 181.5078125 496 208 496 c 0xf0
103.998046875 352 m 1
 176 352 l 1
 183.998046875 352 l 1
 240 352 l 1
 240 43.646484375 l 1
 240 43.646484375 239.998046875 43.6455078125 239.998046875 43.646484375 c 1
 239.998046875 -15.9599609375 191.60546875 -64.3525390625 132 -64.353515625 c 0
 79.0654296875 -64.353515625 34.9736328125 -26.09375 25.767578125 24.19921875 c 1
 25.767578125 24.19921875 88.001953125 43.64453125 88.001953125 43.646484375 c 1
 88.001953125 19.3623046875 107.716796875 -0.353515625 132 -0.353515625 c 0
 156.283203125 -0.353515625 176 19.3623046875 176 43.646484375 c 2
 176 288 l 1xe8
 103.998046875 288 l 1
 103.998046875 352 l 1
EndSplineSet
EndChar

StartChar: o
Encoding: 111 111 124
GlifName: glyph124
Width: 320
VWidth: -64
Flags: W
HStem: -8.00098 64<121.148 198.852> 295.999 64<121.148 198.852>
VStem: 32 64<81.8542 270.144> 223.998 64.002<81.8542 270.144>
LayerCount: 2
Fore
SplineSet
160 359.999023438 m 0
 230.912109375 359.999023438 288 302.911132812 288 231.999023438 c 2
 288 119.999023438 l 2
 288 49.0869140625 230.912109375 -8.0009765625 160 -8.0009765625 c 0
 89.087890625 -8.0009765625 32 49.0869140625 32 119.999023438 c 2
 32 231.999023438 l 2
 32 302.911132812 89.087890625 359.999023438 160 359.999023438 c 0
160 295.999023438 m 0
 124.544921875 295.999023438 96 267.45703125 96 232.000976562 c 2
 96 119.997070312 l 2
 96 84.5419921875 124.544921875 55.9990234375 160 55.9990234375 c 0
 195.456054688 55.9990234375 223.998046875 84.5419921875 223.998046875 119.997070312 c 2
 223.998046875 232.000976562 l 2
 223.998046875 267.45703125 195.456054688 295.999023438 160 295.999023438 c 0
EndSplineSet
EndChar

StartChar: a
Encoding: 97 97 125
GlifName: glyph125
Width: 320
VWidth: -64
Flags: W
HStem: -8.00098 64.001<100.027 180.085> -0.000976562 21G<224 287.998> 144 64<101.229 223.914> 296 64<110.158 198.045>
VStem: 24 64<68.0269 131.275> 224 63.998<0.0149232 22.0146 100.067 144 208.017 270.046>
LayerCount: 2
Fore
SplineSet
160 360 m 1xbc
 160 359.999023438 l 1
 230.643554688 359.999023438 287.997070312 302.645507812 287.998046875 232.000976562 c 2
 287.998046875 -0.0009765625 l 1
 224 -0.0009765625 l 1x7c
 224 -0.0009765625 223.860351562 21.935546875 224 22.0146484375 c 1
 198.224609375 3.1923828125 166.330078125 -8.0009765625 132 -8.0009765625 c 0
 72.392578125 -8.0009765625 24 40.392578125 24 99.9990234375 c 0
 24 156.881835938 68.1689453125 203.555664062 124 207.702148438 c 1
 124 208 l 1
 224 208 l 1
 224 208 223.999023438 232.001953125 224 232 c 1
 223.999023438 267.321289062 195.321289062 296 160 296 c 0
 116.745117188 296 79.6689453125 269.60546875 64 232 c 1
 64 232 19.8984375 284.692382812 20 284.86328125 c 0
 50.09375 330.232421875 101.52734375 359.999023438 160 360 c 1xbc
132 144 m 2
 107.715820312 143.999023438 88 124.284179688 88 100 c 0
 88 75.7158203125 107.715820312 56 132 56 c 0xbc
 181.415039062 56 221.786132812 95.1044921875 223.9140625 144 c 1
 132 144 l 2
EndSplineSet
EndChar

StartChar: A
Encoding: 65 65 126
Width: 320
VWidth: 576
Flags: W
HStem: 0.015625 21G<28.0098 97.3804 230.618 299.99> 96.0176 64<125.814 202.184> 492 20G<127.936 200.064> 492 20G<127.936 200.064>
LayerCount: 2
Fore
SplineSet
131.998046875 512 m 1xe0
 196.001953125 512 l 1
 299.990234375 0.015625 l 1
 234.6796875 0.015625 l 1
 215.181640625 96.017578125 l 1
 112.81640625 96.017578125 l 1
 93.318359375 0.015625 l 1
 28.009765625 0.015625 l 1
 131.998046875 512 l 1xe0
164 348.0234375 m 1
 125.814453125 160.017578125 l 1
 202.18359375 160.017578125 l 1
 164 348.0234375 l 1
EndSplineSet
EndChar

StartChar: B
Encoding: 66 66 127
Width: 320
VWidth: 576
Flags: W
HStem: 0.0078125 64.001<99.9814 198.822> 224.005 64<99.9814 199.869> 448.001 63.999<99.9814 198.822>
VStem: 35.9814 64<64.0088 224.005 288.005 448.001> 236.015 64.0039<100.219 188.176 324.032 411.771>
LayerCount: 2
Fore
SplineSet
236.014648438 367.987304688 m 0
 236.014648438 412.18359375 200.193359375 448.013671875 155.995117188 448.001953125 c 2
 99.9814453125 448.000976562 l 1
 99.9814453125 288.004882812 l 1
 157.401367188 288.004882812 l 2
 201.03515625 288.76171875 236.014648438 324.34765625 236.014648438 367.987304688 c 0
99.9814453125 64.0087890625 m 1
 155.995117188 64.0068359375 l 2
 200.184570312 63.994140625 236.01171875 99.810546875 236.014648438 143.998046875 c 0
 236.010742188 188.184570312 200.18359375 224.000976562 155.997070312 223.990234375 c 2
 99.9814453125 224.004882812 l 1
 99.9814453125 64.0087890625 l 1
300.018554688 143.997070312 m 0
 300.018554688 64.4599609375 235.534179688 -0.01171875 155.995117188 0.00390625 c 2
 99.9814453125 0.0078125 l 1
 35.9814453125 0 l 1
 35.9814453125 512 l 1
 99.9814453125 512 l 1
 155.995117188 511.9921875 l 2
 235.533203125 511.995117188 300.016601562 447.5234375 300.018554688 367.987304688 c 0
 299.885742188 324.40234375 280.017578125 283.22265625 245.985351562 255.991210938 c 1
 280.017578125 228.760742188 299.88671875 187.58203125 300.018554688 143.997070312 c 0
EndSplineSet
EndChar

StartChar: C
Encoding: 67 67 128
Width: 320
VWidth: 584
Flags: W
HStem: -7.99609 64.0039<125.941 202.066> 455.996 64.0039<125.933 202.062>
VStem: 35.9883 64.002<81.933 430.074> 228.01 64.002<81.9272 119.988 391.992 430.059>
LayerCount: 2
Fore
SplineSet
99.953125 391.9921875 m 1
 99.990234375 119.999023438 l 2
 100.01171875 84.6484375 128.6640625 56.005859375 164.00390625 56.0078125 c 0
 199.345703125 56.005859375 228.009765625 84.6484375 228.009765625 119.98828125 c 1
 292.01171875 119.98828125 l 1
 292.00390625 49.298828125 234.693359375 -8 164.00390625 -7.99609375 c 0
 93.31640625 -8 35.98828125 49.298828125 35.98828125 119.999023438 c 2
 35.98828125 392.01171875 l 2
 35.994140625 462.702148438 93.3046875 520.00390625 163.99609375 520 c 0
 234.693359375 520.00390625 292.00390625 462.690429688 292.00390625 391.9921875 c 1
 228 391.9921875 l 1
 228.001953125 427.341796875 199.345703125 455.998046875 163.99609375 455.99609375 c 0
 128.646484375 455.998046875 99.990234375 427.341796875 99.9921875 391.9921875 c 1
 99.953125 391.9921875 l 1
EndSplineSet
EndChar

StartChar: D
Encoding: 68 68 129
Width: 320
VWidth: 576
Flags: W
HStem: -0.00292969 64.0107<99.998 198.804> 447.999 64.001<99.998 198.813>
VStem: 35.9824 64.0156<64.0078 447.999> 236.014 64.0039<101.173 410.808>
LayerCount: 2
Fore
SplineSet
35.982421875 511.999023438 m 1
 99.998046875 512 l 1
 155.998046875 512 l 1
 155.998046875 511.981445312 l 1
 235.515625 511.971679688 299.98046875 447.510742188 299.98046875 367.993164062 c 1
 300.017578125 367.993164062 l 1
 300.017578125 143.993164062 l 1
 299.98046875 143.993164062 l 1
 299.977539062 64.466796875 235.509765625 -0.0009765625 155.984375 -0.0029296875 c 2
 35.982421875 -0.0009765625 l 1
 35.982421875 511.999023438 l 1
99.998046875 447.999023438 m 1
 99.998046875 64.0078125 l 1
 155.998046875 64.0078125 l 2
 200.169921875 64.0126953125 235.97265625 99.8232421875 235.9765625 143.995117188 c 1
 236.013671875 143.995117188 l 1
 236.013671875 367.985351562 l 1
 235.9765625 367.985351562 l 1
 235.985351562 412.165039062 200.178710938 447.989257812 155.998046875 448.000976562 c 2
 99.998046875 447.999023438 l 1
EndSplineSet
EndChar

StartChar: E
Encoding: 69 69 130
Width: 320
VWidth: 576
Flags: W
HStem: 0 64.0078<99.9932 291.978> 224.004 64<99.9932 235.978> 448.003 63.9971<99.9561 292.008>
VStem: 35.9922 64.001<64.0078 224.004 288.004 448.003>
LayerCount: 2
Fore
SplineSet
35.9931640625 0 m 1
 35.9921875 512 l 1
 292.0078125 512 l 1
 292.0078125 448 l 1
 99.9560546875 448.002929688 l 1
 99.9931640625 288.00390625 l 1
 235.977539062 288.00390625 l 1
 235.977539062 224.00390625 l 1
 99.9931640625 224.00390625 l 1
 99.9931640625 64.0078125 l 1
 291.977539062 64.0078125 l 1
 291.977539062 0.0078125 l 1
 99.9931640625 0 l 1
 35.9931640625 0 l 1
EndSplineSet
EndChar

StartChar: F
Encoding: 70 70 131
Width: 320
VWidth: 576
Flags: W
HStem: 0 21G<36.0215 100.021> 224.004 64<100.021 236.006> 448 64<100.021 291.979>
VStem: 36.0215 64<0 224.004 288.004 448>
LayerCount: 2
Fore
SplineSet
36.021484375 512 m 1
 99.98046875 512 l 1
 100.021484375 512 l 1
 291.978515625 512 l 1
 291.978515625 448 l 1
 100.021484375 448 l 1
 100.021484375 288.00390625 l 1
 236.005859375 288.00390625 l 1
 236.005859375 224.00390625 l 1
 100.021484375 224.00390625 l 1
 100.021484375 0 l 1
 36.021484375 0 l 1
 36.021484375 512 l 1
EndSplineSet
EndChar

StartChar: G
Encoding: 71 71 132
Width: 320
VWidth: 584
Flags: W
HStem: -7.99609 64.0039<125.225 202.775> 224.016 64<155.985 227.974> 455.996 64.0039<125.23 202.774>
VStem: 35.9844 64.0195<81.9634 430.059> 227.974 63.9883<81.9651 224.016 392.018 430.059>
LayerCount: 2
Fore
SplineSet
163.9921875 520 m 0
 234.646484375 520 292.005859375 462.654296875 292.015625 392.017578125 c 1
 228.01171875 392.017578125 l 1
 228 427.330078125 199.323242188 455.99609375 164.0078125 455.99609375 c 0
 128.692382812 455.99609375 100.015625 427.330078125 100.00390625 392.017578125 c 2
 100.00390625 120.01171875 l 2
 100.00390625 84.689453125 128.685546875 56.0078125 164.0078125 56.0078125 c 0
 199.330078125 56.0078125 228.01171875 84.689453125 228.01171875 120.01171875 c 1
 227.973632812 120.01171875 l 1
 227.973632812 224.015625 l 1
 155.985351562 224.015625 l 1
 155.985351562 288.015625 l 1
 227.973632812 288.015625 l 1
 291.961914062 288.015625 l 1
 291.961914062 120.01171875 l 1
 291.961914062 120.01171875 291.9921875 120.00390625 292 120.01171875 c 1
 292 49.3662109375 234.637695312 -7.99609375 163.9921875 -7.99609375 c 0
 93.3466796875 -7.99609375 35.984375 49.3642578125 35.984375 120.009765625 c 2
 35.984375 392.017578125 l 2
 35.994140625 462.654296875 93.353515625 520 163.9921875 520 c 0
EndSplineSet
EndChar

StartChar: H
Encoding: 72 72 133
Width: 320
VWidth: 576
Flags: W
HStem: 0 21G<36.0059 100.006 227.994 291.994> 224.004 64<100.006 227.994> 492 20G<36.0059 100.006 227.994 291.994> 492 20G<36.0059 100.006 227.994 291.994>
VStem: 36.0059 64<0 224.004 288.004 512> 227.994 64<0 224.004 288.004 512>
LayerCount: 2
Fore
SplineSet
36.005859375 512 m 1xec
 100.005859375 512 l 1
 100.005859375 288.00390625 l 1
 227.994140625 288.00390625 l 1
 227.994140625 512 l 1
 291.994140625 512 l 1
 291.994140625 0 l 1
 227.994140625 0 l 1
 227.994140625 224.00390625 l 1
 100.005859375 224.00390625 l 1
 100.005859375 0 l 1
 36.005859375 0 l 1
 36.005859375 512 l 1xec
EndSplineSet
EndChar

StartChar: I
Encoding: 73 73 134
Width: 320
VWidth: 576
Flags: W
HStem: 0.00488281 64<64.002 128.026 192.026 256.042> 447.997 64<64.002 128.026 192.026 256.042>
VStem: 64.002 192.04<0.00488281 64.0049 448 511.997> 128.026 64<64.0049 447.997>
LayerCount: 2
Fore
SplineSet
64.001953125 512 m 1xe0
 256.041992188 511.997070312 l 1
 256.041992188 447.997070312 l 1xe0
 192.026367188 447.997070312 l 1
 192.026367188 64.0048828125 l 1xd0
 256.041992188 64.0048828125 l 1
 256.041992188 0.0048828125 l 1xe0
 192.026367188 0.0048828125 l 1
 128.026367188 -0.0029296875 l 1xd0
 64.001953125 0.0048828125 l 1
 64.001953125 64.0048828125 l 1xe0
 128.026367188 64.0048828125 l 1
 128.026367188 447.997070312 l 1xd0
 64.001953125 448 l 1
 64.001953125 512 l 1xe0
EndSplineSet
EndChar

StartChar: J
Encoding: 74 74 135
Width: 320
VWidth: 576
Flags: W
HStem: -8.01074 64.0039<125.934 202.067> 447.998 64<100.001 227.967>
VStem: 35.9912 64.0029<81.9301 119.997> 227.967 64.0039<81.9306 447.99>
LayerCount: 2
Fore
SplineSet
291.970703125 511.998046875 m 1
 291.970703125 119.997070312 l 1
 292.008789062 119.997070312 l 1
 292.012695312 49.298828125 234.69921875 -8.0146484375 164.000976562 -8.0107421875 c 0
 93.3017578125 -8.015625 35.9912109375 49.2978515625 35.9912109375 119.997070312 c 1
 99.994140625 119.997070312 l 1
 99.9921875 84.646484375 128.650390625 55.990234375 164.000976562 55.9931640625 c 0
 199.34375 55.9912109375 228.004882812 84.6376953125 228.004882812 119.981445312 c 1
 227.966796875 119.981445312 l 1
 227.966796875 447.990234375 l 1
 100.000976562 447.998046875 l 1
 100.000976562 511.998046875 l 1
 291.970703125 511.998046875 l 1
EndSplineSet
EndChar

StartChar: K
Encoding: 75 75 136
Width: 320
VWidth: 576
Flags: W
HStem: -0.00195312 21G<35.9912 99.9912 220.797 300.009> 224.004 64<99.9912 128.847> 492 19.9824G<35.9912 99.9912 220.797 300.009> 492 19.9824G<35.9912 99.9912 220.797 300.009>
VStem: 35.9912 64<0 224.004 288.004 512>
LayerCount: 2
Fore
SplineSet
35.9912109375 512 m 1xe8
 99.9912109375 512 l 1
 99.9912109375 288.00390625 l 1
 128.860351562 288.00390625 l 1
 229.811523438 511.982421875 l 1
 300.008789062 511.982421875 l 1
 184.625976562 255.990234375 l 1
 300.008789062 -0.001953125 l 1
 229.811523438 -0.001953125 l 1
 128.846679688 224.00390625 l 1
 99.9912109375 224.00390625 l 1
 99.9912109375 0 l 1
 35.9912109375 0 l 1
 35.9912109375 512 l 1xe8
EndSplineSet
EndChar

StartChar: L
Encoding: 76 76 137
Width: 320
VWidth: 576
Flags: W
HStem: 0.00195312 63.9766<100 292> 492 20G<36 100> 492 20G<36 100>
VStem: 36 64<63.9785 512>
LayerCount: 2
Fore
SplineSet
292 -0.021484375 m 1xd0
 36 0.001953125 l 1
 36 512 l 1
 100 512 l 1
 100 63.978515625 l 1
 292 63.978515625 l 1
 292 -0.021484375 l 1xd0
EndSplineSet
EndChar

StartChar: M
Encoding: 77 77 138
Width: 320
VWidth: 576
Flags: W
HStem: 0.0166016 21G<27.998 92.002 235.998 300.002> 492 20G<27.998 98.7227 229.279 300.002> 492 20G<27.998 98.7227 229.279 300.002>
VStem: 27.998 64.0039<0.0166016 311.062> 235.998 64.0039<0.0166016 311.062>
LayerCount: 2
Fore
SplineSet
27.998046875 512 m 1xd8
 92.001953125 512 l 1
 164.01171875 297.709960938 l 1
 235.998046875 512 l 1
 300.001953125 512 l 1
 300.001953125 0.0166015625 l 1
 235.998046875 0.0166015625 l 1
 235.998046875 311.0625 l 1
 196.013671875 192.00390625 l 1
 132.009765625 192.00390625 l 1
 92.001953125 311.0625 l 1
 92.001953125 0.0166015625 l 1
 27.998046875 0.0166015625 l 1
 27.998046875 512 l 1xd8
EndSplineSet
EndChar

StartChar: N
Encoding: 78 78 139
Width: 320
VWidth: 576
Flags: W
HStem: 0 20.9512G<36.0059 100.006 220.304 228.109> 492 20G<36.0059 100.006 227.994 291.994> 492 20G<36.0059 100.006 227.994 291.994>
VStem: 36.0059 64<0 333.295 511.896 512> 227.994 64<178.521 512>
LayerCount: 2
Fore
SplineSet
36.005859375 512 m 1xd8
 100.005859375 512 l 1
 100.005859375 511.896484375 l 1
 227.994140625 178.521484375 l 1
 227.994140625 512 l 1
 291.994140625 512 l 1
 291.994140625 0 l 1
 228.109375 0 l 1
 227.982421875 -0.048828125 l 1
 100.005859375 333.294921875 l 1
 100.005859375 0 l 1
 36.005859375 0 l 1
 36.005859375 512 l 1xd8
EndSplineSet
EndChar

StartChar: O
Encoding: 79 79 140
Width: 320
VWidth: 576
Flags: W
HStem: -15.9961 64.0039<125.225 202.775> 447.996 64.0039<125.226 202.773>
VStem: 35.9922 64.0039<73.9634 422.054> 227.967 64.0039<73.9651 422.039>
LayerCount: 2
Fore
SplineSet
164 512 m 0
 234.64453125 512 292.0078125 454.637695312 292.0078125 383.9921875 c 1
 291.970703125 383.9921875 l 1
 291.970703125 112.01171875 l 1
 291.970703125 112.01171875 292 112.00390625 292.0078125 112.01171875 c 1
 292.0078125 41.3662109375 234.64453125 -15.99609375 164 -15.99609375 c 0
 93.35546875 -15.99609375 35.9921875 41.3642578125 35.9921875 112.009765625 c 2
 35.9921875 384.01171875 l 2
 35.998046875 454.651367188 93.359375 512 164 512 c 0
164 447.99609375 m 0
 128.677734375 447.99609375 99.99609375 419.314453125 99.99609375 383.9921875 c 2
 99.99609375 112.01171875 l 2
 99.99609375 76.689453125 128.677734375 48.0078125 164 48.0078125 c 0
 199.322265625 48.0078125 228.00390625 76.6875 228.00390625 112.009765625 c 1
 227.966796875 112.009765625 l 1
 227.966796875 384.01171875 l 1
 227.966796875 384.01171875 228 384.01171875 228.00390625 384.01171875 c 1
 227.99609375 419.327148438 199.31640625 447.99609375 164 447.99609375 c 0
EndSplineSet
EndChar

StartChar: P
Encoding: 80 80 141
Width: 320
VWidth: 576
Flags: W
HStem: 0 21G<36.0039 100.004> 224.004 63.999<100.004 198.814> 447.999 64.001<100.004 198.832>
VStem: 36.0039 64<0 224.004 288.003 447.999> 235.992 64.0039<324.213 411.754>
LayerCount: 2
Fore
SplineSet
100.00390625 288.002929688 m 1
 155.990234375 287.995117188 l 2
 200.176757812 287.993164062 235.989257812 323.805664062 235.9921875 367.983398438 c 0
 235.98828125 412.161132812 200.17578125 447.97265625 155.998046875 447.975585938 c 1
 155.998046875 447.999023438 l 1
 100.00390625 447.999023438 l 1
 100.00390625 288.002929688 l 1
299.99609375 367.986328125 m 0
 299.99609375 288.458984375 235.525390625 223.98828125 155.990234375 223.99609375 c 2
 100.00390625 224.00390625 l 1
 100.00390625 0 l 1
 36.00390625 0 l 1
 36.00390625 512 l 1
 100.00390625 512 l 1
 156.015625 512 l 1
 156.015625 511.981445312 l 1
 235.53515625 511.970703125 299.99609375 447.504882812 299.99609375 367.986328125 c 0
EndSplineSet
EndChar

StartChar: Q
Encoding: 81 81 142
Width: 320
VWidth: 584
Flags: W
HStem: 40.0078 64.0039<121.234 171.066> 455.996 64.0039<121.234 198.779>
VStem: 32.001 64.0039<129.969 430.039> 223.976 64.0156<150.713 430.037>
LayerCount: 2
Fore
SplineSet
160.008789062 520 m 0
 230.645507812 520 287.991210938 462.631835938 287.991210938 391.9921875 c 2
 287.991210938 168.015625 l 2
 287.991210938 133.884765625 274.604492188 102.810546875 252.797851562 79.853515625 c 1
 295.999023438 -16.001953125 l 1
 225.801757812 -16.001953125 l 1
 197.963867188 45.76953125 l 1
 185.96875 42.0439453125 173.220703125 40.009765625 160.008789062 40.0078125 c 0
 89.3642578125 40.0078125 32.0009765625 97.3701171875 32.0009765625 168.015625 c 2
 32.0009765625 391.9921875 l 2
 32.0009765625 462.637695312 89.3642578125 520 160.008789062 520 c 0
160.008789062 455.99609375 m 0
 124.686523438 455.99609375 96.0048828125 427.314453125 96.0048828125 391.9921875 c 2
 96.0048828125 168.015625 l 2
 96.0048828125 132.693359375 124.686523438 104.01171875 160.008789062 104.01171875 c 0
 163.866210938 104.01171875 167.595703125 104.352539062 171.264648438 105.0078125 c 1
 110.420898438 240.013671875 l 1
 180.618164062 240.013671875 l 1
 221.329101562 149.6796875 l 1
 223.067382812 155.491210938 224.012695312 161.642578125 224.012695312 168.015625 c 1
 223.975585938 168.015625 l 1
 223.975585938 392.01171875 l 1
 223.975585938 392.01171875 224.008789062 392.01171875 224.012695312 392.01171875 c 1
 224.00390625 427.327148438 195.326171875 455.99609375 160.008789062 455.99609375 c 0
EndSplineSet
EndChar

StartChar: R
Encoding: 82 82 143
Width: 320
VWidth: 576
Flags: W
HStem: -0.00195312 21G<35.9805 99.9805 220.806 300.02> 224.004 63.998<99.9805 128.836> 447.996 64.0039<99.9805 198.785>
VStem: 35.9805 64<0 224.004 288.002 447.996> 236 64.0039<323.659 411.76>
LayerCount: 2
Fore
SplineSet
35.98046875 512 m 1
 99.98046875 512 l 1
 155.982421875 512 l 2
 235.45703125 512 300.001953125 447.477539062 300.00390625 368.00390625 c 0
 300.002929688 302.572265625 256.249023438 247.299804688 196.44140625 229.80078125 c 1
 300.01953125 -0.001953125 l 1
 229.822265625 -0.001953125 l 1
 128.8359375 224.00390625 l 1
 99.98046875 224.00390625 l 1
 99.98046875 0 l 1
 35.98046875 0 l 1
 35.98046875 512 l 1
99.98046875 447.99609375 m 1
 99.98046875 288.001953125 l 1
 155.982421875 288.001953125 l 1
 156 288.009765625 l 1
 200.151367188 288.009765625 235.99609375 323.853515625 236 368.00390625 c 0
 235.995117188 412.153320312 200.150390625 447.99609375 156 447.99609375 c 2
 155.982421875 447.99609375 l 1
 99.98046875 447.99609375 l 1
EndSplineSet
EndChar

StartChar: S
Encoding: 83 83 144
Width: 320
VWidth: 576
Flags: W
HStem: -15.9961 64.0039<125.223 202.78> 216 64.0039<125.923 202.049> 447.996 64.0039<125.228 202.786>
VStem: 36.0068 64.0039<73.9419 112.012 305.946 422.06> 227.989 64.0039<73.9465 190.076 383.992 422.057>
LayerCount: 2
Fore
SplineSet
163.983398438 216 m 0
 93.2939453125 216 36.0068359375 273.318359375 36.0068359375 344.009765625 c 2
 36.0068359375 383.9921875 l 2
 36.0029289847 454.694359073 93.3186705093 511.998047581 163.998438244 512.0000002 c 0
 234.693358827 512.0000002 291.999023438 454.688020571 291.999023438 383.9921875 c 1
 227.995117188 383.9921875 l 1
 227.997070245 419.340592279 199.341796801 447.99609385 163.994824603 447.99609385 c 0
 128.713540469 447.995119146 100.010742188 419.388497021 100.010742188 384.01171875 c 2
 100.010742188 344.009765625 l 2
 100.002929688 308.66796875 128.645507812 280.015625 163.985351562 280.00390625 c 0
 234.676757812 280.0078125 291.993164062 222.705078125 291.993164062 152.013671875 c 2
 291.993164062 112.01171875 l 2
 291.997070179 41.31588568 234.687499718 -15.9960939497 163.992578868 -15.9960939497 c 0
 93.3205181278 -15.9941415439 36.0009765625 41.3031882052 36.0009765625 112.01171875 c 1
 100.004882812 112.01171875 l 1
 100.002926965 76.6226082018 128.707675081 48.0087870772 163.988965326 48.0078124002 c 0
 199.336913989 48.0078124002 227.9921874 76.6633139709 227.989257812 112.01171875 c 2
 227.989257812 151.99609375 l 2
 227.9921875 187.345703125 199.334960938 216 163.983398438 216 c 0
EndSplineSet
EndChar

StartChar: T
Encoding: 84 84 145
Width: 320
VWidth: 576
Flags: W
HStem: 0 21G<132.025 196.024> 448 64<36 132.025 196.024 292>
VStem: 132.025 63.999<0 448>
LayerCount: 2
Fore
SplineSet
36 512 m 1
 132.025390625 512 l 1
 196.024414062 512 l 1
 292 512 l 1
 292 448 l 1
 196.024414062 448 l 1
 196.024414062 0 l 1
 132.025390625 0 l 1
 132.025390625 448 l 1
 36 448 l 1
 36 512 l 1
EndSplineSet
EndChar

StartChar: U
Encoding: 85 85 146
Width: 320
VWidth: 576
Flags: W
HStem: -0.00195344 63.9805<125.212 202.785> 492 20G<36.0039 100.004 227.996 291.996> 492 20G<36.0039 100.004 227.996 291.996>
VStem: 36.0039 63.9961<89.9275 512> 227.996 63.998<89.9267 512>
LayerCount: 2
Fore
SplineSet
164.01171875 63.978515625 m 0xd8
 199.3515625 63.978515625 227.994140625 92.642578125 227.99609375 127.991210938 c 2
 227.99609375 512 l 1
 291.99609375 512 l 1
 291.994140625 127.991210938 l 2
 291.982420438 57.2930883562 234.676285399 0.000487630577713 163.99682435 -0.00195343704408 c 0
 93.311523129 -0.00195343704408 36.0078123336 57.2959808238 36.00390625 127.991210938 c 2
 36.00390625 512 l 1
 100.00390625 512 l 1
 100 127.991210938 l 2
 99.99609375 92.6328125 128.65234375 63.978515625 164.01171875 63.978515625 c 0xd8
EndSplineSet
EndChar

StartChar: V
Encoding: 86 86 147
Width: 320
VWidth: 576
Flags: W
HStem: 0.0166016 21G<127.947 200.076> 492 20G<27.998 97.3701 230.629 300.002> 492 20G<27.998 97.3701 230.629 300.002>
LayerCount: 2
Fore
SplineSet
132.009765625 0.0166015625 m 1xc0
 27.998046875 512 l 1
 93.306640625 512 l 1
 164.01171875 163.993164062 l 1
 234.69140625 512 l 1
 300.001953125 512 l 1
 196.013671875 0.0166015625 l 1
 132.009765625 0.0166015625 l 1xc0
EndSplineSet
EndChar

StartChar: W
Encoding: 87 87 148
Width: 320
VWidth: 576
Flags: W
HStem: 0.0166016 21G<27.998 98.7205 229.277 300.002> 492 20G<27.998 92.002 235.998 300.002> 492 20G<27.998 92.002 235.998 300.002>
VStem: 27.998 64.0039<200.954 512> 235.998 64.0039<200.954 512>
LayerCount: 2
Fore
SplineSet
27.998046875 0.0166015625 m 1xd8
 27.998046875 512 l 1
 92.001953125 512 l 1
 92.001953125 200.954101562 l 1
 131.986328125 320.01171875 l 1
 195.990234375 320.01171875 l 1
 235.998046875 200.954101562 l 1
 235.998046875 512 l 1
 300.001953125 512 l 1
 300.001953125 0.0166015625 l 1
 235.998046875 0.0166015625 l 1
 163.98828125 214.306640625 l 1
 92.001953125 0.0166015625 l 1
 27.998046875 0.0166015625 l 1xd8
EndSplineSet
EndChar

StartChar: X
Encoding: 88 88 149
Width: 320
VWidth: 576
Flags: W
HStem: 0.0166016 21G<27.998 104.776 223.201 300.002> 492 20G<27.998 104.776 223.201 300.002> 492 20G<27.998 104.776 223.201 300.002>
LayerCount: 2
Fore
SplineSet
27.998046875 512 m 1xc0
 96.83984375 512 l 1
 163.98828125 342.774414062 l 1
 231.13671875 512 l 1
 300.001953125 512 l 1
 198.408203125 256.0078125 l 1
 300.001953125 0.0166015625 l 1
 231.13671875 0.0166015625 l 1
 163.98828125 169.2421875 l 1
 96.83984375 0.0166015625 l 1
 27.998046875 0.0166015625 l 1
 129.56640625 256.0078125 l 1
 27.998046875 512 l 1xc0
EndSplineSet
EndChar

StartChar: Y
Encoding: 89 89 150
Width: 320
VWidth: 576
Flags: W
HStem: 0.0166016 21G<132.01 196.014> 492 20G<27.998 104.799 223.224 300.002> 492 20G<27.998 104.799 223.224 300.002>
VStem: 132.01 64.0039<0.0166016 249.889>
LayerCount: 2
Fore
SplineSet
27.998046875 512 m 1xd0
 96.86328125 512 l 1
 164.01171875 342.774414062 l 1
 231.16015625 512 l 1
 300.001953125 512 l 1
 196.013671875 249.888671875 l 1
 196.013671875 0.0166015625 l 1
 132.009765625 0.0166015625 l 1
 132.009765625 249.888671875 l 1
 27.998046875 512 l 1xd0
EndSplineSet
EndChar

StartChar: Z
Encoding: 90 90 151
Width: 320
VWidth: 576
Flags: W
HStem: -0.0078125 64.0039<107.047 291.996> 447.996 64.0039<36.0039 220.978>
LayerCount: 2
Fore
SplineSet
36.00390625 512 m 1
 291.99609375 512 l 1
 291.99609375 447.99609375 l 1
 107.046875 63.99609375 l 1
 291.99609375 63.99609375 l 1
 291.99609375 -0.0078125 l 1
 36.00390625 -0.0078125 l 1
 36.00390625 63.99609375 l 1
 220.977539062 447.99609375 l 1
 36.00390625 447.99609375 l 1
 36.00390625 512 l 1
EndSplineSet
EndChar

StartChar: b
Encoding: 98 98 152
Width: 320
VWidth: 576
Flags: W
HStem: -8.00098 64<121.805 199.091> -0.000976562 21G<31.998 95.9961> 295.999 64<121.805 199.091> 491.999 20G<31.998 95.9961>
VStem: 31.998 63.998<-0.000976562 25.4717 80.4398 271.558 326.526 511.999> 223.998 64<81.372 270.626>
LayerCount: 2
Fore
SplineSet
31.998046875 511.999023438 m 1x7c
 95.99609375 511.999023438 l 1
 95.99609375 326.526367188 l 1
 116.294921875 347.206054688 144.59765625 359.999023438 175.998046875 359.999023438 c 0
 238.045898438 359.999023438 287.998046875 310.046875 287.998046875 247.999023438 c 2
 287.998046875 103.999023438 l 2
 287.998046875 41.951171875 238.045898438 -8.0009765625 175.998046875 -8.0009765625 c 0xbc
 144.59765625 -8.0009765625 116.294921875 4.7919921875 95.99609375 25.4716796875 c 1
 95.99609375 -0.0009765625 l 1
 31.998046875 -0.0009765625 l 1
 31.998046875 511.999023438 l 1x7c
159.998046875 295.999023438 m 0
 124.54296875 295.999023438 95.998046875 267.455078125 95.998046875 231.999023438 c 2
 95.998046875 119.999023438 l 2
 95.998046875 84.54296875 124.54296875 55.9990234375 159.998046875 55.9990234375 c 0
 195.454101562 55.9990234375 223.998046875 84.54296875 223.998046875 119.999023438 c 2
 223.998046875 231.999023438 l 2
 223.998046875 267.455078125 195.454101562 295.999023438 159.998046875 295.999023438 c 0
EndSplineSet
EndChar

StartChar: c
Encoding: 99 99 153
Width: 320
VWidth: 584
Flags: W
HStem: -8.00098 64<123.963 204.286> 295.999 64<123.963 204.286>
VStem: 31.999 64<84.6622 267.336> 231.901 61<84.3989 97.1589 254.839 267.599>
LayerCount: 2
Fore
SplineSet
163.999023438 359.999023438 m 0
 227.2734375 359.999023438 279.875 315.924804688 292.901367188 256.674804688 c 1
 231.901367188 231.680664062 l 1
 230.000976562 267.626953125 200.435546875 295.999023438 163.999023438 295.999023438 c 0
 126.327148438 295.999023438 95.9990234375 265.670898438 95.9990234375 227.999023438 c 2
 95.9990234375 175.999023438 l 1
 95.9990234375 123.999023438 l 2
 95.9990234375 86.3271484375 126.327148438 55.9990234375 163.999023438 55.9990234375 c 0
 200.435546875 55.9990234375 230.000976562 84.37109375 231.901367188 120.317382812 c 1
 292.901367188 95.3232421875 l 1
 279.875 36.07421875 227.2734375 -8.0009765625 163.999023438 -8.0009765625 c 0
 90.87109375 -8.0009765625 31.9990234375 50.87109375 31.9990234375 123.999023438 c 2
 31.9990234375 227.999023438 l 2
 31.9990234375 301.127929688 90.87109375 359.999023438 163.999023438 359.999023438 c 0
EndSplineSet
EndChar

StartChar: d
Encoding: 100 100 154
Width: 320
VWidth: 576
Flags: W
HStem: -8.00098 64<120.906 198.193> -0.000976562 21G<224.001 287.999> 295.999 64<120.906 198.193> 491.999 20G<224.001 287.999>
VStem: 31.999 64<81.372 270.626> 224.001 63.998<-0.000976562 25.4717 80.4402 271.558 326.526 511.999>
LayerCount: 2
Fore
SplineSet
287.999023438 511.999023438 m 1xbc
 287.999023438 -0.0009765625 l 1
 224.000976562 -0.0009765625 l 1x7c
 224.000976562 25.4716796875 l 1
 203.702148438 4.7919921875 175.399414062 -8.0009765625 143.999023438 -8.0009765625 c 0
 81.951171875 -8.0009765625 31.9990234375 41.951171875 31.9990234375 103.999023438 c 2
 31.9990234375 247.999023438 l 2
 31.9990234375 310.046875 81.951171875 359.999023438 143.999023438 359.999023438 c 0
 175.399414062 359.999023438 203.702148438 347.206054688 224.000976562 326.526367188 c 1
 224.000976562 511.999023438 l 1
 287.999023438 511.999023438 l 1xbc
159.999023438 295.999023438 m 0
 124.54296875 295.999023438 95.9990234375 267.455078125 95.9990234375 231.999023438 c 2
 95.9990234375 119.999023438 l 2
 95.9990234375 84.5439453125 124.54296875 55.9990234375 159.999023438 55.9990234375 c 0xbc
 195.455078125 55.9990234375 223.999023438 84.5439453125 223.999023438 119.999023438 c 2
 223.999023438 231.999023438 l 2
 223.999023438 267.455078125 195.455078125 295.999023438 159.999023438 295.999023438 c 0
EndSplineSet
EndChar

StartChar: e
Encoding: 101 101 155
Width: 320
VWidth: 576
Flags: W
HStem: -8 64<123.966 204.289> 160 64<96.002 224> 296 64<121.226 198.774>
VStem: 32.002 64<84.6628 160 224 270.045> 224 64<232 270.045>
LayerCount: 2
Fore
SplineSet
160 360 m 0
 230.64453125 360 288 302.64453125 288 232 c 2
 288 224 l 1
 288 160 l 1
 96.001953125 160 l 1
 96.001953125 124 l 2
 96.001953125 86.328125 126.330078125 56 164.001953125 56 c 0
 200.438476562 56 230.00390625 84.37109375 231.904296875 120.318359375 c 1
 292.904296875 95.32421875 l 1
 279.877929688 36.07421875 227.276367188 -8 164.001953125 -8 c 0
 90.8740234375 -8 32.001953125 50.87109375 32.001953125 124 c 2
 32 232 l 0
 32 302.64453125 89.3544921875 359.999023438 160 360 c 0
160 296 m 0
 124.677734375 296 96 267.322265625 96 232 c 2
 96 224 l 1
 224 224 l 1
 224 224 223.999023438 232 224 232 c 1
 224 267.322265625 195.322265625 296 160 296 c 0
EndSplineSet
EndChar

StartChar: f
Encoding: 102 102 156
Width: 320
VWidth: 576
Flags: W
HStem: -0 21G<87.9971 151.999> 288 64<39.9971 87.9971 151.999 263.999> 456 64<164.023 227.389>
VStem: 87.9971 64.002<0 288 352 443.844>
LayerCount: 2
Fore
SplineSet
195.995117188 520 m 0
 248.930664062 520 293.0234375 481.739257812 302.229492188 431.447265625 c 1
 302.229492188 431.447265625 239.994140625 412.000976562 239.995117188 412 c 1
 239.995117188 436.283203125 220.278320312 456 195.995117188 456 c 0
 171.711914062 455.999023438 151.997070312 436.283203125 151.997070312 412 c 1
 151.999023438 412 l 1
 151.999023438 352 l 1
 263.999023438 352 l 1
 263.999023438 288 l 1
 151.999023438 288 l 1
 151.999023438 -0 l 1
 87.9970703125 -0 l 1
 87.9970703125 288 l 1
 39.9970703125 288 l 1
 39.9970703125 352 l 1
 87.9970703125 352 l 1
 87.9970703125 412 l 1
 87.9970703125 471.60546875 136.389648438 519.999023438 195.995117188 520 c 0
EndSplineSet
EndChar

StartChar: g
Encoding: 103 103 157
Width: 320
VWidth: 584
Flags: W
HStem: -64 64<115.715 196.038> 80 64<120.909 198.195> 296 64<120.909 198.195> 332 20G<224.004 288.002>
VStem: 32.002 64<169.373 270.627> 224.002 64<28.6628 113.471 168.441 271.559 326.527 352>
LayerCount: 2
Fore
SplineSet
144.001953125 360 m 0xec
 175.40234375 360 203.705078125 347.20703125 224.00390625 326.52734375 c 1
 224.00390625 352 l 1
 288.001953125 352 l 1xdc
 288 176 l 1
 288.001953125 176 l 1
 288.001953125 68 l 2
 288.001953125 -5.12890625 229.129882812 -64 156.001953125 -64 c 0
 92.7275390625 -64 40.1259765625 -19.92578125 27.099609375 39.32421875 c 1
 88.099609375 64.318359375 l 1
 90 28.37109375 119.565429688 -0 156.001953125 -0 c 0
 193.673828125 -0 224.001953125 30.328125 224.001953125 68 c 2
 224.001953125 80 l 1
 224.001953125 113.470703125 l 1
 203.703125 92.7919921875 175.401367188 80 144.001953125 80 c 0
 81.9541015625 80 32.001953125 129.951171875 32.001953125 192 c 2
 32.001953125 248 l 2
 32.001953125 310.047851562 81.9541015625 360 144.001953125 360 c 0xec
160.001953125 296 m 0xec
 124.545898438 296 96.001953125 267.455078125 96.001953125 232 c 2
 96.001953125 208 l 2
 96.001953125 172.543945312 124.545898438 144 160.001953125 144 c 0
 195.45703125 144 224.001953125 172.543945312 224.001953125 208 c 2
 224.001953125 232 l 2
 224.001953125 267.455078125 195.45703125 296 160.001953125 296 c 0xec
EndSplineSet
EndChar

StartChar: h
Encoding: 104 104 158
Width: 320
VWidth: 576
Flags: W
HStem: -0.000976562 21G<31.999 95.9982 223.999 287.998> 295.999 64<121.807 199.094> 491.999 20G<32.0009 95.998>
VStem: 32.001 63.9971<-0.000976562 271.558 326.526 511.999> 223.999 63.999<-0.000976562 270.626>
LayerCount: 2
Fore
SplineSet
32.0009765625 511.999023438 m 1
 95.998046875 511.999023438 l 1
 95.998046875 326.526367188 l 1
 116.296875 347.206054688 144.599609375 359.999023438 176.000976562 359.999023438 c 0
 238.048828125 359.999023438 288.000976562 310.046875 288 247.999023438 c 2
 287.998046875 -0.0009765625 l 1
 223.999023438 -0.0009765625 l 1
 224.000976562 231.999023438 l 2
 224.000976562 267.455078125 195.456054688 295.999023438 160 295.999023438 c 0
 124.544921875 295.999023438 96.0009765625 267.455078125 96 231.999023438 c 2
 95.998046875 -0.0009765625 l 1
 31.9990234375 -0.0009765625 l 1
 32.0009765625 511.999023438 l 1
EndSplineSet
EndChar

StartChar: k
Encoding: 107 107 159
Width: 320
VWidth: 576
Flags: W
HStem: -0 21G<31.998 95.998 194.318 287.998> 332 20G<194.318 287.998> 492 20G<31.998 95.998>
VStem: 31.998 64<0 155.189 196.811 512>
LayerCount: 2
Fore
SplineSet
31.998046875 512 m 1
 95.998046875 512 l 1
 95.998046875 196.810546875 l 1
 208.86328125 352 l 1
 287.998046875 352 l 1
 159.998046875 176 l 1
 287.998046875 -0 l 1
 208.86328125 -0 l 1
 95.998046875 155.189453125 l 1
 95.998046875 -0 l 1
 31.998046875 -0 l 1
 31.998046875 512 l 1
EndSplineSet
EndChar

StartChar: l
Encoding: 108 108 160
Width: 320
VWidth: 576
Flags: W
HStem: -0 64<181.901 271.997> 448 64<63.9971 111.997>
VStem: 63.9971 111.998<448 512> 111.999 63.9961<69.9036 448>
LayerCount: 2
Fore
SplineSet
63.9970703125 512 m 1xe0
 175.995117188 512 l 1xe0
 175.995117188 96 l 1
 175.997070312 96 l 1
 175.997070312 78.326171875 190.323242188 64 207.997070312 64 c 2
 207.999023438 64 l 1
 271.997070312 64 l 1
 271.997070312 -0 l 1
 207.999023438 -0 l 1
 207.997070312 -0 l 2
 154.978515625 0.0009765625 111.999023438 42.9814453125 111.999023438 96 c 2xd0
 111.997070312 448 l 1
 63.9970703125 448 l 1
 63.9970703125 512 l 1xe0
EndSplineSet
EndChar

StartChar: m
Encoding: 109 109 161
Width: 320
VWidth: 576
Flags: W
HStem: -0 21G<24 88 128 192 232 296> 296 64<105.152 127.042 209.15 231.089> 332 20G<24 88>
VStem: 24 64<0 294.962 308.332 352> 128 64<0 294.966> 232 64<0 295.103>
CounterMasks: 1 1c
LayerCount: 2
Fore
SplineSet
140 360 m 1xdc
 168.587890625 359.999023438 191.8125 336.920898438 191.998046875 308.333984375 c 1
 192.181640625 336.921875 215.409179688 360 243.998046875 360 c 0
 272.716796875 360 295.998046875 336.71875 295.998046875 308 c 1
 296 308 l 1
 296 -0 l 1
 232 -0 l 1
 232 276 l 2
 232 276.014648438 232 276.033203125 232 276.048828125 c 0
 231.97265625 287.075195312 223.026367188 295.999023438 212 296 c 0
 201.08203125 296.000976562 192.181640625 287.24609375 192 276.330078125 c 2
 192 -0 l 1
 128 -0 l 1
 128 276.25 l 2
 127.86328125 287.197265625 118.950195312 295.999023438 108.001953125 296 c 0xdc
 97.025390625 296.000976562 88.09765625 287.155273438 88 276.1796875 c 2
 88 -0 l 1
 24 -0 l 1
 24 352 l 1
 88 352 l 1xbc
 88 308.33203125 l 1
 88.1826171875 336.920898438 111.41015625 360 140 360 c 1xdc
EndSplineSet
EndChar

StartChar: n
Encoding: 110 110 162
Width: 320
VWidth: 576
Flags: W
HStem: -0.000976562 21G<32 95.9992 224 287.999> 295.999 64<121.808 199.095> 331.999 20G<32 95.9988>
VStem: 32 63.999<-0.000976562 271.558 326.526 351.999> 224 63.999<-0.000976562 270.626>
LayerCount: 2
Fore
SplineSet
32 351.999023438 m 1xb8
 95.998046875 351.999023438 l 1xb8
 95.9990234375 326.526367188 l 1
 116.297851562 347.206054688 144.600585938 359.999023438 176.001953125 359.999023438 c 0
 238.049804688 359.999023438 288.001953125 310.047851562 288.000976562 247.999023438 c 2
 287.999023438 -0.0009765625 l 1
 224 -0.0009765625 l 1
 224.001953125 231.999023438 l 2
 224.001953125 267.455078125 195.45703125 295.999023438 160.000976562 295.999023438 c 0xd8
 124.545898438 295.999023438 96.001953125 267.455078125 96.0009765625 231.999023438 c 2
 95.9990234375 -0.0009765625 l 1
 32 -0.0009765625 l 1
 32 351.999023438 l 1xb8
EndSplineSet
EndChar

StartChar: p
Encoding: 112 112 163
Width: 320
VWidth: 576
Flags: W
HStem: 47.999 64<121.805 199.092> 295.999 64.001<121.805 199.092> 331.999 20G<31.999 95.9971>
VStem: 31.999 63.998<-64.001 81.4717 136.44 271.558 326.527 351.999> 223.999 64<137.372 270.626>
LayerCount: 2
Fore
SplineSet
31.9990234375 -64.0009765625 m 1xd8
 31.9990234375 351.999023438 l 1
 95.9970703125 351.999023438 l 1xb8
 95.9970703125 326.52734375 l 1
 116.295898438 347.20703125 144.598632812 360 175.999023438 360 c 0
 238.046875 360 287.999023438 310.047851562 287.999023438 247.999023438 c 2
 287.999023438 159.999023438 l 2
 287.999023438 97.951171875 238.046875 47.9990234375 175.999023438 47.9990234375 c 0
 144.598632812 47.9990234375 116.295898438 60.7919921875 95.9970703125 81.4716796875 c 1
 95.9970703125 -64.0009765625 l 1
 31.9990234375 -64.0009765625 l 1xd8
159.999023438 111.999023438 m 0
 195.455078125 111.999023438 223.999023438 140.54296875 223.999023438 175.999023438 c 2
 223.999023438 231.999023438 l 2
 223.999023438 267.455078125 195.455078125 295.999023438 159.999023438 295.999023438 c 0xd8
 124.54296875 295.999023438 95.9990234375 267.455078125 95.9990234375 231.999023438 c 2
 95.9990234375 175.999023438 l 2
 95.9990234375 140.54296875 124.54296875 111.999023438 159.999023438 111.999023438 c 0
EndSplineSet
EndChar

StartChar: q
Encoding: 113 113 164
Width: 320
VWidth: 584
Flags: W
HStem: 47.999 64<120.907 198.193> 295.999 64.001<120.907 198.193> 331.999 20G<224.002 288>
VStem: 32 64<137.372 270.626> 224.002 63.9971<-64.001 81.4717 136.44 271.558 326.527 351.999>
LayerCount: 2
Fore
SplineSet
287.999023438 -64.0009765625 m 1xb8
 224.001953125 -64.0009765625 l 1
 224.001953125 81.4716796875 l 1
 203.703125 60.7919921875 175.400390625 47.9990234375 144 47.9990234375 c 0
 81.9521484375 47.9990234375 32 97.951171875 32 159.999023438 c 2
 32 247.999023438 l 2
 32 310.047851562 81.9521484375 360 144 360 c 0xd8
 175.400390625 360 203.703125 347.20703125 224.001953125 326.52734375 c 1
 224.001953125 351.999023438 l 1
 288 351.999023438 l 1
 287.999023438 -64.0009765625 l 1xb8
160 111.999023438 m 0
 195.455078125 111.999023438 224 140.54296875 224 175.999023438 c 2
 224 231.999023438 l 2
 224 267.455078125 195.455078125 295.999023438 160 295.999023438 c 0
 124.543945312 295.999023438 96 267.455078125 96 231.999023438 c 2
 96 175.999023438 l 2
 96 140.54296875 124.543945312 111.999023438 160 111.999023438 c 0
EndSplineSet
EndChar

StartChar: r
Encoding: 114 114 165
Width: 320
VWidth: 576
Flags: W
HStem: -0 21G<31.998 95.998> 296 64<125.169 204.866> 332 20G<31.998 95.998>
VStem: 31.998 64<0 268.675 336.441 351.98>
LayerCount: 2
Fore
SplineSet
179.99609375 360 m 1xd0
 235.065429688 360 281.21875 321.474609375 293.05078125 269.974609375 c 1
 231.998046875 228 l 1
 231.998046875 265.530273438 201.52734375 296 163.998046875 296 c 0xd0
 126.467773438 296 95.998046875 265.530273438 95.998046875 228 c 0
 95.998046875 227.96484375 95.998046875 227.934570312 95.998046875 227.899414062 c 0
 95.998046875 227.864257812 95.998046875 227.829101562 95.998046875 227.794921875 c 2
 95.998046875 163.998046875 l 1
 95.998046875 -0 l 1
 31.998046875 -0 l 1
 31.998046875 352 l 1
 95.998046875 352 l 1xb0
 95.998046875 352 95.9990234375 323.970703125 95.998046875 324.001953125 c 0
 117.1328125 346.192382812 146.961914062 360 179.99609375 360 c 1xd0
EndSplineSet
EndChar

StartChar: s
Encoding: 115 115 166
Width: 320
VWidth: 576
Flags: W
HStem: -0 64<97.379 128 191.998 220.457> 144 64<99.5403 127.998 191.998 220.455> 288 64<99.5406 222.62>
VStem: 23.998 64<74.5157 89.2812 218.651 277.349> 232 64<74.6506 133.349 262.719 277.484>
CounterMasks: 1 e0
LayerCount: 2
Fore
SplineSet
127.998046875 352 m 1
 192 352 l 2
 244.14453125 351.999023438 288.842773438 314.740234375 298.232421875 263.447265625 c 1
 235.998046875 244 l 1
 235.998046875 268.299804688 216.299804688 288 192 288 c 2
 127.998046875 288 l 1
 105.920898438 288 87.998046875 270.076171875 87.998046875 248 c 0
 87.998046875 225.923828125 105.919921875 208.000976562 127.99609375 208 c 2
 191.998046875 208 l 1
 191.998046875 208 192 207.998046875 191.998046875 207.998046875 c 1
 249.395507812 207.998046875 295.999023438 161.397460938 296 104 c 0
 296 46.6005859375 249.3984375 -0 192 -0 c 2
 191.998046875 -0 l 1
 128 -0 l 2
 75.8544921875 0 31.1552734375 37.259765625 21.765625 88.552734375 c 1
 84 108 l 1
 83.9990234375 83.69921875 103.69921875 63.9990234375 128 64 c 2
 128 64 192 64 191.998046875 64 c 1
 214.07421875 64 232 81.9228515625 232 104 c 0
 232 126.076171875 214.07421875 144 191.998046875 144 c 2
 191.998046875 144 127.997070312 144 127.998046875 144 c 1
 70.5986328125 144 23.998046875 190.600585938 23.998046875 248 c 0
 23.998046875 305.397460938 70.599609375 351.998046875 127.998046875 351.998046875 c 1
 127.998046875 352 l 1
EndSplineSet
EndChar

StartChar: t
Encoding: 116 116 167
Width: 320
VWidth: 576
Flags: W
HStem: -8 64<164.022 227.388> 288 64<39.9951 87.9971 151.997 263.997>
VStem: 87.9971 64<68.1561 288 352 448>
LayerCount: 2
Fore
SplineSet
87.9970703125 448 m 1
 151.997070312 448 l 1
 151.997070312 352 l 1
 263.997070312 352 l 1
 263.997070312 288 l 1
 151.997070312 288 l 1
 151.997070312 100 l 1
 151.997070312 100 151.995117188 99.998046875 151.995117188 100 c 1
 151.995117188 75.716796875 171.709960938 56 195.993164062 56 c 0
 220.276367188 56 239.993164062 75.7158203125 239.993164062 100 c 1
 239.993164062 100 302.2265625 80.458984375 302.227539062 80.552734375 c 1
 293.021484375 30.259765625 248.928710938 -8 195.993164062 -8 c 0
 136.387695312 -8 87.9951171875 40.3935546875 87.9951171875 100 c 1
 87.9970703125 100 l 1
 87.9970703125 288 l 1
 39.9951171875 288 l 1
 39.9951171875 352 l 1
 87.9970703125 352 l 1
 87.9970703125 448 l 1
EndSplineSet
EndChar

StartChar: u
Encoding: 117 117 168
Width: 320
VWidth: 576
Flags: W
HStem: -8 64<120.907 198.194> 0 21G<224.002 288.002> 332 20G<32.0018 96.002 224.002 288.002>
VStem: 32 64<81.373 352> 224 64.002<0 25.4727 80.4408 352>
LayerCount: 2
Fore
SplineSet
288.001953125 0 m 1x78
 224.00390625 0 l 1x78
 224.001953125 25.47265625 l 1
 203.703125 4.79296875 175.401367188 -8 144 -8 c 0
 81.9521484375 -8 32 41.9521484375 32 104 c 2
 32.001953125 352 l 1
 96.001953125 352 l 1
 96 120 l 2
 96 84.5439453125 124.544921875 56 160 56 c 0xb8
 195.456054688 56 224 84.5439453125 224 120 c 2
 224.001953125 352 l 1
 288.001953125 352 l 1
 288.001953125 0 l 1x78
EndSplineSet
EndChar

StartChar: v
Encoding: 118 118 169
Width: 320
VWidth: 576
Flags: W
HStem: -0 21G<122.544 197.454> 332 20G<32 102.689 217.309 287.998>
LayerCount: 2
Fore
SplineSet
32 352 m 1
 97.83203125 352 l 1
 159.998046875 96 l 1
 222.166015625 352 l 1
 287.998046875 352 l 1
 192 -0 l 1
 127.998046875 -0 l 1
 32 352 l 1
EndSplineSet
EndChar

StartChar: w
Encoding: 119 119 170
Width: 320
VWidth: 576
Flags: W
HStem: -0 21G<53.021 131.999 187.999 266.979> 332 20G<16.001 80.001 239.999 303.999>
VStem: 16.001 64<182.67 352> 239.999 64<183.075 352>
LayerCount: 2
Fore
SplineSet
16.0009765625 352 m 1
 16.0009765625 352 80.02734375 352.752929688 80.0009765625 352 c 0
 80.0009765625 273.155273438 88.37109375 196.997070312 104.223632812 122.85546875 c 1
 127.999023438 256 l 1
 151.999023438 256 l 1
 191.999023438 256 l 1
 191.999023438 256 217.869140625 131.985351562 217.856445312 132.8046875 c 0
 232.366210938 203.890625 239.999023438 276.653320312 239.999023438 352 c 1
 239.999023438 352 303.73828125 351.927734375 303.999023438 352 c 1
 303.999023438 229.33203125 284.65625 111.014648438 249.301757812 -0 c 1
 192.000976562 -0 l 1
 191.999023438 -0 l 1
 159.999023438 160 l 1
 127.999023438 -0 l 1
 127.999023438 -0 70.4375 0.0712890625 70.6982421875 -0 c 1
 35.34375 111.014648438 16.0009765625 229.33203125 16.0009765625 352 c 1
EndSplineSet
EndChar

StartChar: x
Encoding: 120 120 171
Width: 320
VWidth: 576
Flags: W
HStem: -0 21G<23.998 108.754 211.242 295.998> 332 20G<23.998 108.754 211.242 295.998>
LayerCount: 2
Fore
SplineSet
23.998046875 352 m 1
 97.474609375 352 l 1
 159.998046875 241.140625 l 1
 222.521484375 352 l 1
 295.998046875 352 l 1
 196.736328125 176 l 1
 295.998046875 -0 l 1
 222.521484375 -0 l 1
 159.998046875 110.859375 l 1
 97.474609375 -0 l 1
 23.998046875 -0 l 1
 123.259765625 176 l 1
 23.998046875 352 l 1
EndSplineSet
EndChar

StartChar: y
Encoding: 121 121 172
Width: 320
VWidth: 576
Flags: W
HStem: -64 64<39.8359 89.014> 332 20G<24 101.003 218.995 296>
LayerCount: 2
Fore
SplineSet
24 352 m 1
 92.96875 352 l 1
 160 185.1328125 l 1
 227.029296875 352 l 1
 296 352 l 1
 153.08203125 -3.783203125 l 2
 138.498046875 -40.1015625 103.262695312 -64 64 -64 c 0
 48.474609375 -64.0009765625 33.1806640625 -60.2353515625 19.4296875 -53.02734375 c 1
 39.548828125 11.35546875 l 1
 45.62890625 4.1533203125 54.5751953125 -0.0009765625 64 -0 c 0
 77.087890625 -0.0009765625 88.833984375 7.9658203125 93.6953125 20.072265625 c 2
 125.515625 99.287109375 l 1
 24 352 l 1
EndSplineSet
EndChar

StartChar: z
Encoding: 122 122 173
Width: 320
VWidth: 576
Flags: W
HStem: -0 64<113.184 288.002> 288 64<32.002 206.816 288 288.002>
LayerCount: 2
Fore
SplineSet
32.001953125 352 m 1
 288.001953125 352 l 1
 288.001953125 288 l 1
 288 288 l 1
 113.18359375 64 l 1
 288.001953125 64 l 1
 288.001953125 -0 l 1
 32.001953125 -0 l 1
 32.001953125 63.998046875 l 1
 32.001953125 64 l 1
 32 64 l 1
 206.81640625 288 l 1
 32.001953125 288 l 1
 32.001953125 352 l 1
EndSplineSet
EndChar

StartChar: zero
Encoding: 48 48 174
Width: 320
VWidth: 584
Flags: W
HStem: -8 64<121.148 198.852> 472 64<121.148 198.852>
VStem: 32 64<81.8551 282.746 373.258 446.145> 223.998 64.002<81.8551 154.748 245.258 446.145>
LayerCount: 2
Fore
SplineSet
160 536 m 0
 230.912109375 536 288 478.912109375 288 408 c 2
 288 120 l 2
 288 49.087890625 230.912109375 -8 160 -8 c 0
 89.087890625 -8 32 49.087890625 32 120 c 2
 32 408 l 2
 32 478.912109375 89.087890625 536 160 536 c 0
160 472 m 0
 124.544921875 472 96 443.456054688 96 408 c 2
 96 373.2578125 l 1
 182.626953125 286.62890625 l 1
 223.998046875 245.2578125 l 1
 223.998046875 408 l 2
 223.998046875 443.456054688 195.456054688 472 160 472 c 0
96 282.74609375 m 1
 96 120 l 2
 96 84.5439453125 124.544921875 56 160 56 c 0
 195.456054688 56 223.998046875 84.5439453125 223.998046875 120 c 2
 223.998046875 154.748046875 l 1
 137.373046875 241.373046875 l 1
 96 282.74609375 l 1
EndSplineSet
EndChar

StartChar: one
Encoding: 49 49 175
Width: 320
VWidth: 576
Flags: W
HStem: -0.0078125 64.0039<36.0098 131.992 195.996 291.99> 492 20G<111.997 195.996> 492 20G<111.997 195.996>
VStem: 131.992 64.0039<63.9961 421.484>
LayerCount: 2
Fore
SplineSet
131.9921875 512 m 1xd0
 195.99609375 512 l 1
 195.99609375 63.99609375 l 1
 291.990234375 63.99609375 l 1
 291.990234375 -0.00390625 l 1
 195.99609375 -0.0078125 l 1
 131.9921875 -0.00390625 l 1
 36.009765625 -0.00390625 l 1
 36.009765625 63.99609375 l 1
 131.9921875 63.99609375 l 1
 131.9921875 421.484375 l 1
 36.009765625 325.50390625 l 1
 36.009765625 415.994140625 l 1
 131.9921875 512 l 1xd0
EndSplineSet
EndChar

StartChar: two
Encoding: 50 50 176
Width: 320
VWidth: 584
Flags: W
HStem: -0.00976562 64.002<114.055 292> 455.996 64.0039<125.22 202.775>
VStem: 36.0078 64<359.992 430.058> 227.996 64.0039<323.445 430.063>
LayerCount: 2
Fore
SplineSet
227.99609375 359.9921875 m 2
 227.993164062 391.991210938 l 2
 227.993164062 427.380834565 199.289862452 455.995119133 164.008105085 455.99609385 c 0
 128.661132887 455.99609385 100.005859442 427.340592279 100.0078125 391.9921875 c 2
 100.0078125 359.9921875 l 1
 36.0078125 359.9921875 l 1
 36.0078125 391.9921875 l 2
 36.0039063831 462.688997058 93.3144532737 520.0000002 164.010350596 520.0000002 c 0
 234.67555873 519.99804801 292 462.704269292 292 391.991210938 c 2
 292 359.9921875 l 2
 292 333.868164062 284.018554688 308.420898438 269.021484375 286.892578125 c 2
 114.0546875 63.9921875 l 1
 292 63.9921875 l 1
 292 -0.009765625 l 1
 36 -0.009765625 l 1
 36 63.9921875 l 1
 216.626953125 323.44140625 l 2
 224.125976562 334.181640625 227.99609375 346.9296875 227.99609375 359.9921875 c 2
EndSplineSet
EndChar

StartChar: three
Encoding: 51 51 177
Width: 320
VWidth: 584
Flags: W
HStem: -8 64<125.212 202.788> 224 64<140 203.513> 456 64<125.212 202.788>
VStem: 36.002 63.998<81.9367 151.998 360 430.063> 228.038 63.9619<81.9367 198.507 313.493 430.063>
CounterMasks: 1 e0
LayerCount: 2
Fore
SplineSet
36.001953125 360 m 1
 36.0009765625 391.999023438 l 2
 36 462.692382812 93.3076171875 520 164 520 c 0
 234.692382812 520 292 462.692382812 292 392 c 2
 292 352 l 2
 292 315.263671875 276.216796875 280.298828125 248.6640625 256 c 1
 276.216796875 231.701171875 292 196.736328125 292 160 c 2
 292 120 l 2
 292 49.3076171875 234.692382812 -8 164 -8 c 0
 93.3076171875 -8 36 49.3076171875 36.001953125 120 c 2
 36.001953125 151.998046875 l 1
 100 151.998046875 l 1
 100 120 l 2
 100 84.6533203125 128.654296875 56 164 56 c 0
 199.346679688 56 228 84.654296875 228 120 c 1
 228.038085938 120 l 1
 228.038085938 160 l 1
 228 160 l 1
 228 195.346679688 199.346679688 224 164 224 c 2
 140 224 l 1
 140 288 l 1
 164 288 l 2
 199.346679688 288 228 316.654296875 228 352 c 2
 228 392 l 2
 228 427.346679688 199.346679688 456 164 456 c 0
 128.654296875 456 100 427.346679688 100 391.999023438 c 2
 100 360 l 1
 36.001953125 360 l 1
EndSplineSet
EndChar

